<svg width="1735" height="557" viewBox="0 0 1735 557" fill="none" xmlns="http://www.w3.org/2000/svg">
<mask id="mask0_77_17" style="mask-type:alpha" maskUnits="userSpaceOnUse" x="0" y="0" width="1735" height="557">
<rect width="1735" height="557" fill="#D9D9D9"/>
</mask>
<g mask="url(#mask0_77_17)">
<path fill-rule="evenodd" clip-rule="evenodd" d="M929.586 515.477L931.188 515.259L926.892 515.845L926.893 515.844L926.892 515.844L926.893 515.843L921.074 516.635L940.082 498.97L943.419 502.703L943.419 502.703L952.093 512.419L941.979 513.795L931.187 515.259L929.586 515.477Z" fill="#CF4C84"/>
<path d="M238.425 64.8531C238.751 63.1081 239.075 61.2955 239.391 59.4437C240.028 55.6998 240.619 51.8627 241.126 48.1911C241.632 44.5194 242.041 41.0979 242.326 38.1569C242.539 35.9584 242.682 34.0525 242.748 32.5096C242.768 32.0393 242.78 31.6063 242.784 31.2123C242.797 29.9952 242.741 29.1418 242.616 28.6798C242.453 28.0932 242.174 28.193 241.798 28.9711C241.422 29.7493 240.955 31.1916 240.425 33.2159C239.894 35.2403 239.309 37.8063 238.704 40.7683C238.099 43.7303 237.486 47.0294 236.899 50.4779L236.88 50.6009C236.756 51.3831 236.618 52.1624 236.495 52.9197L236.107 55.3643L235.925 56.5137L235.715 57.9084L235.552 59.0106L235.35 60.4067L235.206 61.436L235.011 62.8589L234.887 63.7912L234.681 65.3884L234.594 66.0757C234.503 66.813 234.419 67.5262 234.335 68.2396L234.293 68.6342C234.228 69.2004 234.164 69.767 234.107 70.3093L234.04 70.9753C233.999 71.3948 233.953 71.8379 233.915 72.2329L233.851 72.9495L233.759 74.0129C233.738 74.2565 233.72 74.4874 233.706 74.7056L233.634 75.672C233.623 75.8706 233.607 76.0937 233.598 76.2926C233.588 76.4916 233.565 76.8635 233.551 77.1369L233.526 77.7092C233.517 77.9584 233.515 78.1836 233.508 78.4331L233.5 78.9078C233.499 79.1332 233.501 79.3341 233.504 79.535C233.507 79.7359 233.508 79.811 233.515 79.9124C233.523 80.0138 233.535 80.2675 233.547 80.4448C233.559 80.6221 233.559 80.6468 233.568 80.7235C233.591 80.9275 233.624 81.083 233.66 81.2139C233.664 81.2265 233.671 81.2275 233.679 81.217C233.92 82.1047 234.414 81.4591 235.098 79.3617C236.016 76.5511 237.211 71.34 238.425 64.8531Z" fill="#92CFB5"/>
<path d="M534.666 148.221C534.628 147.148 534.521 146.052 534.348 144.95C533.994 142.722 533.369 140.511 532.515 138.464C531.662 136.417 530.599 134.582 529.399 133.083C528.504 131.962 527.546 131.039 526.561 130.349C526.259 130.139 525.956 129.953 525.651 129.791C524.707 129.292 523.765 129.019 522.853 128.98C521.671 128.937 520.565 129.299 519.597 130.045C518.629 130.791 517.82 131.906 517.215 133.327C516.609 134.747 516.22 136.446 516.069 138.325C515.919 140.204 516.009 142.227 516.336 144.278L516.354 144.35C516.467 144.804 516.518 145.274 516.612 145.719L516.966 147.14L517.133 147.808L517.382 148.606L517.588 149.234L517.876 150.022L518.103 150.599L518.441 151.39L518.677 151.905L519.11 152.778L519.303 153.153C519.519 153.552 519.746 153.932 519.974 154.313L520.117 154.519C520.307 154.819 520.498 155.119 520.701 155.4L520.961 155.743C521.13 155.957 521.295 156.187 521.461 156.388L521.775 156.747L522.255 157.277C522.367 157.397 522.481 157.51 522.596 157.614L523.086 158.081C523.2 158.173 523.318 158.279 523.44 158.37C523.562 158.46 523.771 158.634 523.935 158.759L524.297 159.016C524.465 159.125 524.638 159.218 524.814 159.325L525.17 159.523C525.35 159.614 525.527 159.69 525.704 159.767C525.88 159.844 525.945 159.872 526.061 159.904C526.177 159.936 526.439 160.022 526.635 160.078C526.832 160.135 526.851 160.145 526.955 160.164C527.218 160.22 527.489 160.243 527.749 160.253C527.779 160.253 527.808 160.246 527.834 160.232C529.594 160.305 531.173 159.475 532.373 157.848C533.985 155.665 534.809 152.207 534.666 148.221Z" fill="#007681"/>
<path d="M1171.55 133.874C1171.41 135.222 1171.32 136.62 1171.28 138.045C1171.19 140.927 1171.29 143.87 1171.58 146.675C1171.86 149.481 1172.33 152.084 1172.94 154.311C1173.4 155.975 1173.93 157.41 1174.51 158.564C1174.69 158.915 1174.88 159.238 1175.07 159.53C1175.65 160.433 1176.27 161.055 1176.9 161.375C1177.72 161.781 1178.55 161.659 1179.34 161.017C1180.13 160.376 1180.86 159.227 1181.5 157.637C1182.14 156.046 1182.67 154.046 1183.06 151.748C1183.45 149.451 1183.69 146.902 1183.77 144.248L1183.77 144.153C1183.76 143.553 1183.8 142.952 1183.8 142.37L1183.77 140.494L1183.75 139.611L1183.7 138.542L1183.65 137.698L1183.57 136.63L1183.49 135.843L1183.38 134.756L1183.29 134.044L1183.12 132.827L1183.04 132.303C1182.95 131.741 1182.85 131.199 1182.75 130.656L1182.68 130.357C1182.59 129.926 1182.5 129.496 1182.4 129.085L1182.27 128.58C1182.19 128.262 1182.11 127.926 1182.02 127.627L1181.86 127.086L1181.6 126.283C1181.54 126.099 1181.48 125.925 1181.41 125.761L1181.14 125.033C1181.08 124.884 1181.01 124.716 1180.94 124.568C1180.87 124.419 1180.75 124.139 1180.65 123.935L1180.44 123.507C1180.33 123.321 1180.23 123.154 1180.12 122.968L1179.9 122.615C1179.79 122.448 1179.68 122.3 1179.57 122.151C1179.45 122.003 1179.41 121.948 1179.34 121.874C1179.26 121.8 1179.09 121.615 1178.96 121.486C1178.83 121.356 1178.82 121.338 1178.75 121.283C1178.57 121.136 1178.39 121.027 1178.21 120.936C1178.19 120.927 1178.17 120.928 1178.15 120.937C1176.93 120.322 1175.7 120.886 1174.61 122.557C1173.15 124.797 1172.05 128.861 1171.55 133.874Z" fill="#007681"/>
<path d="M1473.35 7.59573C1473.23 7.48204 1473.09 7.37623 1472.96 7.27032C1472.12 6.60495 1471.01 6.17594 1469.68 6.00997C1468.35 5.84401 1466.84 5.94449 1465.24 6.30532C1462.57 6.90685 1459.78 8.20186 1457.34 9.97578C1455.34 11.4293 1453.66 13.1391 1452.48 14.9115C1451.42 16.5103 1450.81 18.1062 1450.7 19.5519C1450.59 20.9975 1451 22.2461 1451.87 23.182L1473.35 7.59573Z" fill="#92CFB5"/>
<path d="M1690.3 117.291C1690.46 117.603 1690.64 117.91 1690.82 118.217C1691.95 120.134 1693.45 121.801 1695.24 123.115C1697.03 124.428 1699.07 125.36 1701.24 125.853C1704.85 126.674 1708.63 126.237 1711.96 124.614C1714.68 123.283 1716.98 121.216 1718.59 118.648C1720.04 116.334 1720.89 113.69 1721.06 110.961C1721.22 108.231 1720.69 105.504 1719.52 103.032L1690.3 117.291Z" fill="#92CFB5"/>
<path d="M307.023 194.923C305.619 195.158 304.17 195.436 302.7 195.753C299.729 196.393 296.724 197.179 293.888 198.057C291.051 198.935 288.449 199.886 286.257 200.844C284.617 201.56 283.224 202.27 282.128 202.948C281.794 203.156 281.491 203.359 281.219 203.559C280.38 204.176 279.835 204.748 279.601 205.255C279.309 205.912 279.559 206.446 280.336 206.827C281.113 207.208 282.403 207.429 284.132 207.476C285.86 207.523 287.994 207.396 290.411 207.102C292.827 206.808 295.48 206.353 298.216 205.763L298.313 205.739C298.928 205.585 299.55 205.463 300.147 205.323L302.068 204.844L302.972 204.618L304.061 204.322L304.92 204.083L306.004 203.767L306.801 203.527L307.899 203.183L308.616 202.951L309.841 202.538L310.366 202.357C310.929 202.159 311.471 201.958 312.012 201.757L312.309 201.638C312.738 201.473 313.166 201.308 313.573 201.141L314.072 200.929C314.385 200.794 314.718 200.657 315.011 200.526L315.542 200.282L316.328 199.912C316.508 199.827 316.677 199.742 316.836 199.658L317.542 199.296C317.685 199.215 317.847 199.129 317.989 199.044C318.131 198.959 318.399 198.809 318.595 198.694L319.002 198.444C319.178 198.33 319.333 198.217 319.508 198.099L319.837 197.864C319.992 197.747 320.127 197.635 320.262 197.523C320.397 197.41 320.448 197.369 320.512 197.299C320.576 197.229 320.741 197.068 320.854 196.949C320.968 196.83 320.985 196.818 321.031 196.757C321.155 196.602 321.239 196.448 321.305 196.304C321.311 196.287 321.307 196.273 321.295 196.261C321.742 195.282 320.978 194.582 319.099 194.25C316.581 193.804 312.243 194.045 307.023 194.923Z" fill="#007681"/>
<path fill-rule="evenodd" clip-rule="evenodd" d="M1570.23 218.871L1581.51 205.515L1581.51 205.515L1592.08 193L1592.08 193L1597.77 213.115L1565.75 224.184L1565.75 224.184L1565.74 224.186L1565.74 224.185L1570.21 218.898L1570.23 218.872L1570.23 218.871ZM1565.75 224.184L1597.77 213.116L1599.96 220.851L1559.66 231.387L1565.75 224.184Z" fill="#CF4C84"/>
<path fill-rule="evenodd" clip-rule="evenodd" d="M76.4165 173.708L79.187 173.911L74.4313 173.561L74.4326 173.562L74.4317 173.562L74.4326 173.563L67.9892 173.091L90.0632 191.188L93.4724 186.862L93.473 186.863L102.333 175.603L91.1349 174.783L79.1874 173.912L76.4165 173.708Z" fill="#CF4C84"/>
<path d="M113.293 328.758C114.444 329.592 115.645 330.444 116.879 331.302C119.374 333.036 121.958 334.76 124.456 336.358C126.953 337.957 129.307 339.393 131.36 340.57C132.894 341.45 134.241 342.176 135.354 342.723C135.693 342.889 136.008 343.037 136.297 343.165C137.191 343.563 137.846 343.785 138.24 343.825C138.744 343.871 138.789 343.601 138.374 343.032C137.96 342.462 137.093 341.605 135.823 340.508C134.554 339.411 132.907 338.096 130.976 336.638C129.045 335.18 126.868 333.608 124.57 332.012L124.487 331.956C123.962 331.602 123.445 331.236 122.938 330.89L121.296 329.783L120.525 329.262L119.583 328.64L118.839 328.15L117.893 327.535L117.194 327.084L116.225 326.466L115.589 326.064L114.496 325.381L114.025 325.089C113.519 324.776 113.028 324.478 112.537 324.18L112.263 324.018C111.872 323.784 111.481 323.549 111.104 323.328L110.641 323.059C110.348 322.891 110.04 322.711 109.764 322.554L109.262 322.271L108.516 321.855C108.344 321.76 108.181 321.671 108.026 321.589L107.343 321.222C107.201 321.149 107.042 321.065 106.899 320.994C106.756 320.922 106.491 320.785 106.295 320.686L105.883 320.483C105.702 320.396 105.537 320.322 105.356 320.237L105.008 320.08C104.842 320.008 104.692 319.946 104.543 319.885C104.393 319.823 104.337 319.8 104.259 319.775C104.181 319.749 103.988 319.679 103.852 319.633C103.716 319.587 103.698 319.579 103.637 319.563C103.477 319.517 103.347 319.497 103.235 319.486C103.224 319.486 103.221 319.491 103.225 319.501C102.466 319.426 102.732 320.054 103.99 321.306C105.676 322.984 109.017 325.661 113.293 328.758Z" fill="#007681"/>
<path d="M1141.86 503.601C1142.32 505.297 1142.86 507.031 1143.47 508.778C1144.7 512.308 1146.19 515.823 1147.85 519.086C1149.5 522.349 1151.27 525.284 1153.05 527.694C1154.37 529.497 1155.68 530.988 1156.92 532.113C1157.31 532.455 1157.68 532.76 1158.04 533.027C1159.17 533.848 1160.21 534.314 1161.12 534.408C1162.3 534.518 1163.25 533.985 1163.91 532.841C1164.56 531.698 1164.92 529.966 1164.95 527.744C1164.99 525.522 1164.7 522.853 1164.1 519.891C1163.51 516.929 1162.62 513.731 1161.48 510.479L1161.44 510.366C1161.14 509.644 1160.91 508.9 1160.64 508.195L1159.73 505.938L1159.3 504.877L1158.74 503.608L1158.29 502.609L1157.69 501.354L1157.24 500.434L1156.59 499.173L1156.16 498.352L1155.38 496.957L1155.05 496.359C1154.67 495.721 1154.3 495.112 1153.92 494.502L1153.7 494.172C1153.4 493.692 1153.09 493.211 1152.78 492.76L1152.39 492.209C1152.13 491.865 1151.88 491.495 1151.64 491.173L1151.19 490.594L1150.5 489.741C1150.35 489.546 1150.19 489.365 1150.03 489.196L1149.37 488.442C1149.22 488.292 1149.06 488.12 1148.9 487.973C1148.75 487.826 1148.47 487.544 1148.26 487.34L1147.8 486.922C1147.59 486.744 1147.39 486.591 1147.17 486.416L1146.74 486.09C1146.53 485.94 1146.32 485.813 1146.12 485.686C1145.92 485.558 1145.84 485.51 1145.71 485.456C1145.59 485.402 1145.29 485.257 1145.08 485.16C1144.86 485.064 1144.84 485.047 1144.73 485.013C1144.45 484.917 1144.17 484.871 1143.91 484.845C1143.88 484.844 1143.86 484.854 1143.84 484.875C1142.07 484.698 1140.85 485.951 1140.31 488.479C1139.59 491.868 1140.14 497.3 1141.86 503.601Z" fill="#007681"/>
<path d="M137.957 498.546C138.387 497.329 138.803 496.059 139.199 494.755C139.997 492.118 140.694 489.391 141.244 486.757C141.794 484.123 142.184 481.643 142.388 479.484C142.541 477.87 142.59 476.454 142.534 475.287C142.516 474.931 142.488 474.601 142.449 474.298C142.329 473.362 142.115 472.679 141.815 472.271C141.423 471.75 140.89 471.714 140.247 472.162C139.603 472.611 138.862 473.536 138.065 474.886C137.268 476.235 136.431 477.982 135.602 480.027C134.774 482.072 133.969 484.374 133.234 486.802L133.211 486.89C133.062 487.444 132.886 487.991 132.735 488.526L132.271 490.26L132.052 491.075L131.809 492.068L131.621 492.854L131.394 493.852L131.235 494.589L131.025 495.611L130.894 496.281L130.683 497.433L130.595 497.929C130.505 498.462 130.427 498.98 130.348 499.498L130.312 499.785C130.255 500.197 130.197 500.609 130.151 501.006L130.099 501.494C130.069 501.801 130.032 502.125 130.006 502.416L129.966 502.944L129.914 503.729C129.903 503.909 129.896 504.08 129.893 504.243L129.87 504.961C129.871 505.11 129.868 505.277 129.873 505.427C129.878 505.577 129.878 505.855 129.884 506.061L129.903 506.493C129.916 506.683 129.938 506.856 129.954 507.046L129.996 507.41C130.021 507.584 130.05 507.74 130.08 507.897C130.109 508.053 130.12 508.112 130.147 508.193C130.174 508.275 130.229 508.476 130.274 508.618C130.319 508.76 130.321 508.779 130.349 508.843C130.418 509.01 130.502 509.143 130.588 509.259C130.598 509.271 130.611 509.274 130.626 509.27C131.206 510.055 132.096 509.757 133.184 508.413C134.645 506.613 136.359 503.069 137.957 498.546Z" fill="#007681"/>
<path d="M542.305 496.231C541.912 496.582 541.534 496.956 541.155 497.329C538.783 499.644 536.912 502.422 535.657 505.489C534.401 508.557 533.789 511.849 533.858 515.163C533.972 520.686 535.97 526.004 539.52 530.237C542.431 533.699 546.253 536.278 550.553 537.682C554.429 538.956 558.564 539.232 562.576 538.484C566.588 537.736 570.346 535.989 573.503 533.404L542.305 496.231Z" fill="#92CFB5"/>
<path d="M1480.29 515.65C1480.88 514.884 1481.47 514.078 1482.05 513.243C1483.22 511.553 1484.35 509.777 1485.35 508.032C1486.35 506.287 1487.2 504.615 1487.84 503.128C1488.32 502.017 1488.68 501.022 1488.91 500.18C1488.98 499.923 1489.04 499.682 1489.08 499.458C1489.21 498.764 1489.22 498.23 1489.1 497.87C1488.94 497.41 1488.57 497.261 1488.01 497.431C1487.45 497.601 1486.71 498.088 1485.83 498.863C1484.95 499.638 1483.95 500.686 1482.89 501.947C1481.83 503.209 1480.73 504.659 1479.64 506.215L1479.61 506.272C1479.37 506.631 1479.12 506.979 1478.89 507.325L1478.16 508.449L1477.82 508.978L1477.42 509.627L1477.1 510.142L1476.71 510.799L1476.43 511.286L1476.04 511.964L1475.79 512.41L1475.38 513.18L1475.2 513.512C1475.01 513.87 1474.84 514.219 1474.66 514.569L1474.57 514.766C1474.44 515.045 1474.3 515.324 1474.17 515.595L1474.03 515.93C1473.93 516.142 1473.83 516.363 1473.75 516.564L1473.6 516.93L1473.38 517.476C1473.33 517.601 1473.28 517.721 1473.24 517.836L1473.06 518.341C1473.03 518.447 1472.99 518.565 1472.96 518.673C1472.93 518.78 1472.86 518.978 1472.82 519.126L1472.73 519.437C1472.7 519.575 1472.67 519.703 1472.64 519.842L1472.59 520.11C1472.56 520.239 1472.55 520.358 1472.53 520.476C1472.52 520.594 1472.51 520.638 1472.51 520.702C1472.51 520.766 1472.51 520.922 1472.5 521.033C1472.5 521.144 1472.5 521.158 1472.51 521.21C1472.52 521.344 1472.55 521.459 1472.58 521.561C1472.58 521.572 1472.59 521.577 1472.6 521.577C1472.84 522.269 1473.54 522.262 1474.62 521.559C1476.07 520.617 1478.11 518.495 1480.29 515.65Z" fill="#007681"/>
<path d="M1636.39 505.228C1636.95 505.361 1637.53 505.467 1638.11 505.573C1641.7 506.251 1645.39 506.185 1648.96 505.378C1652.52 504.571 1655.89 503.041 1658.84 500.883C1663.76 497.285 1667.3 492.114 1668.88 486.229C1670.16 481.408 1670.08 476.323 1668.62 471.549C1667.32 467.24 1664.95 463.329 1661.74 460.177C1658.53 457.025 1654.57 454.735 1650.24 453.518L1636.39 505.228Z" fill="#92CFB5"/>
</g>
</svg>
