<svg width="335" height="386" viewBox="0 0 335 386" fill="none" xmlns="http://www.w3.org/2000/svg">
<rect width="335" height="386" fill="white"/>
<path d="M115.17 125.516C128.261 125.516 140.816 130.692 150.073 139.905C159.329 149.117 164.53 161.613 164.53 174.642C164.53 187.67 159.329 200.166 150.073 209.378C140.816 218.591 128.261 223.767 115.17 223.767V125.516Z" fill="#ED93B6"/>
<path d="M228.465 125.516C241.556 125.516 254.111 130.692 263.368 139.905C272.625 149.117 277.825 161.613 277.825 174.642C277.825 187.67 272.625 200.166 263.368 209.378C254.111 218.591 241.556 223.767 228.465 223.767V125.516Z" fill="#ED93B6"/>
<path d="M82.969 224.707C88.3152 224.707 93.5414 223.121 97.9865 220.151C102.432 217.181 105.896 212.959 107.942 208.02C109.988 203.081 110.523 197.646 109.48 192.403C108.437 187.159 105.863 182.343 102.083 178.562C98.3024 174.782 93.4858 172.208 88.2424 171.165C82.9989 170.122 77.564 170.657 72.6248 172.703C67.6855 174.749 63.4641 178.213 60.4939 182.658C57.5237 187.104 55.9385 192.33 55.9385 197.676C55.9385 204.845 58.7861 211.72 63.8553 216.79C68.9246 221.859 75.8 224.707 82.969 224.707" fill="#CF4C84"/>
<path d="M195.793 224.707C201.139 224.707 206.365 223.121 210.811 220.151C215.256 217.181 218.721 212.959 220.767 208.02C222.813 203.081 223.347 197.646 222.304 192.403C221.262 187.159 218.687 182.343 214.907 178.562C211.127 174.782 206.31 172.208 201.067 171.165C195.824 170.122 190.388 170.657 185.449 172.703C180.51 174.749 176.288 178.213 173.318 182.658C170.348 187.104 168.763 192.33 168.763 197.676C168.763 204.845 171.61 211.72 176.68 216.79C181.749 221.859 188.624 224.707 195.793 224.707" fill="#CF4C84"/>
<path d="M277.826 78.9763H177.225V157.013L215.958 130.988V112.415H236.875L277.826 78.9763Z" fill="#CF4C84"/>
<path d="M164.531 78.9763H63.9297V157.013L102.663 130.988V112.415H123.58L164.531 78.9763Z" fill="#CF4C84"/>
<path d="M146.435 253.293C146.435 260.493 144.635 262.905 140.783 264.849L144.311 269.241C149.675 266.073 152.195 262.509 152.195 254.013V247.101H157.595V268.701H163.355V241.701H146.435V253.293ZM166.016 268.701H178.616V263.301H171.776V257.541H177.536V252.141H171.776V247.101H178.616V241.701H166.016V268.701ZM184.522 268.701H190.282V247.101H194.962V241.701H179.842V247.101H184.522V268.701Z" fill="#ED93B6"/>
<path d="M35.4193 293.621C35.4193 296.069 33.8713 296.501 32.5393 296.501V290.741C33.8713 290.741 35.4193 291.569 35.4193 293.621ZM36.1393 304.421C36.1393 307.085 34.4113 307.661 32.5393 307.661V301.181C34.2313 301.181 36.1393 301.973 36.1393 304.421ZM26.7793 312.701H33.5473C38.0473 312.701 41.8993 310.325 41.8993 305.141C41.8993 301.181 39.5233 298.589 37.7233 297.977C39.2353 297.365 40.8193 295.601 40.8193 292.901C40.8193 286.817 35.7793 285.701 32.0713 285.701H26.7793V312.701ZM56.43 312.701L59.958 301.181H60.03L61.47 312.701H67.59L63.27 285.701H60.39L55.386 301.541H55.314L50.31 285.701H47.43L43.11 312.701H49.23L50.67 301.181H50.742L54.27 312.701H56.43ZM69.5293 312.701H82.1293V307.301H75.2893V301.541H81.0493V296.141H75.2893V291.101H82.1293V285.701H69.5293V312.701ZM102.012 289.193C99.852 286.565 97.26 285.161 94.38 285.161C88.26 285.161 83.724 290.993 83.724 299.201C83.724 307.229 88.332 313.241 94.38 313.241C97.62 313.241 99.888 311.765 102.084 309.101L98.052 305.537C96.864 306.977 95.748 307.661 94.38 307.661C91.284 307.661 89.844 303.593 89.844 299.201C89.844 294.845 91.284 290.741 94.38 290.741C96.036 290.741 97.008 291.533 97.908 292.757L102.012 289.193ZM107.618 312.701H113.378V291.101H118.058V285.701H102.938V291.101H107.618V312.701ZM119.627 312.701H132.227V307.301H125.387V301.541H131.147V296.141H125.387V291.101H132.227V285.701H119.627V312.701ZM150.029 293.621C150.029 296.069 148.481 296.501 147.149 296.501V290.741C148.481 290.741 150.029 291.569 150.029 293.621ZM150.749 304.421C150.749 307.085 149.021 307.661 147.149 307.661V301.181C148.841 301.181 150.749 301.973 150.749 304.421ZM141.389 312.701H148.157C152.657 312.701 156.509 310.325 156.509 305.141C156.509 301.181 154.133 298.589 152.333 297.977C153.845 297.365 155.429 295.601 155.429 292.901C155.429 286.817 150.389 285.701 146.681 285.701H141.389V312.701ZM180.415 304.421C180.415 298.445 176.347 296.141 171.055 296.141V291.101H177.895V285.701H165.295V312.701H171.055C176.275 312.701 180.415 310.253 180.415 304.421ZM174.655 304.421C174.655 306.473 173.287 307.661 171.055 307.661V301.181C173.287 301.181 174.655 301.973 174.655 304.421ZM191.346 296.717H191.274L187.386 285.701H181.266L188.394 303.053C187.062 306.689 186.198 307.301 184.362 307.301H183.426V312.701H185.478C189.762 312.701 191.454 309.893 193.902 303.953L201.426 285.701H195.27L191.346 296.717ZM201.938 317.525H205.538V312.701H223.79V317.525H227.39V307.301H224.51V285.701H207.59V297.293C207.59 302.657 206.654 304.889 204.134 307.301H201.938V317.525ZM213.35 291.101H218.75V307.301H211.226C212.702 304.493 213.35 302.369 213.35 298.013V291.101ZM237.963 296.717H237.891L234.003 285.701H227.883L235.011 303.053C233.679 306.689 232.815 307.301 230.979 307.301H230.043V312.701H232.095C236.379 312.701 238.071 309.893 240.519 303.953L248.043 285.701H241.887L237.963 296.717ZM276.635 312.701V317.525H280.235V307.301H277.715V285.701H271.955V307.301H266.555V285.701H260.795V307.301H255.395V285.701H249.635V312.701H276.635ZM281.803 312.701H294.403V307.301H287.563V301.541H293.323V296.141H287.563V291.101H294.403V285.701H281.803V312.701ZM296.709 312.701H309.309V307.301H302.469V301.541H308.229V296.141H302.469V291.101H309.309V285.701H296.709V312.701Z" fill="#92CFB5"/>
<path d="M33.899 354.206L34.959 353.166C33.539 351.626 31.479 350.646 29.199 350.646C24.899 350.646 21.399 354.086 21.399 358.386C21.399 362.686 24.899 366.126 29.199 366.126C31.519 366.126 33.639 365.106 35.079 363.486L34.059 362.426C32.899 363.786 31.139 364.686 29.199 364.686C25.719 364.686 22.959 361.846 22.959 358.386C22.959 354.926 25.719 352.086 29.199 352.086C31.079 352.086 32.739 352.926 33.899 354.206ZM36.9654 361.206C36.9654 363.926 39.1854 366.126 41.9054 366.126C43.4654 366.126 44.5254 365.606 45.4054 364.626H45.4454V365.886H46.8054V356.526H45.4454V357.786H45.4054C44.5254 356.846 43.4654 356.286 41.9054 356.286C39.1854 356.286 36.9654 358.486 36.9654 361.206ZM38.3254 361.206C38.3254 359.206 39.9054 357.566 41.9054 357.566C43.9054 357.566 45.4854 359.206 45.4854 361.206C45.4854 363.206 43.9054 364.846 41.9054 364.846C39.9054 364.846 38.3254 363.206 38.3254 361.206ZM57.7943 356.286L54.4743 363.406H54.4343L51.0943 356.286H50.7343L48.6943 365.886H50.1543L51.3543 359.946H51.3943L54.2943 366.126H54.5743L57.4943 359.926H57.5343L58.7343 365.886H60.2143L58.1543 356.286H57.7943ZM63.452 360.246V356.526H62.092V365.886H64.672C66.712 365.886 68.452 365.086 68.452 363.066C68.452 361.066 66.712 360.246 64.672 360.246H63.452ZM63.452 361.526H64.392C65.632 361.526 67.032 361.786 67.032 363.066C67.032 364.306 65.792 364.606 64.532 364.606H63.452V361.526ZM72.252 356.526H70.892V365.886H72.252V356.526ZM76.124 352.006C76.404 353.526 77.804 354.486 79.224 354.486C80.664 354.486 82.064 353.526 82.324 352.006H81.164C80.844 352.886 80.184 353.366 79.224 353.366C78.284 353.366 77.604 352.886 77.284 352.006H76.124ZM75.204 366.126L82.104 359.206H82.144V365.886H83.524V356.286H83.244L76.344 363.266H76.304V356.526H74.924V366.126H75.204ZM97.9076 363.486C97.2476 364.306 96.2676 364.846 95.1276 364.846C93.1276 364.846 91.5676 363.206 91.5676 361.206C91.5676 359.206 93.1276 357.566 95.1276 357.566C96.2076 357.566 97.1676 358.046 97.8276 358.786L98.8076 357.926C97.9076 356.926 96.5876 356.286 95.1276 356.286C92.4076 356.286 90.2076 358.486 90.2076 361.206C90.2076 363.926 92.4076 366.126 95.1276 366.126C96.6276 366.126 97.9876 365.446 98.8876 364.386L97.9076 363.486ZM100.774 361.206C100.774 363.926 102.994 366.126 105.714 366.126C108.434 366.126 110.614 363.926 110.614 361.206C110.614 358.486 108.434 356.286 105.714 356.286C102.994 356.286 100.774 358.486 100.774 361.206ZM102.154 361.206C102.154 359.206 103.754 357.586 105.714 357.586C107.694 357.586 109.274 359.206 109.274 361.206C109.274 363.206 107.694 364.826 105.714 364.826C103.734 364.826 102.154 363.206 102.154 361.206ZM113.893 360.086C113.893 362.406 113.513 364.386 111.893 365.046L112.613 366.066C114.373 365.406 115.253 363.246 115.253 360.326V357.806H119.293V365.886H120.653V356.526H113.893V360.086ZM124.702 360.086V356.526H123.342V365.886H124.702V361.366H129.782V365.886H131.142V356.526H129.782V360.086H124.702ZM141.35 363.126C140.75 364.166 139.45 364.846 138.15 364.846C136.23 364.846 134.87 363.346 134.77 361.466H142.87V361.206C142.87 358.486 140.87 356.286 138.15 356.286C135.43 356.286 133.43 358.486 133.43 361.206C133.43 363.926 135.43 366.126 138.15 366.126C139.91 366.126 141.65 365.186 142.47 363.806L141.35 363.126ZM134.85 360.266C135.25 358.586 136.63 357.566 138.15 357.566C139.71 357.566 141.05 358.586 141.45 360.266H134.85ZM151.798 365.886V356.526H150.438V361.086C149.778 361.446 149.358 361.666 148.418 361.666C147.058 361.666 146.118 361.146 146.118 359.566V356.526H144.758V359.886C144.758 361.666 146.078 362.946 148.198 362.946C149.278 362.946 149.698 362.746 150.398 362.446H150.438V365.886H151.798ZM155.835 360.086V356.526H154.475V365.886H155.835V361.366H160.915V365.886H162.275V356.526H160.915V360.086H155.835ZM166.323 360.246V356.526H164.963V365.886H167.543C169.583 365.886 171.323 365.086 171.323 363.066C171.323 361.066 169.583 360.246 167.543 360.246H166.323ZM166.323 361.526H167.263C168.503 361.526 169.903 361.786 169.903 363.066C169.903 364.306 168.663 364.606 167.403 364.606H166.323V361.526ZM175.123 356.526H173.763V365.886H175.123V356.526ZM178.995 352.006C179.275 353.526 180.675 354.486 182.095 354.486C183.535 354.486 184.935 353.526 185.195 352.006H184.035C183.715 352.886 183.055 353.366 182.095 353.366C181.155 353.366 180.475 352.886 180.155 352.006H178.995ZM178.075 366.126L184.975 359.206H185.015V365.886H186.395V356.286H186.115L179.215 363.266H179.175V356.526H177.795V366.126H178.075ZM194.899 360.186H194.859V356.526H193.479V365.886H194.859V362.206H194.899L199.079 365.886H201.119C199.459 364.406 197.419 362.646 195.719 361.166L200.819 356.526H198.879L194.899 360.186ZM209.514 363.126C208.914 364.166 207.614 364.846 206.314 364.846C204.394 364.846 203.034 363.346 202.934 361.466H211.034V361.206C211.034 358.486 209.034 356.286 206.314 356.286C203.594 356.286 201.594 358.486 201.594 361.206C201.594 363.926 203.594 366.126 206.314 366.126C208.074 366.126 209.814 365.186 210.634 363.806L209.514 363.126ZM203.014 360.266C203.414 358.586 204.794 357.566 206.314 357.566C207.874 357.566 209.214 358.586 209.614 360.266H203.014ZM214.522 352.006C214.802 353.526 216.202 354.486 217.622 354.486C219.062 354.486 220.462 353.526 220.722 352.006H219.562C219.242 352.886 218.582 353.366 217.622 353.366C216.682 353.366 216.002 352.886 215.682 352.006H214.522ZM213.602 366.126L220.502 359.206H220.542V365.886H221.922V356.286H221.642L214.742 363.266H214.702V356.526H213.322V366.126H213.602ZM231.911 363.486C231.251 364.306 230.271 364.846 229.131 364.846C227.131 364.846 225.571 363.206 225.571 361.206C225.571 359.206 227.131 357.566 229.131 357.566C230.211 357.566 231.171 358.046 231.831 358.786L232.811 357.926C231.911 356.926 230.591 356.286 229.131 356.286C226.411 356.286 224.211 358.486 224.211 361.206C224.211 363.926 226.411 366.126 229.131 366.126C230.631 366.126 231.991 365.446 232.891 364.386L231.911 363.486ZM252.052 366.126V350.886H250.572V362.706H250.532L240.012 350.646H239.772V365.886H241.252V354.186H241.292L251.792 366.126H252.052ZM262.249 363.126C261.649 364.166 260.349 364.846 259.049 364.846C257.129 364.846 255.769 363.346 255.669 361.466H263.769V361.206C263.769 358.486 261.769 356.286 259.049 356.286C256.329 356.286 254.329 358.486 254.329 361.206C254.329 363.926 256.329 366.126 259.049 366.126C260.809 366.126 262.549 365.186 263.369 363.806L262.249 363.126ZM255.749 360.266C256.149 358.586 257.529 357.566 259.049 357.566C260.609 357.566 261.949 358.586 262.349 360.266H255.749ZM273.357 363.486C272.697 364.306 271.717 364.846 270.577 364.846C268.577 364.846 267.017 363.206 267.017 361.206C267.017 359.206 268.577 357.566 270.577 357.566C271.657 357.566 272.617 358.046 273.277 358.786L274.257 357.926C273.357 356.926 272.037 356.286 270.577 356.286C267.857 356.286 265.657 358.486 265.657 361.206C265.657 363.926 267.857 366.126 270.577 366.126C272.077 366.126 273.437 365.446 274.337 364.386L273.357 363.486ZM278.383 352.966H277.023V356.526H276.023V357.806H277.023V362.586C277.023 364.746 277.743 366.126 279.703 366.126C280.043 366.126 280.403 366.046 280.743 365.886V364.606C280.423 364.746 280.123 364.846 279.763 364.846C278.623 364.846 278.383 363.986 278.383 362.326V357.806H279.983V356.526H278.383V352.966ZM281.829 361.206C281.829 363.926 284.049 366.126 286.769 366.126C288.329 366.126 289.389 365.606 290.269 364.626H290.309V365.886H291.669V356.526H290.309V357.786H290.269C289.389 356.846 288.329 356.286 286.769 356.286C284.049 356.286 281.829 358.486 281.829 361.206ZM283.189 361.206C283.189 359.206 284.769 357.566 286.769 357.566C288.769 357.566 290.349 359.206 290.349 361.206C290.349 363.206 288.769 364.846 286.769 364.846C284.769 364.846 283.189 363.206 283.189 361.206ZM295.718 356.526H294.358V365.886H295.718V360.806C295.718 358.706 297.218 357.566 298.178 357.566C298.578 357.566 298.898 357.606 299.198 357.726V356.446C298.878 356.306 298.598 356.286 298.218 356.286C297.198 356.286 296.258 356.906 295.758 357.986H295.718V356.526ZM302.601 356.526H301.241V365.886H302.601V356.526ZM301.921 352.246C301.341 352.246 300.881 352.746 300.881 353.306C300.881 353.906 301.341 354.366 301.921 354.366C302.481 354.366 302.961 353.906 302.961 353.306C302.961 352.746 302.481 352.246 301.921 352.246ZM305.647 356.526V365.886H307.007V360.806C307.007 358.706 308.227 357.566 309.647 357.566C311.147 357.566 311.847 358.566 311.847 360.706V365.886H313.207V360.506C313.207 358.246 312.467 356.286 309.947 356.286C308.607 356.286 307.627 356.806 307.047 357.686H307.007V356.526H305.647Z" fill="#CF4C84"/>
<path d="M97.0382 30.1305C97.0382 35.8134 92.0495 40.3845 85.8472 40.3845C79.7798 40.261 74.791 35.6899 74.791 30.1305C74.791 25.0652 78.836 20.8648 84.0944 20V20.1235C80.0495 21.4825 77.4876 25.0652 77.4876 29.2657C77.4876 34.578 81.5326 37.6666 85.8472 37.6666C90.4315 37.6666 94.0719 34.3309 94.0719 30.1305C94.0719 26.5478 90.9708 23.5827 86.9259 23.5827C82.4764 23.5827 80.1843 27.4126 80.1843 27.4126C80.1843 27.4126 82.2068 21.8531 88.2742 21.8531C92.0495 21.8531 97.0382 24.5711 97.0382 30.1305ZM194.252 33.0955L197.892 25.4359L201.533 33.0955H194.252ZM204.769 40.0139H208.005L199.106 22.1002H196.679L187.915 40.0139H191.016L193.173 35.4428H202.611L204.769 40.0139ZM206.656 46.4381H207.331V51.6269H206.791L203.151 47.4264V51.6269H202.477V46.4381H203.016L206.522 50.515V46.4381H206.656ZM192.229 46.9323H188.859V48.6619H191.96V49.156H188.859V51.0092H192.364V51.5033H188.319V46.3146H192.364V46.9323H192.229ZM175.375 46.9323H174.027V51.0092H175.375C176.859 51.0092 177.668 50.1444 177.668 49.0325C177.802 47.9206 176.859 46.9323 175.375 46.9323ZM175.375 51.6269H173.488V46.4381H175.375C177.128 46.4381 178.342 47.55 178.342 49.0325C178.342 50.3915 177.128 51.6269 175.375 51.6269ZM163.51 46.9323H160.139V48.6619H163.241V49.156H160.139V51.0092H163.645V51.5033H159.6V46.3146H163.645V46.9323H163.51ZM146.656 46.4381H147.196L148.679 50.7621L150.297 46.4381H150.971L148.948 51.6269H148.409L146.926 47.4264L145.443 51.6269H144.903L142.881 46.4381H143.555L145.173 50.7621L146.656 46.4381ZM133.173 48.7854C134.387 49.0325 135.061 49.4031 135.061 50.2679C135.061 51.1327 134.252 51.7504 133.173 51.7504C132.229 51.7504 131.555 51.5033 130.881 50.8856L131.285 50.515C131.825 51.0092 132.499 51.2563 133.173 51.2563C133.982 51.2563 134.387 50.8856 134.387 50.3915C134.387 49.8973 134.117 49.6502 132.903 49.4031C131.555 49.156 131.016 48.7854 131.016 47.9206C131.016 47.0558 131.825 46.5616 132.903 46.5616C133.712 46.5616 134.252 46.8087 134.926 47.1794L134.521 47.6735C133.982 47.3029 133.443 47.0558 132.903 47.0558C132.229 47.0558 131.69 47.4264 131.69 47.9206C131.555 48.2912 131.825 48.5383 133.173 48.7854ZM76.6787 48.7854H120.634V49.156H76.6787V48.7854ZM218.117 48.7854H258.971V49.156H218.117V48.7854ZM108.634 30.8717H113.892C116.589 30.8717 118.207 29.6363 118.207 27.6596C118.207 25.683 116.589 24.6946 113.892 24.6946H108.499V30.8717H108.634ZM122.387 40.0139H118.746L113.488 33.3426H108.769V40.0139H105.802V22.2238H114.162C118.476 22.2238 121.308 24.324 121.308 27.6596C121.308 30.254 119.555 32.2307 116.454 32.8484L122.387 40.0139ZM108.634 30.8717H113.892C116.589 30.8717 118.342 29.6363 118.342 27.6596C118.342 25.683 116.724 24.6946 114.027 24.6946H108.634V30.8717V30.8717ZM122.387 40.0139H118.746L113.488 33.3426H108.769V40.0139H105.802V22.2238H114.162C118.476 22.2238 121.308 24.324 121.308 27.6596C121.308 30.254 119.555 32.2307 116.454 32.8484L122.387 40.0139ZM108.634 30.8717H113.892C116.589 30.8717 118.207 29.6363 118.207 27.6596C118.207 25.683 116.589 24.6946 113.892 24.6946H108.499V30.8717H108.634ZM122.387 40.0139H118.746L113.488 33.3426H108.769V40.0139H105.802V22.2238H114.162C118.476 22.2238 121.308 24.324 121.308 27.6596C121.308 30.254 119.555 32.2307 116.454 32.8484L122.387 40.0139ZM258.971 40.0139H244.544V22.2238H258.836V24.6946H247.51V29.8834H257.623V32.3543H247.51V37.543H258.971V40.0139ZM224.319 35.3193L218.117 26.9184V40.0139H216.634H215.151V22.2238H217.847L224.454 31.2424L231.061 22.2238H233.758V40.0139H232.544H231.061V26.9184L224.859 35.4428L224.589 35.8134L224.319 35.3193ZM182.117 40.0139H168.769V22.2238H171.6V37.4195H182.117V40.0139V40.0139ZM148.274 40.0139H145.443V22.2238H159.6V24.6946H148.409V30.0069H158.387V32.4778H148.274V40.0139ZM134.387 40.0139H131.42V22.2238H134.252V40.0139H134.387ZM108.634 30.8717H113.892C116.589 30.8717 118.342 29.6363 118.342 27.6596C118.342 25.683 116.724 24.6946 114.027 24.6946H108.634V30.8717V30.8717ZM122.387 40.0139H118.746L113.488 33.3426H108.769V40.0139H105.802V22.2238H114.162C118.476 22.2238 121.308 24.324 121.308 27.6596C121.308 30.254 119.555 32.2307 116.454 32.8484L122.387 40.0139Z" fill="black"/>
</svg>
