<svg width="360" height="534" viewBox="0 0 360 534" fill="none" xmlns="http://www.w3.org/2000/svg">
<g clip-path="url(#clip0_130_2)">
<path fill-rule="evenodd" clip-rule="evenodd" d="M11.2915 147.894L11.2895 147.892L13.0919 150.859L17.616 158.314L21.8583 165.3L21.8587 165.299L24.5519 159.305L11.2931 147.895L11.292 147.893L11.2905 147.892L11.2915 147.894ZM11.292 147.893L24.5519 159.305L25.586 156.998L8.85059 143.873L11.292 147.893Z" fill="#CF4C84"/>
<path fill-rule="evenodd" clip-rule="evenodd" d="M316.309 249.147L316.307 249.145L318.109 252.112L322.633 259.566L326.875 266.553L326.876 266.552L329.569 260.557L316.311 249.148L316.309 249.146L316.308 249.145L316.309 249.147ZM316.309 249.146L329.57 260.557L330.603 258.25L313.868 245.125L316.309 249.146Z" fill="#CF4C84"/>
<path d="M8.78515 296.919C8.58484 296.247 8.38296 295.549 8.18267 294.835C7.77801 293.391 7.38735 291.909 7.03703 290.488C6.6867 289.067 6.3848 287.741 6.15164 286.598C5.97717 285.743 5.84259 285.001 5.75291 284.398C5.72574 284.214 5.70309 284.044 5.68506 283.89C5.62966 283.413 5.61663 283.075 5.64642 282.889C5.68657 282.652 5.79989 282.679 5.97967 282.969C6.15945 283.259 6.40227 283.806 6.69428 284.579C6.98629 285.352 7.3217 286.336 7.68145 287.474C8.0412 288.612 8.41814 289.882 8.79081 291.212L8.80353 291.259C8.88447 291.561 8.9708 291.862 9.05057 292.154L9.30349 293.098L9.42241 293.541L9.56242 294.08L9.67217 294.506L9.80876 295.046L9.90812 295.445L10.0432 295.995L10.1303 296.356L10.277 296.975L10.3396 297.241C10.4059 297.527 10.4682 297.803 10.5306 298.08L10.5636 298.233C10.6122 298.453 10.6608 298.673 10.7055 298.883L10.7594 299.142C10.7928 299.305 10.8294 299.477 10.8603 299.631L10.9152 299.909L10.9952 300.323C11.0134 300.418 11.0299 300.508 11.0447 300.593L11.1126 300.969C11.1253 301.047 11.1405 301.134 11.1526 301.212C11.1646 301.289 11.1888 301.434 11.2057 301.541L11.2392 301.765C11.2528 301.862 11.2633 301.951 11.2762 302.048L11.299 302.234C11.3087 302.323 11.3159 302.402 11.3232 302.481C11.3304 302.56 11.3332 302.589 11.3344 302.63C11.3356 302.67 11.3411 302.77 11.3438 302.84C11.3464 302.91 11.3476 302.92 11.3469 302.95C11.3466 303.031 11.3399 303.094 11.3313 303.147C11.33 303.152 11.3275 303.152 11.3238 303.149C11.2657 303.507 11.0453 303.274 10.6901 302.479C10.2137 301.413 9.52949 299.416 8.78515 296.919Z" fill="#92CFB5"/>
<path fill-rule="evenodd" clip-rule="evenodd" d="M52.08 36.4827L52.0814 36.4811L50.8537 39.1233L47.7726 45.7609L44.8833 51.9821L42.3843 47.5733L52.0789 36.484L52.08 36.4827ZM52.08 36.4827L42.3843 47.5733L41.4248 45.8764L53.7424 32.9021L52.08 36.4827Z" fill="#CF4C84"/>
<path fill-rule="evenodd" clip-rule="evenodd" d="M346.128 121.01L346.129 121.008L344.901 123.651L341.82 130.288L338.931 136.509H338.93L336.432 132.101L346.126 121.011L346.128 121.01ZM346.128 121.01L336.431 132.101L335.472 130.404L347.79 117.429L346.128 121.01Z" fill="#CF4C84"/>
<path d="M182.991 19.6061C183.277 20.1208 183.58 20.6515 183.893 21.19C184.527 22.2784 185.195 23.3788 185.854 24.417C186.512 25.4552 187.145 26.4072 187.71 27.2089C188.132 27.8083 188.511 28.3174 188.833 28.7175C188.931 28.8393 189.024 28.95 189.11 29.0491C189.376 29.355 189.583 29.5533 189.725 29.6374C189.906 29.7428 189.97 29.6493 189.914 29.3628C189.858 29.0764 189.682 28.6023 189.398 27.9677C189.113 27.3331 188.724 26.5506 188.254 25.6645C187.784 24.7784 187.242 23.8065 186.658 22.8039L186.637 22.7685C186.502 22.5434 186.371 22.3155 186.241 22.0966L185.819 21.3931L185.62 21.0622L185.375 20.6635L185.181 20.349L184.934 19.9521L184.75 19.6603L184.494 19.2584L184.326 18.9959L184.035 18.5479L183.909 18.3555C183.774 18.1496 183.642 17.9515 183.509 17.7533L183.435 17.6447C183.329 17.488 183.223 17.3312 183.12 17.1823L182.993 17.0001C182.913 16.8856 182.829 16.7639 182.752 16.6565L182.613 16.4624L182.406 16.1752C182.358 16.1095 182.312 16.0477 182.268 15.9898L182.076 15.7318C182.035 15.6796 181.991 15.6203 181.949 15.5685C181.908 15.5166 181.833 15.4185 181.776 15.347L181.657 15.1985C181.604 15.1344 181.555 15.0777 181.502 15.0139L181.399 14.8939C181.349 14.8376 181.304 14.7883 181.258 14.739C181.213 14.6897 181.196 14.6713 181.171 14.6479C181.146 14.6246 181.086 14.5646 181.043 14.5234C181 14.4823 180.994 14.4761 180.974 14.4594C180.922 14.4141 180.877 14.3837 180.837 14.36C180.833 14.358 180.83 14.3594 180.83 14.364C180.558 14.2029 180.548 14.4854 180.802 15.1761C181.141 16.1018 181.927 17.693 182.991 19.6061Z" fill="#007681"/>
<path fill-rule="evenodd" clip-rule="evenodd" d="M272.232 48.4879L273.803 46.7258L273.802 46.7261L275.93 44.3387L263.121 51.0526L263.527 52.7227L264.589 57.0641L268.288 52.915L272.232 48.4879Z" fill="#CF4C84"/>
<path d="M293.876 296.945C293.949 297.437 294.028 297.947 294.114 298.467C294.286 299.517 294.48 300.588 294.681 301.607C294.882 302.627 295.085 303.571 295.278 304.376C295.422 304.979 295.559 305.497 295.682 305.912C295.72 306.038 295.756 306.154 295.791 306.259C295.898 306.583 295.991 306.804 296.066 306.915C296.163 307.055 296.228 307.003 296.256 306.763C296.285 306.522 296.277 306.097 296.233 305.512C296.189 304.927 296.11 304.194 296 303.354C295.89 302.513 295.751 301.583 295.592 300.616L295.586 300.581C295.548 300.363 295.513 300.143 295.477 299.931L295.356 299.248L295.3 298.927L295.228 298.538L295.171 298.231L295.097 297.843L295.041 297.557L294.963 297.162L294.911 296.903L294.819 296.461L294.78 296.271C294.737 296.067 294.694 295.871 294.651 295.674L294.626 295.565C294.591 295.41 294.557 295.253 294.522 295.105L294.479 294.922C294.452 294.807 294.424 294.685 294.398 294.577L294.349 294.381L294.277 294.091C294.26 294.025 294.244 293.962 294.228 293.903L294.158 293.64C294.143 293.586 294.127 293.526 294.111 293.472C294.096 293.419 294.068 293.318 294.047 293.244L294.001 293.09C293.981 293.023 293.961 292.963 293.94 292.897L293.899 292.77C293.878 292.71 293.859 292.657 293.84 292.604C293.821 292.551 293.814 292.531 293.803 292.505C293.792 292.479 293.765 292.413 293.746 292.367C293.726 292.321 293.724 292.315 293.715 292.295C293.69 292.243 293.667 292.205 293.646 292.173C293.643 292.171 293.642 292.171 293.64 292.174C293.495 291.961 293.424 292.177 293.434 292.796C293.447 293.624 293.606 295.115 293.876 296.945Z" fill="#92CFB5"/>
<path fill-rule="evenodd" clip-rule="evenodd" d="M109.707 263.432L108.973 265.539L107.133 270.833L105.406 275.794V275.793L101.39 270.426L109.705 263.434L109.707 263.432ZM109.705 263.434L101.39 270.426L99.8477 268.362L110.699 260.578L109.705 263.434Z" fill="#CF4C84"/>
<path fill-rule="evenodd" clip-rule="evenodd" d="M8.19916 448.245L8.86697 450.689L9.77249 454L11.2172 438.542L9.47593 437.931L4.94629 436.349L6.51962 442.105L8.19916 448.245Z" fill="#CF4C84"/>
<path d="M146.9 455.505C146.554 455.194 146.18 454.897 145.784 454.619C144.982 454.058 144.104 453.587 143.208 453.236C142.312 452.886 141.42 452.665 140.59 452.587C139.971 452.529 139.394 452.55 138.882 452.649C138.726 452.68 138.576 452.719 138.434 452.765C137.994 452.909 137.625 453.121 137.338 453.393C136.968 453.749 136.748 454.204 136.689 454.73C136.63 455.257 136.734 455.845 136.995 456.462C137.256 457.079 137.669 457.712 138.21 458.326C138.751 458.939 139.409 459.52 140.147 460.036L140.175 460.052C140.351 460.154 140.513 460.28 140.68 460.384L141.23 460.702L141.489 460.851L141.813 461.014L142.071 461.139L142.403 461.286L142.652 461.389L143.001 461.522L143.232 461.604L143.635 461.732L143.81 461.784C144 461.837 144.187 461.881 144.375 461.925L144.482 461.942C144.633 461.973 144.784 462.004 144.933 462.025L145.118 462.048C145.236 462.059 145.357 462.077 145.47 462.086L145.676 462.096L145.986 462.106C146.058 462.107 146.127 462.106 146.194 462.101L146.488 462.089C146.551 462.081 146.619 462.076 146.684 462.066C146.749 462.055 146.867 462.042 146.955 462.028L147.144 461.993C147.229 461.973 147.31 461.947 147.396 461.925L147.565 461.873C147.648 461.844 147.725 461.812 147.802 461.78C147.88 461.748 147.908 461.737 147.953 461.71C147.998 461.683 148.103 461.628 148.18 461.583C148.257 461.539 148.266 461.536 148.304 461.509C148.4 461.444 148.489 461.366 148.57 461.289C148.579 461.279 148.586 461.268 148.59 461.255C149.142 460.728 149.359 459.986 149.213 459.121C149.018 457.96 148.187 456.662 146.9 455.505Z" fill="#007681"/>
<path d="M239.587 441.615C239.613 442.205 239.654 442.815 239.71 443.436C239.823 444.691 239.995 445.967 240.213 447.178C240.431 448.39 240.691 449.508 240.974 450.459C241.186 451.17 241.407 451.779 241.631 452.264C241.7 452.412 241.768 452.547 241.837 452.669C242.048 453.045 242.256 453.299 242.453 453.42C242.708 453.574 242.941 453.498 243.137 453.197C243.333 452.897 243.489 452.377 243.595 451.668C243.702 450.959 243.758 450.075 243.759 449.066C243.76 448.057 243.707 446.942 243.602 445.787L243.597 445.746C243.565 445.485 243.546 445.223 243.519 444.97L243.419 444.155L243.372 443.772L243.305 443.309L243.25 442.943L243.175 442.481L243.116 442.141L243.03 441.672L242.971 441.365L242.863 440.841L242.815 440.615C242.762 440.374 242.706 440.141 242.651 439.908L242.617 439.779C242.571 439.595 242.525 439.41 242.476 439.234L242.414 439.018C242.374 438.883 242.335 438.739 242.296 438.611L242.222 438.381L242.11 438.039C242.084 437.96 242.057 437.886 242.031 437.817L241.918 437.508C241.891 437.445 241.864 437.374 241.836 437.311C241.809 437.249 241.761 437.131 241.723 437.044L241.641 436.864C241.603 436.786 241.564 436.716 241.524 436.639L241.444 436.491C241.404 436.422 241.365 436.361 241.325 436.299C241.286 436.238 241.271 436.215 241.246 436.185C241.221 436.155 241.163 436.079 241.119 436.026C241.076 435.974 241.072 435.966 241.049 435.944C240.992 435.885 240.933 435.843 240.877 435.808C240.87 435.805 240.864 435.806 240.858 435.811C240.478 435.577 240.152 435.856 239.92 436.612C239.609 437.626 239.489 439.423 239.587 441.615Z" fill="#007681"/>
<path d="M311.406 478.742C310.908 478.3 310.387 477.846 309.853 477.387C308.772 476.459 307.653 475.527 306.571 474.655C305.488 473.783 304.467 472.991 303.576 472.331C302.911 471.838 302.326 471.424 301.842 471.104C301.695 471.007 301.558 470.92 301.432 470.842C301.043 470.603 300.758 470.456 300.586 470.407C300.365 470.346 300.344 470.455 300.521 470.726C300.699 470.997 301.072 471.426 301.621 471.988C302.169 472.549 302.881 473.233 303.716 474C304.552 474.766 305.494 475.601 306.489 476.456L306.525 476.486C306.753 476.677 306.977 476.872 307.196 477.058L307.907 477.654L308.242 477.935L308.649 478.272L308.972 478.537L309.382 478.872L309.685 479.117L310.105 479.454L310.381 479.674L310.855 480.049L311.059 480.21C311.278 480.382 311.491 480.546 311.704 480.711L311.823 480.801C311.993 480.931 312.162 481.061 312.326 481.184L312.527 481.335C312.654 481.429 312.787 481.529 312.907 481.618L313.125 481.777L313.449 482.012C313.523 482.066 313.594 482.116 313.662 482.163L313.958 482.372C314.02 482.414 314.089 482.462 314.151 482.504C314.213 482.546 314.328 482.625 314.413 482.682L314.593 482.801C314.671 482.852 314.743 482.896 314.822 482.946L314.973 483.041C315.045 483.085 315.11 483.123 315.175 483.16C315.24 483.198 315.265 483.213 315.299 483.23C315.333 483.247 315.417 483.292 315.476 483.322C315.535 483.353 315.543 483.358 315.57 483.369C315.64 483.402 315.696 483.421 315.745 483.435C315.75 483.436 315.752 483.434 315.75 483.429C316.082 483.523 315.97 483.24 315.427 482.614C314.701 481.776 313.257 480.386 311.406 478.742Z" fill="#007681"/>
</g>
<defs>
<clipPath id="clip0_130_2">
<rect width="360" height="534" fill="white"/>
</clipPath>
</defs>
</svg>
