<svg width="360" height="696" viewBox="0 0 360 696" fill="none" xmlns="http://www.w3.org/2000/svg">
<path fill-rule="evenodd" clip-rule="evenodd" d="M41.3089 361.147L41.3069 361.145L43.1093 364.112L47.6334 371.566L51.8756 378.553L51.876 378.552L54.5693 372.557L41.3104 361.148L41.3094 361.146L41.3079 361.145L41.3089 361.147ZM41.3094 361.146L54.5703 372.557L55.6033 370.25L38.868 357.125L41.3094 361.146Z" fill="#CF4C84"/>
<path d="M61.9221 73.8783C61.8415 73.9442 61.7646 74.0185 61.6877 74.0928C61.2055 74.5507 60.8446 75.2014 60.6275 76.0049C60.4104 76.8084 60.3415 77.7473 60.4252 78.7638C60.5648 80.458 61.1211 82.2862 62.0018 83.9455C62.7237 85.3036 63.6309 86.4877 64.6208 87.3636C65.5134 88.1561 66.4431 88.6713 67.3241 88.8618C68.2051 89.0524 69.0089 88.9121 69.661 88.4538L61.9221 73.8783Z" fill="#92CFB5"/>
<path d="M129.588 38.0722C129.57 37.5639 129.52 37.0447 129.438 36.5225C129.27 35.4673 128.974 34.4195 128.57 33.4497C128.165 32.48 127.662 31.6107 127.093 30.9004C126.669 30.3692 126.215 29.9321 125.749 29.6051C125.606 29.5057 125.462 29.4175 125.317 29.3408C124.87 29.1044 124.424 28.9748 123.992 28.9563C123.432 28.936 122.908 29.1077 122.449 29.461C121.991 29.8144 121.607 30.3427 121.32 31.0158C121.034 31.6889 120.849 32.4935 120.778 33.3838C120.706 34.2741 120.749 35.2325 120.904 36.2045L120.913 36.2383C120.966 36.4537 120.99 36.6763 121.035 36.8869L121.203 37.5601L121.282 37.8766L121.4 38.2547L121.497 38.5522L121.634 38.9257L121.741 39.1991L121.901 39.574L122.013 39.8177L122.219 40.2316L122.31 40.4088C122.412 40.5979 122.52 40.7783 122.628 40.9588L122.695 41.0564C122.786 41.1984 122.876 41.3404 122.972 41.4737L123.095 41.6361C123.176 41.7377 123.254 41.8467 123.332 41.9415L123.481 42.1119L123.708 42.3627C123.761 42.42 123.815 42.4732 123.87 42.5225L124.102 42.7436C124.156 42.7873 124.212 42.8378 124.27 42.8806C124.328 42.9234 124.427 43.0058 124.504 43.0651L124.676 43.1867C124.756 43.2384 124.837 43.2824 124.921 43.3331L125.09 43.4268C125.175 43.4699 125.259 43.5062 125.342 43.5426C125.426 43.5789 125.457 43.5926 125.512 43.6075C125.566 43.6225 125.691 43.6633 125.784 43.6902C125.877 43.717 125.886 43.7218 125.935 43.7309C126.06 43.7571 126.188 43.768 126.311 43.773C126.325 43.7728 126.339 43.7694 126.352 43.7629C127.185 43.7974 127.933 43.4044 128.502 42.6333C129.266 41.5993 129.656 39.9611 129.588 38.0722Z" fill="#007681"/>
<path d="M48.3967 282.848C48.7243 283.371 49.0695 283.91 49.4268 284.456C50.1495 285.56 50.9093 286.674 51.655 287.724C52.4006 288.774 53.115 289.736 53.7499 290.543C54.2243 291.147 54.6489 291.659 55.0078 292.06C55.1174 292.182 55.2201 292.293 55.3157 292.392C55.611 292.697 55.8385 292.893 55.9909 292.974C56.1863 293.074 56.2483 292.973 56.174 292.676C56.0996 292.379 55.8901 291.893 55.5574 291.245C55.2247 290.596 54.7754 289.799 54.235 288.898C53.6946 287.997 53.0739 287.01 52.4082 285.993L52.384 285.957C52.2301 285.729 52.0813 285.497 51.9335 285.276L51.4526 284.563L51.2265 284.227L50.9488 283.824L50.7286 283.505L50.4478 283.104L50.2396 282.808L49.9501 282.402L49.7594 282.137L49.4305 281.684L49.2885 281.489C49.1355 281.281 48.9862 281.082 48.8368 280.881L48.753 280.772C48.6337 280.614 48.5143 280.456 48.3986 280.305L48.2557 280.122C48.1653 280.006 48.0707 279.884 47.9851 279.776L47.8289 279.58L47.5959 279.291C47.5424 279.225 47.4912 279.163 47.4421 279.104L47.2266 278.845C47.1813 278.793 47.1312 278.733 47.0852 278.681C47.0393 278.629 46.9549 278.531 46.892 278.459L46.7591 278.31C46.7004 278.246 46.6459 278.189 46.5867 278.126L46.4724 278.006C46.4173 277.95 46.367 277.9 46.3167 277.851C46.2665 277.802 46.2478 277.784 46.2204 277.761C46.1931 277.738 46.1268 277.678 46.0795 277.638C46.0322 277.597 46.0262 277.591 46.0043 277.574C45.9472 277.53 45.8985 277.501 45.8552 277.478C45.8507 277.476 45.8484 277.478 45.8484 277.483C45.5549 277.329 45.5601 277.625 45.8631 278.334C46.2687 279.284 47.1788 280.905 48.3967 282.848Z" fill="#007681"/>
<path d="M324.415 280.782C324.166 280.302 323.904 279.808 323.633 279.305C323.085 278.289 322.509 277.259 321.943 276.285C321.377 275.31 320.835 274.414 320.352 273.656C319.992 273.089 319.67 272.606 319.397 272.224C319.313 272.108 319.235 272.002 319.163 271.907C318.938 271.613 318.765 271.419 318.648 271.331C318.499 271.221 318.451 271.297 318.507 271.554C318.562 271.811 318.721 272.244 318.972 272.828C319.224 273.413 319.564 274.137 319.974 274.96C320.383 275.782 320.854 276.687 321.359 277.623L321.377 277.656C321.494 277.867 321.606 278.08 321.719 278.284L322.083 278.942L322.255 279.252L322.466 279.625L322.633 279.92L322.846 280.292L323.004 280.565L323.224 280.943L323.368 281.189L323.618 281.61L323.726 281.791C323.842 281.985 323.955 282.172 324.069 282.358L324.132 282.461C324.223 282.608 324.314 282.756 324.401 282.897L324.51 283.069C324.579 283.177 324.65 283.292 324.716 283.393L324.834 283.577L325.011 283.849C325.052 283.911 325.091 283.97 325.128 284.025L325.292 284.27C325.326 284.32 325.364 284.376 325.399 284.425C325.434 284.475 325.498 284.568 325.546 284.636L325.647 284.778C325.692 284.84 325.733 284.894 325.778 284.955L325.865 285.07C325.907 285.125 325.945 285.172 325.984 285.22C326.022 285.267 326.036 285.285 326.057 285.308C326.078 285.331 326.128 285.389 326.164 285.43C326.2 285.47 326.205 285.476 326.222 285.492C326.265 285.537 326.302 285.568 326.335 285.593C326.339 285.595 326.34 285.594 326.34 285.59C326.564 285.757 326.562 285.51 326.333 284.88C326.027 284.035 325.338 282.563 324.415 280.782Z" fill="#92CFB5"/>
<path d="M345.387 119.147C345.407 118.512 345.404 117.856 345.378 117.188C345.326 115.838 345.182 114.466 344.956 113.164C344.73 111.862 344.427 110.66 344.068 109.639C343.8 108.876 343.505 108.223 343.195 107.703C343.099 107.544 343.003 107.399 342.905 107.269C342.602 106.866 342.293 106.595 341.987 106.466C341.59 106.304 341.207 106.388 340.859 106.713C340.511 107.039 340.205 107.6 339.958 108.364C339.712 109.129 339.53 110.081 339.423 111.168C339.316 112.254 339.285 113.454 339.334 114.697L339.338 114.741C339.362 115.021 339.365 115.303 339.384 115.575L339.46 116.452L339.496 116.864L339.556 117.361L339.607 117.754L339.68 118.251L339.739 118.617L339.829 119.121L339.893 119.451L340.013 120.014L340.067 120.257C340.127 120.516 340.192 120.766 340.258 121.017L340.3 121.154C340.355 121.353 340.41 121.551 340.47 121.74L340.547 121.972C340.598 122.117 340.646 122.272 340.696 122.409L340.791 122.656L340.937 123.023C340.971 123.107 341.006 123.187 341.042 123.261L341.192 123.592C341.228 123.66 341.265 123.736 341.303 123.803C341.341 123.871 341.406 123.997 341.458 124.09L341.572 124.283C341.626 124.367 341.681 124.441 341.737 124.525L341.851 124.682C341.909 124.757 341.966 124.822 342.023 124.888C342.08 124.954 342.101 124.978 342.139 125.01C342.177 125.042 342.263 125.123 342.328 125.179C342.392 125.236 342.398 125.244 342.433 125.267C342.519 125.33 342.61 125.375 342.697 125.412C342.707 125.415 342.717 125.414 342.727 125.409C343.317 125.657 343.873 125.353 344.326 124.536C344.935 123.442 345.316 121.506 345.387 119.147Z" fill="#007681"/>
<path fill-rule="evenodd" clip-rule="evenodd" d="M52.0796 202.483L52.081 202.481L50.8533 205.123L47.7722 211.761L44.8829 217.982L44.8825 217.982L42.3839 213.573L52.0785 202.484L52.0792 202.483L52.0803 202.481L52.0796 202.483ZM52.0792 202.483L42.3833 213.573L41.4244 211.876L53.742 198.902L52.0792 202.483Z" fill="#CF4C84"/>
<path fill-rule="evenodd" clip-rule="evenodd" d="M312.364 332.955L312.365 332.954L311.137 335.596L308.056 342.234L305.167 348.455L305.167 348.454L302.668 344.046L312.363 332.956L312.363 332.955L312.365 332.954L312.364 332.955ZM312.363 332.955L302.667 344.046L301.709 342.349L314.026 329.375L312.363 332.955Z" fill="#CF4C84"/>
<path d="M182.991 185.606C183.277 186.121 183.58 186.651 183.893 187.19C184.527 188.278 185.195 189.379 185.854 190.417C186.512 191.455 187.145 192.407 187.71 193.209C188.132 193.808 188.511 194.317 188.833 194.717C188.931 194.839 189.024 194.95 189.11 195.049C189.376 195.355 189.583 195.553 189.725 195.637C189.906 195.743 189.97 195.649 189.914 195.363C189.858 195.076 189.682 194.602 189.398 193.968C189.113 193.333 188.724 192.551 188.254 191.664C187.784 190.778 187.242 189.806 186.658 188.804L186.637 188.769C186.502 188.543 186.371 188.315 186.241 188.097L185.819 187.393L185.62 187.062L185.375 186.664L185.181 186.349L184.934 185.952L184.75 185.66L184.494 185.258L184.326 184.996L184.035 184.548L183.909 184.355C183.774 184.15 183.642 183.951 183.509 183.753L183.435 183.645C183.329 183.488 183.223 183.331 183.12 183.182L182.993 183C182.913 182.886 182.829 182.764 182.752 182.657L182.613 182.462L182.406 182.175C182.358 182.11 182.312 182.048 182.268 181.99L182.076 181.732C182.035 181.68 181.991 181.62 181.949 181.568C181.908 181.517 181.833 181.419 181.776 181.347L181.657 181.198C181.604 181.134 181.555 181.078 181.502 181.014L181.399 180.894C181.349 180.838 181.304 180.788 181.258 180.739C181.213 180.69 181.196 180.671 181.171 180.648C181.146 180.625 181.086 180.565 181.043 180.523C181 180.482 180.994 180.476 180.974 180.459C180.922 180.414 180.877 180.384 180.837 180.36C180.833 180.358 180.83 180.359 180.83 180.364C180.558 180.203 180.548 180.485 180.802 181.176C181.141 182.102 181.927 183.693 182.991 185.606Z" fill="#007681"/>
<path fill-rule="evenodd" clip-rule="evenodd" d="M311.559 219.228L311.008 219.846L312.579 218.084L312.579 218.084L312.579 218.084L312.579 218.084L314.707 215.697L301.897 222.411L302.304 224.081L303.366 228.422L307.064 224.273L311.008 219.846L311.559 219.228Z" fill="#CF4C84"/>
<path d="M-14.1079 579.939C-13.5202 580.197 -12.9037 580.443 -12.2681 580.672C-10.9827 581.134 -9.64173 581.519 -8.33553 581.8C-7.02933 582.082 -5.78805 582.253 -4.69526 582.303C-3.87852 582.341 -3.15416 582.312 -2.54886 582.218C-2.3642 582.189 -2.19185 582.153 -2.03249 582.111C-1.54001 581.979 -1.16931 581.792 -0.932549 581.554C-0.629636 581.244 -0.563359 580.853 -0.736726 580.403C-0.910093 579.953 -1.32008 579.454 -1.94331 578.933C-2.56654 578.413 -3.3906 577.881 -4.36873 577.369C-5.34687 576.857 -6.45959 576.375 -7.6436 575.949L-7.68637 575.936C-7.95849 575.853 -8.22398 575.749 -8.48601 575.663L-9.33639 575.403L-9.73625 575.281L-10.2256 575.149L-10.6132 575.047L-11.1066 574.928L-11.4716 574.845L-11.9785 574.738L-12.3119 574.673L-12.8857 574.572L-13.1332 574.53C-13.3995 574.489 -13.6587 574.455 -13.9181 574.422L-14.0631 574.409C-14.2698 574.385 -14.4767 574.362 -14.6766 574.347L-14.9229 574.331C-15.0786 574.324 -15.2419 574.311 -15.3891 574.306L-15.6573 574.301L-16.0566 574.298C-16.1482 574.298 -16.2357 574.301 -16.3192 574.306L-16.6869 574.322C-16.7637 574.33 -16.849 574.336 -16.9266 574.346C-17.0042 574.357 -17.1475 574.37 -17.2538 574.383L-17.4781 574.417C-17.5767 574.435 -17.6676 574.459 -17.767 574.48L-17.958 574.527C-18.0497 574.553 -18.1329 574.582 -18.2161 574.61C-18.2993 574.639 -18.3303 574.65 -18.3746 574.673C-18.419 574.697 -18.5276 574.746 -18.6046 574.785C-18.6817 574.825 -18.6917 574.827 -18.7268 574.851C-18.8187 574.908 -18.8952 574.976 -18.9624 575.044C-18.9694 575.052 -18.9723 575.062 -18.9712 575.073C-19.4269 575.532 -19.353 576.169 -18.7589 576.903C-17.9631 577.888 -16.2926 578.978 -14.1079 579.939Z" fill="#007681"/>
</svg>
