<svg width="1735" height="688" viewBox="0 0 1735 688" fill="none" xmlns="http://www.w3.org/2000/svg">
<rect width="1735" height="688" fill="#ED93B6"/>
<path d="M1534.1 184.534C1531.72 180.418 1530.18 175.874 1529.56 171.162C1528.94 166.45 1529.25 161.662 1530.48 157.071C1531.71 152.48 1533.83 148.177 1536.73 144.406C1539.62 140.636 1543.23 137.472 1547.34 135.096C1551.46 132.719 1556 131.177 1560.71 130.557C1565.43 129.936 1570.21 130.25 1574.81 131.48C1579.4 132.71 1583.7 134.832 1587.47 137.726C1591.24 140.619 1594.4 144.227 1596.78 148.343L1565.44 166.438L1534.1 184.534Z" fill="#92CFB5"/>
<path d="M787 3.71518e-06C787 7.35403 788.461 14.636 791.301 21.4303C794.14 28.2245 798.302 34.3979 803.548 39.598C808.795 44.7981 815.023 48.923 821.878 51.7373C828.733 54.5515 836.08 56 843.5 56C850.92 56 858.267 54.5515 865.122 51.7372C871.977 48.923 878.205 44.7981 883.452 39.598C888.698 34.3979 892.86 28.2245 895.699 21.4303C898.539 14.636 900 7.35402 900 0L843.5 3.71518e-06H787Z" fill="#007681"/>
<circle cx="18" cy="18" r="18" transform="matrix(-1 0 0 1 1419 607)" fill="#92CFB5"/>
<circle cx="18" cy="18" r="18" transform="matrix(-1 0 0 1 123 607)" fill="white"/>
<rect x="175" y="420" width="105" height="19" fill="#CF4C84"/>
</svg>
