<svg width="1735" height="688" viewBox="0 0 1735 688" fill="none" xmlns="http://www.w3.org/2000/svg">
<rect width="1735" height="688" fill="#7BCDE6"/>
<path d="M616 688C616 679.989 617.578 672.057 620.643 664.656C623.709 657.255 628.202 650.531 633.866 644.866C639.531 639.202 646.255 634.709 653.656 631.643C661.057 628.578 668.989 627 677 627C685.011 627 692.943 628.578 700.344 631.643C707.745 634.709 714.469 639.202 720.134 644.866C725.798 650.531 730.291 657.255 733.357 664.656C736.422 672.057 738 679.989 738 688L677 688L616 688Z" fill="white"/>
<path d="M1484 3.71518e-06C1484 7.35403 1485.44 14.636 1488.22 21.4303C1491.01 28.2245 1495.1 34.3979 1500.26 39.598C1505.41 44.7981 1511.53 48.923 1518.26 51.7373C1524.99 54.5515 1532.21 56 1539.5 56C1546.79 56 1554.01 54.5515 1560.74 51.7372C1567.47 48.923 1573.59 44.7981 1578.74 39.598C1583.9 34.3979 1587.99 28.2245 1590.78 21.4303C1593.56 14.636 1595 7.35402 1595 0L1539.5 3.71518e-06H1484Z" fill="#ED93B6"/>
<circle cx="18" cy="18" r="18" transform="matrix(-1 0 0 1 1419 607)" fill="#ED93B6"/>
<circle cx="18" cy="18" r="18" transform="matrix(-1 0 0 1 123 607)" fill="white"/>
<rect x="633" y="93" width="105" height="19" fill="#007681"/>
</svg>
