<svg width="1735" height="690" viewBox="0 0 1735 690" fill="none" xmlns="http://www.w3.org/2000/svg">
<rect width="1735" height="688" fill="#007681"/>
<path fill-rule="evenodd" clip-rule="evenodd" d="M1515.45 326.015C1508.38 399.041 1420.91 427.243 1366.72 476.705C1317 522.091 1282.78 590.522 1216.03 599.327C1143.55 608.889 1066.56 578.49 1019.54 522.506C975.139 469.634 983.8 395.007 986.504 326.015C989.054 260.965 987.346 189.373 1034.36 144.347C1080.82 99.859 1151.71 106.459 1216.03 106.217C1280.73 105.974 1346.92 104.694 1399.07 142.977C1459.66 187.455 1522.71 251.204 1515.45 326.015Z" fill="#006670"/>
<path fill-rule="evenodd" clip-rule="evenodd" d="M1446.44 347.234C1493.44 339.026 1540.61 290.639 1580.67 316.561C1620.43 342.293 1619.9 405.37 1606.47 450.79C1595.3 488.538 1550.04 499.035 1519.39 523.743C1494.57 543.757 1478.04 575.532 1446.44 579.823C1411.6 584.554 1379.71 566.322 1350.56 546.673C1311.66 520.456 1254.62 497.696 1255 450.79C1255.39 403.879 1310.86 378.795 1352.12 356.475C1381.01 340.85 1414.09 352.884 1446.44 347.234Z" fill="#006670"/>
<rect x="416" y="577" width="105" height="19" fill="#CF4C84"/>
<path fill-rule="evenodd" clip-rule="evenodd" d="M591.079 59.2292C591.031 59.2479 590.984 59.2666 590.936 59.2854C590.888 59.3042 590.84 59.3231 590.792 59.342L591.079 59.2292ZM561.999 149.753C577.514 173.574 608.106 184.062 635.613 173.282C663.12 162.501 678.439 134.02 673.636 106L561.999 149.753Z" fill="#7BCDE6"/>
<path fill-rule="evenodd" clip-rule="evenodd" d="M111 689.792L199 689.792C194.778 669.36 176.683 654 155 654C133.317 654 115.222 669.36 111 689.792Z" fill="#ED93B6"/>
<circle cx="895" cy="96" r="18" fill="#ED93B6"/>
<circle cx="105" cy="56" r="18" fill="#7BCDE6"/>
<circle cx="1597" cy="621" r="18" fill="#7BCDE6"/>
</svg>
