<?xml version="1.0" encoding="utf-8"?>
<!-- Generator: Adobe Illustrator 25.0.0, SVG Export Plug-In . SVG Version: 6.00 Build 0)  -->
<svg version="1.1" id="Слой_1" xmlns="http://www.w3.org/2000/svg" xmlns:xlink="http://www.w3.org/1999/xlink" x="0px" y="0px"
	 viewBox="0 0 633 730" style="enable-background:new 0 0 633 730;" xml:space="preserve">
<style type="text/css">
	.st0{fill:#FFFFFF;}
	.st1{fill:#ED93B6;}
	.st2{fill:#CF4C84;}
	.st3{fill:#92CFB5;}
</style>
<rect class="st0" width="630.8" height="730"/>
<path class="st1" d="M208.5,218.3c27.1,0,53.1,10.7,72.2,29.8c19.1,19.1,29.9,44.9,29.9,71.9s-10.8,52.8-29.9,71.9
	c-19.1,19.1-45.1,29.8-72.2,29.8V218.3z"/>
<path class="st1" d="M442.9,218.3c27.1,0,53.1,10.7,72.2,29.8s29.9,44.9,29.9,71.9s-10.8,52.8-29.9,71.9
	c-19.1,19.1-45.1,29.8-72.2,29.8V218.3z"/>
<path class="st2" d="M141.9,423.5c11.1,0,21.9-3.3,31.1-9.4c9.2-6.1,16.4-14.9,20.6-25.1c4.2-10.2,5.3-21.5,3.2-32.3
	c-2.2-10.8-7.5-20.8-15.3-28.6c-7.8-7.8-17.8-13.1-28.6-15.3c-10.8-2.2-22.1-1-32.3,3.2c-10.2,4.2-18.9,11.4-25.1,20.6
	c-6.1,9.2-9.4,20-9.4,31.1c0,14.8,5.9,29.1,16.4,39.5C112.9,417.6,127.1,423.5,141.9,423.5"/>
<path class="st2" d="M375.3,423.5c11.1,0,21.9-3.3,31.1-9.4c9.2-6.1,16.4-14.9,20.6-25.1c4.2-10.2,5.3-21.5,3.2-32.3
	c-2.2-10.8-7.5-20.8-15.3-28.6c-7.8-7.8-17.8-13.1-28.6-15.3c-10.8-2.2-22.1-1-32.3,3.2c-10.2,4.2-18.9,11.4-25.1,20.6
	c-6.1,9.2-9.4,20-9.4,31.1c0,14.8,5.9,29.1,16.4,39.5C346.3,417.6,360.5,423.5,375.3,423.5"/>
<path class="st2" d="M545,122H336.9v161.4l80.1-53.8v-38.4h43.3L545,122z"/>
<path class="st2" d="M310.6,122H102.5v161.4l80.1-53.8v-38.4h43.3L310.6,122z"/>
<path class="st1" d="M268.9,481.8c0,16-4,21.4-12.6,25.7l7.8,9.8c11.9-7,17.5-15,17.5-33.8V468h12v48h12.8v-60h-37.6V481.8z
	 M312.4,516h28v-12h-15.2v-12.8H338v-12h-12.8V468h15.2v-12h-28V516z M353.5,516h12.8v-48h10.4v-12h-33.6v12h10.4V516z"/>
<path class="st3" d="M22.2,565.6c0,5.4-3.4,6.4-6.4,6.4v-12.8C18.7,559.2,22.2,561,22.2,565.6z M23.8,589.6c0,5.9-3.8,7.2-8,7.2
	v-14.4C19.5,582.4,23.8,584.2,23.8,589.6z M3,608h15c10,0,18.6-5.3,18.6-16.8c0-8.8-5.3-14.6-9.3-15.9c3.4-1.4,6.9-5.3,6.9-11.3
	c0-13.5-11.2-16-19.4-16H3V608z M68.9,608l7.8-25.6h0.2l3.2,25.6h13.6l-9.6-60h-6.4l-11.1,35.2h-0.2L55.3,548h-6.4l-9.6,60h13.6
	l3.2-25.6h0.2l7.8,25.6H68.9z M98,608h28v-12h-15.2v-12.8h12.8v-12h-12.8V560H126v-12H98V608z M170.2,555.8c-4.8-5.8-10.6-9-17-9
	c-13.6,0-23.7,13-23.7,31.2c0,17.8,10.2,31.2,23.7,31.2c7.2,0,12.2-3.3,17.1-9.2l-9-7.9c-2.6,3.2-5.1,4.7-8.2,4.7
	c-6.9,0-10.1-9-10.1-18.8c0-9.7,3.2-18.8,10.1-18.8c3.7,0,5.8,1.8,7.8,4.5L170.2,555.8z M182.6,608h12.8v-48h10.4v-12h-33.6v12h10.4
	V608z M209.3,608h28v-12h-15.2v-12.8h12.8v-12h-12.8V560h15.2v-12h-28V608z M276.9,565.6c0,5.4-3.4,6.4-6.4,6.4v-12.8
	C273.4,559.2,276.9,561,276.9,565.6z M278.5,589.6c0,5.9-3.8,7.2-8,7.2v-14.4C274.2,582.4,278.5,584.2,278.5,589.6z M257.7,608h15
	c10,0,18.6-5.3,18.6-16.8c0-8.8-5.3-14.6-9.3-15.9c3.4-1.4,6.9-5.3,6.9-11.3c0-13.5-11.2-16-19.4-16h-11.8V608z M344.4,589.6
	c0-13.3-9-18.4-20.8-18.4V560h15.2v-12h-28v60h12.8C335.2,608,344.4,602.6,344.4,589.6z M331.6,589.6c0,4.6-3,7.2-8,7.2v-14.4
	C328.5,582.4,331.6,584.2,331.6,589.6z M368.7,572.5h-0.2l-8.6-24.5h-13.6l15.8,38.6c-3,8.1-4.9,9.4-9,9.4h-2.1v12h4.6
	c9.5,0,13.3-6.2,18.7-19.4l16.7-40.6h-13.7L368.7,572.5z M392.2,618.7h8V608h40.6v10.7h8V596h-6.4v-48h-37.6v25.8
	c0,11.9-2.1,16.9-7.7,22.2h-4.9V618.7z M417.6,560h12v36h-16.7c3.3-6.2,4.7-11,4.7-20.6V560z M472.3,572.5h-0.2l-8.6-24.5h-13.6
	l15.8,38.6c-3,8.1-4.9,9.4-9,9.4h-2.1v12h4.6c9.5,0,13.3-6.2,18.7-19.4l16.7-40.6H481L472.3,572.5z M558.2,608v10.7h8V596h-5.6v-48
	h-12.8v48h-12v-48H523v48h-12v-48h-12.8v60H558.2z M569.7,608h28v-12h-15.2v-12.8h12.8v-12h-12.8V560h15.2v-12h-28V608z M602.8,608
	h28v-12h-15.2v-12.8h12.8v-12h-12.8V560h15.2v-12h-28V608z"/>
<path class="st2" d="M49.3,691.6l2.1-2.1c-2.8-3.1-7-5-11.5-5c-8.6,0-15.6,6.9-15.6,15.5s7,15.5,15.6,15.5c4.6,0,8.9-2,11.8-5.3
	l-2-2.1c-2.3,2.7-5.8,4.5-9.7,4.5c-7,0-12.5-5.7-12.5-12.6s5.5-12.6,12.5-12.6C43.7,687.4,47,689.1,49.3,691.6z M55.4,705.6
	c0,5.4,4.4,9.8,9.9,9.8c3.1,0,5.2-1,7-3h0.1v2.5h2.7v-18.7h-2.7v2.5h-0.1c-1.8-1.9-3.9-3-7-3C59.9,695.8,55.4,700.2,55.4,705.6z
	 M58.2,705.6c0-4,3.2-7.3,7.2-7.3s7.2,3.3,7.2,7.3s-3.2,7.3-7.2,7.3S58.2,709.6,58.2,705.6z M97.1,695.8L90.4,710h-0.1l-6.7-14.2H83
	L78.9,715h2.9l2.4-11.9h0.1l5.8,12.4h0.6l5.8-12.4h0.1L99,715h3l-4.1-19.2H97.1z M108.4,703.7v-7.4h-2.7V715h5.2
	c4.1,0,7.6-1.6,7.6-5.6c0-4-3.5-5.6-7.6-5.6H108.4z M108.4,706.3h1.9c2.5,0,5.3,0.5,5.3,3.1c0,2.5-2.5,3.1-5,3.1h-2.2V706.3z
	 M126,696.3h-2.7V715h2.7V696.3z M133.7,687.2c0.6,3,3.4,5,6.2,5c2.9,0,5.7-1.9,6.2-5h-2.3c-0.6,1.8-2,2.7-3.9,2.7
	c-1.9,0-3.2-1-3.9-2.7H133.7z M131.9,715.5l13.8-13.8h0.1V715h2.8v-19.2H148l-13.8,14h-0.1v-13.5h-2.8v19.2H131.9z M177.3,710.2
	c-1.3,1.6-3.3,2.7-5.6,2.7c-4,0-7.1-3.3-7.1-7.3s3.1-7.3,7.1-7.3c2.2,0,4.1,1,5.4,2.4l2-1.7c-1.8-2-4.4-3.3-7.4-3.3
	c-5.4,0-9.8,4.4-9.8,9.8s4.4,9.8,9.8,9.8c3,0,5.7-1.4,7.5-3.5L177.3,710.2z M183,705.6c0,5.4,4.4,9.8,9.9,9.8c5.4,0,9.8-4.4,9.8-9.8
	s-4.4-9.8-9.8-9.8C187.5,695.8,183,700.2,183,705.6z M185.8,705.6c0-4,3.2-7.2,7.1-7.2c4,0,7.1,3.2,7.1,7.2s-3.2,7.2-7.1,7.2
	C189,712.9,185.8,709.6,185.8,705.6z M209.3,703.4c0,4.6-0.8,8.6-4,9.9l1.4,2c3.5-1.3,5.3-5.6,5.3-11.5v-5h8.1V715h2.7v-18.7h-13.5
	V703.4z M230.9,703.4v-7.1h-2.7V715h2.7v-9h10.2v9h2.7v-18.7h-2.7v7.1H230.9z M264.2,709.5c-1.2,2.1-3.8,3.4-6.4,3.4
	c-3.8,0-6.6-3-6.8-6.8h16.2v-0.5c0-5.4-4-9.8-9.4-9.8c-5.4,0-9.4,4.4-9.4,9.8s4,9.8,9.4,9.8c3.5,0,7-1.9,8.6-4.6L264.2,709.5z
	 M251.2,703.8c0.8-3.4,3.6-5.4,6.6-5.4c3.1,0,5.8,2,6.6,5.4H251.2z M285.1,715v-18.7h-2.7v9.1c-1.3,0.7-2.2,1.2-4,1.2
	c-2.7,0-4.6-1-4.6-4.2v-6.1H271v6.7c0,3.6,2.6,6.1,6.9,6.1c2.2,0,3-0.4,4.4-1h0.1v6.9H285.1z M293.2,703.4v-7.1h-2.7V715h2.7v-9
	h10.2v9h2.7v-18.7h-2.7v7.1H293.2z M314.1,703.7v-7.4h-2.7V715h5.2c4.1,0,7.6-1.6,7.6-5.6c0-4-3.5-5.6-7.6-5.6H314.1z M314.1,706.3
	h1.9c2.5,0,5.3,0.5,5.3,3.1c0,2.5-2.5,3.1-5,3.1h-2.2V706.3z M331.7,696.3H329V715h2.7V696.3z M339.5,687.2c0.6,3,3.4,5,6.2,5
	c2.9,0,5.7-1.9,6.2-5h-2.3c-0.6,1.8-2,2.7-3.9,2.7c-1.9,0-3.2-1-3.9-2.7H339.5z M337.6,715.5l13.8-13.8h0.1V715h2.8v-19.2h-0.6
	l-13.8,14h-0.1v-13.5h-2.8v19.2H337.6z M371.3,703.6L371.3,703.6l-0.1-7.3h-2.8V715h2.8v-7.4h0.1l8.4,7.4h4.1
	c-3.3-3-7.4-6.5-10.8-9.4l10.2-9.3h-3.9L371.3,703.6z M400.5,709.5c-1.2,2.1-3.8,3.4-6.4,3.4c-3.8,0-6.6-3-6.8-6.8h16.2v-0.5
	c0-5.4-4-9.8-9.4-9.8s-9.4,4.4-9.4,9.8s4,9.8,9.4,9.8c3.5,0,7-1.9,8.6-4.6L400.5,709.5z M387.5,703.8c0.8-3.4,3.6-5.4,6.6-5.4
	c3.1,0,5.8,2,6.6,5.4H387.5z M410.5,687.2c0.6,3,3.4,5,6.2,5c2.9,0,5.7-1.9,6.2-5h-2.3c-0.6,1.8-2,2.7-3.9,2.7c-1.9,0-3.2-1-3.9-2.7
	H410.5z M408.7,715.5l13.8-13.8h0.1V715h2.8v-19.2h-0.6l-13.8,14h-0.1v-13.5h-2.8v19.2H408.7z M445.3,710.2
	c-1.3,1.6-3.3,2.7-5.6,2.7c-4,0-7.1-3.3-7.1-7.3s3.1-7.3,7.1-7.3c2.2,0,4.1,1,5.4,2.4l2-1.7c-1.8-2-4.4-3.3-7.4-3.3
	c-5.4,0-9.8,4.4-9.8,9.8s4.4,9.8,9.8,9.8c3,0,5.7-1.4,7.5-3.5L445.3,710.2z M485.6,715.5V685h-3v23.6h-0.1l-21-24.1H461V715h3v-23.4
	h0.1l21,23.9H485.6z M506,709.5c-1.2,2.1-3.8,3.4-6.4,3.4c-3.8,0-6.6-3-6.8-6.8H509v-0.5c0-5.4-4-9.8-9.4-9.8
	c-5.4,0-9.4,4.4-9.4,9.8s4,9.8,9.4,9.8c3.5,0,7-1.9,8.6-4.6L506,709.5z M493,703.8c0.8-3.4,3.6-5.4,6.6-5.4c3.1,0,5.8,2,6.6,5.4H493
	z M528.2,710.2c-1.3,1.6-3.3,2.7-5.6,2.7c-4,0-7.1-3.3-7.1-7.3s3.1-7.3,7.1-7.3c2.2,0,4.1,1,5.4,2.4l2-1.7c-1.8-2-4.4-3.3-7.4-3.3
	c-5.4,0-9.8,4.4-9.8,9.8s4.4,9.8,9.8,9.8c3,0,5.7-1.4,7.5-3.5L528.2,710.2z M538.3,689.2h-2.7v7.1h-2v2.6h2v9.6
	c0,4.3,1.4,7.1,5.4,7.1c0.7,0,1.4-0.2,2.1-0.5v-2.6c-0.6,0.3-1.2,0.5-2,0.5c-2.3,0-2.8-1.7-2.8-5v-9h3.2v-2.6h-3.2V689.2z
	 M545.2,705.6c0,5.4,4.4,9.8,9.9,9.8c3.1,0,5.2-1,7-3h0.1v2.5h2.7v-18.7h-2.7v2.5H562c-1.8-1.9-3.9-3-7-3
	C549.6,695.8,545.2,700.2,545.2,705.6z M547.9,705.6c0-4,3.2-7.3,7.2-7.3s7.2,3.3,7.2,7.3s-3.2,7.3-7.2,7.3S547.9,709.6,547.9,705.6
	z M572.9,696.3h-2.7V715h2.7v-10.2c0-4.2,3-6.5,4.9-6.5c0.8,0,1.4,0.1,2,0.3v-2.6c-0.6-0.3-1.2-0.3-2-0.3c-2,0-3.9,1.2-4.9,3.4h-0.1
	V696.3z M586.7,696.3H584V715h2.7V696.3z M585.3,687.7c-1.2,0-2.1,1-2.1,2.1c0,1.2,0.9,2.1,2.1,2.1c1.1,0,2.1-0.9,2.1-2.1
	C587.4,688.7,586.5,687.7,585.3,687.7z M592.8,696.3V715h2.7v-10.2c0-4.2,2.4-6.5,5.3-6.5c3,0,4.4,2,4.4,6.3V715h2.7v-10.8
	c0-4.5-1.5-8.4-6.5-8.4c-2.7,0-4.6,1-5.8,2.8h-0.1v-2.3H592.8z"/>
<path d="M171,21c0,11.8-10.3,21.2-23.1,21.2C135.3,41.9,125,32.5,125,21c0-10.5,8.4-19.2,19.2-21v0.3c-8.4,2.8-13.7,10.2-13.7,18.9
	c0,11,8.4,17.4,17.3,17.4c9.5,0,17-6.9,17-15.6c0-7.4-6.4-13.5-14.8-13.5c-9.2,0-13.9,7.9-13.9,7.9s4.2-11.5,16.7-11.5
	C160.7,3.8,171,9.5,171,21z M372.1,27.1l7.5-15.8l7.5,15.8H372.1z M393.9,41.4h6.7L382.2,4.3h-5L359,41.4h6.4l4.5-9.5h19.5
	L393.9,41.4z M397.8,54.7h1.4v10.7h-1.1l-7.5-8.7v8.7h-1.4V54.7h1.1l7.3,8.4v-8.4H397.8z M367.9,55.7h-7v3.6h6.4v1H361v3.8h7.3v1
	h-8.4V54.4h8.4v1.3H367.9z M333.1,55.7h-2.8v8.4h2.8c3.1,0,4.7-1.8,4.7-4.1C338.1,57.8,336.1,55.7,333.1,55.7z M333.1,65.4h-3.9
	V54.7h3.9c3.6,0,6.1,2.3,6.1,5.4C339.2,62.9,336.7,65.4,333.1,65.4z M308.5,55.7h-7v3.6h6.4v1h-6.4v3.8h7.3v1h-8.4V54.4h8.4v1.3
	H308.5z M273.7,54.7h1.1l3.1,8.9l3.3-8.9h1.4l-4.2,10.7h-1.1l-3.1-8.7l-3.1,8.7H270l-4.2-10.7h1.4l3.3,8.9L273.7,54.7z M245.8,59.5
	c2.5,0.5,3.9,1.3,3.9,3.1c0,1.8-1.7,3.1-3.9,3.1c-2,0-3.3-0.5-4.7-1.8l0.8-0.8c1.1,1,2.5,1.5,3.9,1.5c1.7,0,2.5-0.8,2.5-1.8
	c0-1-0.6-1.5-3.1-2c-2.8-0.5-3.9-1.3-3.9-3.1c0-1.8,1.7-2.8,3.9-2.8c1.7,0,2.8,0.5,4.2,1.3l-0.8,1c-1.1-0.8-2.2-1.3-3.3-1.3
	c-1.4,0-2.5,0.8-2.5,1.8C242.4,58.5,243,59,245.8,59.5z M128.9,59.5h90.9v0.8h-90.9V59.5z M421.5,59.5H506v0.8h-84.5V59.5z
	 M195,22.5h10.9c5.6,0,8.9-2.6,8.9-6.6c0-4.1-3.3-6.1-8.9-6.1h-11.2v12.8H195z M223.5,41.4h-7.5L205,27.6h-9.8v13.8h-6.1V4.6h17.3
	c8.9,0,14.8,4.3,14.8,11.2c0,5.4-3.6,9.5-10,10.7L223.5,41.4z M195,22.5h10.9c5.6,0,9.2-2.6,9.2-6.6c0-4.1-3.3-6.1-8.9-6.1H195V22.5
	z M223.5,41.4h-7.5L205,27.6h-9.8v13.8h-6.1V4.6h17.3c8.9,0,14.8,4.3,14.8,11.2c0,5.4-3.6,9.5-10,10.7L223.5,41.4z M195,22.5h10.9
	c5.6,0,8.9-2.6,8.9-6.6c0-4.1-3.3-6.1-8.9-6.1h-11.2v12.8H195z M223.5,41.4h-7.5L205,27.6h-9.8v13.8h-6.1V4.6h17.3
	c8.9,0,14.8,4.3,14.8,11.2c0,5.4-3.6,9.5-10,10.7L223.5,41.4z M506,41.4h-29.8V4.6h29.6v5.1h-23.4v10.7h20.9v5.1h-20.9v10.7H506
	V41.4z M434.3,31.7l-12.8-17.4v27.1h-3.1h-3.1V4.6h5.6l13.7,18.7l13.7-18.7h5.6v36.8h-2.5h-3.1V14.3l-12.8,17.6l-0.6,0.8L434.3,31.7
	z M347,41.4h-27.6V4.6h5.9V36H347V41.4z M277,41.4h-5.9V4.6h29.3v5.1h-23.1v11h20.6v5.1H277V41.4z M248.3,41.4h-6.1V4.6h5.9v36.8
	H248.3z M195,22.5h10.9c5.6,0,9.2-2.6,9.2-6.6c0-4.1-3.3-6.1-8.9-6.1H195V22.5z M223.5,41.4h-7.5L205,27.6h-9.8v13.8h-6.1V4.6h17.3
	c8.9,0,14.8,4.3,14.8,11.2c0,5.4-3.6,9.5-10,10.7L223.5,41.4z"/>
</svg>
