<svg width="1735" height="1312" viewBox="0 0 1735 1312" fill="none" xmlns="http://www.w3.org/2000/svg">
<path fill-rule="evenodd" clip-rule="evenodd" d="M647.289 382.842L649.303 382.568L645.008 383.154L645.009 383.153L645.007 383.153L645.008 383.152L639.189 383.944L658.197 366.279L661.534 370.011L661.534 370.012L670.208 379.728L660.094 381.104L649.302 382.568L647.289 382.842Z" fill="#CF4C84"/>
<path fill-rule="evenodd" clip-rule="evenodd" d="M379.645 496.534L379.643 496.532L383.447 502.795L392.996 518.529L401.95 533.275L401.951 533.274L407.636 520.62L379.649 496.537L379.647 496.535L379.644 496.532L379.645 496.534ZM379.647 496.535L407.637 520.62L409.818 515.751L374.494 488.048L379.647 496.535Z" fill="#CF4C84"/>
<path fill-rule="evenodd" clip-rule="evenodd" d="M1000.29 674.946L1000.29 674.944L1004.09 681.207L1013.64 696.941L1022.6 711.687L1022.6 711.686L1028.28 699.032L1000.3 674.949L1000.29 674.947L1000.29 674.944L1000.29 674.946ZM1000.29 674.947L1028.28 699.032L1030.46 694.163L995.141 666.46L1000.29 674.947Z" fill="#CF4C84"/>
<path d="M727.994 751.977C727.834 752.184 727.688 752.41 727.541 752.635C726.619 754.028 726.103 755.825 726.025 757.915C725.948 760.005 726.309 762.343 727.088 764.784C728.387 768.854 730.781 773.016 733.875 776.581C736.409 779.499 739.299 781.886 742.217 783.471C744.85 784.908 747.418 785.644 749.683 785.613C751.947 785.582 753.836 784.785 755.174 783.294L727.994 751.977Z" fill="#92CFB5"/>
<path d="M659.661 834.988C659.184 836.388 658.672 837.835 658.134 839.305C657.045 842.277 655.869 845.291 654.683 848.144C653.498 850.996 652.331 853.622 651.261 855.844C650.462 857.505 649.727 858.923 649.083 860.046C648.886 860.387 648.699 860.699 648.522 860.979C647.976 861.844 647.527 862.416 647.19 862.677C646.757 863.005 646.527 862.79 646.51 862.045C646.494 861.3 646.693 860.04 647.096 858.335C647.499 856.631 648.098 854.517 648.859 852.113C649.62 849.71 650.528 847.064 651.53 844.326L651.568 844.23C651.804 843.614 652.025 842.992 652.251 842.394L652.99 840.468L653.338 839.563L653.771 838.47L654.115 837.608L654.557 836.518L654.886 835.717L655.348 834.613L655.653 833.891L656.183 832.657L656.413 832.127C656.661 831.56 656.906 831.013 657.15 830.467L657.29 830.166C657.486 829.734 657.683 829.301 657.876 828.889L658.115 828.384C658.267 828.067 658.425 827.73 658.57 827.432L658.835 826.893L659.233 826.096C659.325 825.913 659.413 825.741 659.499 825.579L659.872 824.861C659.952 824.715 660.04 824.55 660.121 824.404C660.203 824.259 660.352 823.985 660.464 823.785L660.702 823.368C660.808 823.188 660.909 823.028 661.017 822.848L661.227 822.509C661.33 822.35 661.425 822.21 661.52 822.07C661.615 821.929 661.65 821.877 661.705 821.809C661.759 821.742 661.888 821.569 661.981 821.451C662.075 821.332 662.086 821.314 662.131 821.265C662.247 821.133 662.352 821.041 662.447 820.967C662.458 820.961 662.465 820.963 662.468 820.975C663.116 820.475 663.31 821.188 663.026 823.023C662.647 825.484 661.438 829.781 659.661 834.988Z" fill="#007681"/>
<path d="M244.181 767.223C242.716 767.016 241.199 766.789 239.653 766.545C236.527 766.051 233.339 765.496 230.305 764.918C227.271 764.34 224.461 763.752 222.062 763.193C220.27 762.776 218.727 762.381 217.491 762.022C217.114 761.913 216.769 761.807 216.457 761.706C215.492 761.392 214.833 761.12 214.502 760.899C214.082 760.613 214.235 760.42 214.95 760.33C215.664 760.24 216.927 760.256 218.667 760.376C220.407 760.496 222.589 760.718 225.089 761.029C227.589 761.34 230.357 761.735 233.237 762.19L233.339 762.207C233.99 762.318 234.642 762.416 235.273 762.521L237.306 762.866L238.262 763.028L239.419 763.234L240.333 763.398L241.489 763.611L242.341 763.771L243.516 763.996L244.285 764.147L245.601 764.41L246.167 764.524C246.773 764.648 247.359 764.772 247.945 764.896L248.268 764.967C248.732 765.067 249.196 765.168 249.64 765.267L250.183 765.391C250.526 765.471 250.888 765.552 251.21 765.628L251.793 765.768L252.657 765.978C252.855 766.027 253.042 766.074 253.218 766.121L254 766.322C254.16 766.366 254.34 766.413 254.5 766.458C254.66 766.504 254.959 766.585 255.179 766.646L255.638 766.779C255.837 766.839 256.015 766.896 256.214 766.957L256.591 767.077C256.769 767.137 256.927 767.192 257.085 767.248C257.243 767.303 257.302 767.324 257.38 767.357C257.458 767.39 257.655 767.468 257.792 767.524C257.929 767.581 257.948 767.587 258.006 767.615C258.162 767.687 258.276 767.755 258.369 767.818C258.378 767.825 258.377 767.83 258.367 767.834C259.003 768.261 258.362 768.479 256.524 768.46C254.06 768.437 249.627 767.992 244.181 767.223Z" fill="#007681"/>
<path d="M374.354 811.084C373.932 809.666 373.505 808.192 373.083 806.685C372.229 803.637 371.404 800.509 370.665 797.51C369.925 794.511 369.288 791.711 368.796 789.299C368.428 787.495 368.143 785.928 367.954 784.655C367.897 784.267 367.849 783.909 367.811 783.583C367.694 782.575 367.667 781.863 367.729 781.47C367.814 780.969 368.053 781.028 368.433 781.64C368.812 782.252 369.325 783.407 369.941 785.038C370.557 786.669 371.265 788.745 372.025 791.147C372.784 793.549 373.58 796.23 374.366 799.037L374.393 799.137C374.564 799.775 374.746 800.409 374.915 801.025L375.448 803.018L375.699 803.955L375.995 805.092L376.227 805.991L376.515 807.131L376.725 807.971L377.01 809.134L377.194 809.895L377.503 811.201L377.635 811.763C377.775 812.366 377.907 812.95 378.039 813.534L378.108 813.857C378.211 814.321 378.313 814.785 378.408 815.23L378.521 815.776C378.592 816.12 378.669 816.483 378.734 816.807L378.85 817.395L379.019 818.269C379.058 818.469 379.092 818.658 379.124 818.838L379.267 819.633C379.294 819.796 379.326 819.98 379.351 820.144C379.377 820.308 379.428 820.614 379.463 820.84L379.534 821.312C379.563 821.517 379.585 821.704 379.612 821.91L379.66 822.303C379.681 822.489 379.696 822.656 379.711 822.823C379.727 822.99 379.732 823.052 379.735 823.137C379.738 823.221 379.749 823.433 379.755 823.581C379.76 823.729 379.763 823.749 379.762 823.814C379.761 823.985 379.747 824.116 379.729 824.228C379.726 824.239 379.72 824.24 379.713 824.232C379.59 824.989 379.125 824.497 378.375 822.818C377.37 820.569 375.925 816.354 374.354 811.084Z" fill="#92CFB5"/>
<path d="M258.021 509.502C256.543 509.425 255.012 509.329 253.45 509.217C250.294 508.988 247.072 508.695 244.001 508.355C240.931 508.016 238.083 507.639 235.65 507.249C233.831 506.959 232.263 506.665 231.005 506.38C230.621 506.293 230.269 506.206 229.95 506.121C228.966 505.858 228.29 505.61 227.944 505.384C227.506 505.091 227.646 504.843 228.354 504.653C229.063 504.463 230.326 504.336 232.073 504.278C233.82 504.22 236.015 504.232 238.534 504.314C241.053 504.397 243.846 504.548 246.754 504.758L246.857 504.767C247.515 504.824 248.173 504.866 248.81 504.917L250.865 505.094L251.831 505.178L253.001 505.289L253.925 505.38L255.095 505.501L255.956 505.593L257.145 505.726L257.924 505.817L259.257 505.978L259.83 506.049C260.444 506.128 261.037 506.208 261.631 506.288L261.958 506.336C262.429 506.402 262.899 506.467 263.349 506.535L263.901 506.62C264.248 506.676 264.615 506.731 264.942 506.784L265.534 506.884L266.411 507.035C266.612 507.07 266.802 507.105 266.981 507.14L267.776 507.29C267.939 507.324 268.122 507.359 268.285 507.395C268.447 507.431 268.752 507.493 268.976 507.541L269.443 507.646C269.645 507.695 269.828 507.743 270.03 507.793L270.415 507.893C270.597 507.943 270.758 507.991 270.92 508.039C271.081 508.087 271.142 508.105 271.222 508.135C271.302 508.166 271.504 508.235 271.645 508.287C271.785 508.339 271.805 508.344 271.865 508.371C272.024 508.439 272.143 508.507 272.241 508.571C272.25 508.579 272.249 508.585 272.239 508.591C272.903 509.027 272.276 509.361 270.438 509.552C267.974 509.809 263.514 509.791 258.021 509.502Z" fill="#007681"/>
<path d="M878.669 687.914C877.192 687.837 875.66 687.741 874.099 687.628C870.942 687.4 867.72 687.106 864.65 686.767C861.58 686.428 858.732 686.051 856.299 685.661C854.48 685.37 852.912 685.077 851.653 684.792C851.269 684.704 850.917 684.618 850.599 684.533C849.614 684.27 848.938 684.021 848.592 683.796C848.154 683.503 848.294 683.255 849.003 683.065C849.711 682.875 850.975 682.748 852.722 682.689C854.469 682.631 856.664 682.644 859.183 682.726C861.702 682.809 864.495 682.959 867.402 683.17L867.505 683.179C868.163 683.235 868.821 683.278 869.459 683.329L871.513 683.506L872.48 683.59L873.65 683.701L874.574 683.792L875.743 683.912L876.605 684.005L877.794 684.138L878.573 684.228L879.905 684.39L880.478 684.461C881.092 684.539 881.686 684.619 882.279 684.699L882.607 684.747C883.077 684.813 883.548 684.879 883.997 684.947L884.549 685.032C884.896 685.087 885.264 685.142 885.59 685.196L886.182 685.296L887.06 685.447C887.261 685.482 887.451 685.517 887.63 685.552L888.425 685.702C888.587 685.736 888.77 685.771 888.933 685.807C889.096 685.842 889.4 685.905 889.624 685.953L890.091 686.058C890.294 686.106 890.476 686.154 890.679 686.204L891.063 686.304C891.245 686.354 891.407 686.402 891.568 686.451C891.73 686.499 891.79 686.517 891.87 686.547C891.951 686.577 892.152 686.647 892.293 686.699C892.433 686.751 892.453 686.756 892.513 686.783C892.673 686.851 892.791 686.919 892.889 686.983C892.898 686.99 892.898 686.997 892.887 687.003C893.552 687.439 892.925 687.773 891.086 687.964C888.622 688.22 884.162 688.203 878.669 687.914Z" fill="#007681"/>
<path d="M5.84769 613.388C6.69991 614.602 7.55296 615.88 8.39341 617.201C10.0912 619.874 11.7059 622.678 13.1287 625.424C14.5514 628.17 15.7494 630.795 16.642 633.123C17.3101 634.862 17.8025 636.415 18.1008 637.724C18.1909 638.123 18.2615 638.498 18.3123 638.845C18.4678 639.919 18.4423 640.741 18.2367 641.286C17.9636 641.983 17.3844 642.188 16.5334 641.89C15.6824 641.592 14.5757 640.797 13.2766 639.549C11.9774 638.301 10.5115 636.626 8.96207 634.618C7.41268 632.61 5.81062 630.31 4.24709 627.848L4.1943 627.759C3.8584 627.191 3.49406 626.64 3.16147 626.094L2.11179 624.319L1.61821 623.484L1.04165 622.459L0.590658 621.647L0.0320653 620.612L-0.372776 619.845L-0.92054 618.779L-1.27258 618.077L-1.8618 616.867L-2.11235 616.345C-2.37692 615.783 -2.62368 615.234 -2.87056 614.685L-2.99913 614.377C-3.19023 613.939 -3.38151 613.501 -3.55492 613.076L-3.76284 612.552C-3.89096 612.22 -4.03293 611.874 -4.15055 611.56L-4.35792 610.988L-4.65848 610.134C-4.72646 609.939 -4.78714 609.751 -4.84072 609.572L-5.08845 608.784C-5.13288 608.618 -5.18779 608.435 -5.22863 608.267C-5.26946 608.1 -5.35485 607.791 -5.4128 607.562L-5.52478 607.077C-5.56863 606.863 -5.59842 606.665 -5.63868 606.45L-5.70504 606.034C-5.73121 605.833 -5.74687 605.651 -5.76254 605.469C-5.77821 605.286 -5.78444 605.218 -5.77969 605.12C-5.77495 605.021 -5.77612 604.781 -5.77051 604.61C-5.76489 604.439 -5.76806 604.417 -5.75641 604.338C-5.73253 604.133 -5.68039 603.958 -5.62142 603.803C-5.61324 603.787 -5.59995 603.779 -5.58188 603.78C-5.18272 602.732 -4.10538 602.787 -2.4852 603.938C-0.3119 605.48 2.68105 608.874 5.84769 613.388Z" fill="#007681"/>
<path d="M486.51 -10.065C486.34 -9.92594 486.178 -9.76905 486.015 -9.61234C484.997 -8.64586 484.236 -7.27231 483.777 -5.57644C483.319 -3.88057 483.174 -1.89869 483.351 0.246747C483.645 3.82269 484.819 7.68145 486.678 11.1838C488.202 14.0504 490.117 16.5497 492.206 18.3985C494.09 20.071 496.052 21.1585 497.912 21.5607C499.772 21.9629 501.468 21.6668 502.844 20.6995L486.51 -10.065Z" fill="#92CFB5"/>
<path d="M1175.55 -25.1267C1175.41 -23.7783 1175.32 -22.3805 1175.28 -20.955C1175.19 -18.0733 1175.29 -15.1305 1175.58 -12.325C1175.86 -9.51945 1176.33 -6.91593 1176.94 -4.68969C1177.4 -3.02542 1177.93 -1.59006 1178.51 -0.436587C1178.69 -0.0850847 1178.88 0.237534 1179.06 0.529955C1179.65 1.43299 1180.27 2.05484 1180.9 2.37514C1181.72 2.78078 1182.55 2.65858 1183.34 2.01725C1184.13 1.37593 1184.86 0.227224 1185.5 -1.36334C1186.14 -2.95391 1186.67 -4.95472 1187.06 -7.25219C1187.45 -9.54967 1187.69 -12.0981 1187.77 -14.7524L1187.77 -14.8468C1187.76 -15.4473 1187.8 -16.0481 1187.8 -16.63L1187.76 -18.5066L1187.75 -19.3891L1187.7 -20.4578L1187.65 -21.3021L1187.56 -22.3703L1187.49 -23.1573L1187.38 -24.2442L1187.29 -24.9558L1187.12 -26.1737L1187.04 -26.6976C1186.95 -27.2592 1186.85 -27.8016 1186.75 -28.3442L1186.68 -28.6436C1186.59 -29.0738 1186.5 -29.5044 1186.4 -29.9156L1186.27 -30.4203C1186.19 -30.7379 1186.11 -31.0739 1186.02 -31.3728L1185.86 -31.9144L1185.6 -32.7174C1185.54 -32.9013 1185.48 -33.0752 1185.41 -33.2394L1185.14 -33.967C1185.07 -34.116 1185.01 -34.2838 1184.94 -34.4327C1184.86 -34.5816 1184.74 -34.8608 1184.65 -35.0657L1184.43 -35.4936C1184.33 -35.6796 1184.23 -35.8467 1184.12 -36.0326L1183.9 -36.3853C1183.79 -36.5523 1183.68 -36.7005 1183.56 -36.8488C1183.45 -36.997 1183.41 -37.0524 1183.33 -37.1262C1183.26 -37.1999 1183.09 -37.3855 1182.96 -37.5147C1182.83 -37.6438 1182.82 -37.6621 1182.75 -37.7172C1182.57 -37.8643 1182.39 -37.9736 1182.21 -38.0643C1182.19 -38.0728 1182.16 -38.0724 1182.14 -38.0632C1180.92 -38.6783 1179.69 -38.1146 1178.61 -36.4433C1177.15 -34.2035 1176.05 -30.1389 1175.55 -25.1267Z" fill="#007681"/>
<path d="M176.462 105.166C176.105 106.043 175.744 106.957 175.387 107.893C174.665 109.785 173.967 111.735 173.342 113.61C172.716 115.486 172.177 117.244 171.761 118.766C171.449 119.904 171.209 120.898 171.048 121.71C171 121.958 170.959 122.187 170.927 122.396C170.828 123.044 170.804 123.509 170.857 123.776C170.929 124.116 171.131 124.109 171.451 123.756C171.772 123.403 172.205 122.711 172.726 121.718C173.247 120.726 173.845 119.454 174.487 117.973C175.129 116.493 175.802 114.834 176.467 113.091L176.49 113.028C176.635 112.631 176.789 112.238 176.931 111.855L177.383 110.614L177.595 110.031L177.845 109.321L178.041 108.76L178.285 108.049L178.462 107.523L178.703 106.796L178.859 106.319L179.121 105.501L179.232 105.149C179.351 104.77 179.462 104.404 179.573 104.037L179.632 103.833C179.719 103.542 179.806 103.25 179.886 102.97L179.982 102.626C180.042 102.409 180.107 102.18 180.162 101.975L180.26 101.603L180.403 101.051C180.436 100.925 180.465 100.804 180.492 100.69L180.613 100.186C180.636 100.082 180.663 99.9658 180.684 99.8613C180.706 99.7567 180.749 99.5619 180.779 99.4184L180.839 99.1171C180.864 98.9856 180.882 98.8659 180.905 98.7338L180.946 98.4818C180.964 98.3617 180.977 98.2541 180.989 98.1464C181.002 98.0387 181.007 97.9985 181.01 97.9432C181.012 97.8878 181.022 97.7503 181.027 97.6537C181.031 97.5571 181.033 97.544 181.032 97.5014C181.032 97.3889 181.02 97.3003 181.005 97.2245C181.002 97.2171 180.998 97.2154 180.991 97.2197C180.888 96.706 180.495 96.9686 179.861 97.9745C179.012 99.3222 177.791 101.905 176.462 105.166Z" fill="#007681"/>
<path d="M311.023 35.9227C309.619 36.1584 308.17 36.4364 306.7 36.7526C303.729 37.3931 300.724 38.1789 297.888 39.0571C295.051 39.9354 292.449 40.8857 290.257 41.8442C288.617 42.5598 287.224 43.2697 286.128 43.9479C285.794 44.1555 285.491 44.3594 285.219 44.5588C284.38 45.1762 283.835 45.748 283.601 46.2555C283.309 46.9124 283.559 47.4464 284.336 47.8274C285.113 48.2084 286.403 48.4288 288.132 48.4759C289.86 48.523 291.994 48.3961 294.411 48.1021C296.827 47.8081 299.48 47.3531 302.216 46.7628L302.313 46.7387C302.928 46.5855 303.55 46.4634 304.147 46.3227L306.068 45.8437L306.972 45.6185L308.061 45.3222L308.92 45.0832L310.004 44.7674L310.801 44.5274L311.899 44.1834L312.616 43.9509L313.841 43.5382L314.366 43.3575C314.929 43.1593 315.471 42.9582 316.012 42.757L316.309 42.6375C316.738 42.4729 317.166 42.3082 317.573 42.1405L318.072 41.9295C318.385 41.7936 318.718 41.6569 319.011 41.5258L319.542 41.2818L320.328 40.9124C320.508 40.8269 320.677 40.7419 320.836 40.6578L321.542 40.2958C321.685 40.2147 321.847 40.1288 321.989 40.0438C322.131 39.9588 322.399 39.8092 322.595 39.6943L323.002 39.4441C323.178 39.33 323.333 39.2169 323.508 39.0989L323.837 38.864C323.992 38.747 324.127 38.6347 324.262 38.5225C324.397 38.4103 324.448 38.3687 324.512 38.299C324.576 38.2293 324.741 38.0683 324.854 37.9492C324.968 37.8301 324.985 37.8176 325.031 37.7565C325.155 37.6015 325.239 37.4483 325.305 37.3037C325.311 37.2873 325.307 37.2729 325.295 37.2609C325.742 36.2816 324.978 35.5822 323.099 35.2505C320.581 34.8037 316.243 35.0451 311.023 35.9227Z" fill="#007681"/>
<path fill-rule="evenodd" clip-rule="evenodd" d="M809.563 9.17533L810.063 10.6143L807.369 2.84374L807.368 2.84456L807.368 2.84829L803.714 -7.68018L789.679 39.4499L798.984 41.9475L798.983 41.9483L823.191 48.4263L816.843 30.1318L810.062 10.6152L809.563 9.17533Z" fill="#CF4C84"/>
<path d="M926.504 86.6029C925.98 85.5914 925.428 84.5471 924.856 83.4861C923.699 81.3413 922.482 79.1674 921.288 77.1109C920.093 75.0543 918.949 73.1626 917.931 71.563C917.17 70.3671 916.489 69.3472 915.913 68.5409C915.737 68.2953 915.572 68.0715 915.419 67.8705C914.945 67.2499 914.579 66.8407 914.334 66.6562C914.019 66.4244 913.918 66.5847 914.035 67.1267C914.152 67.6688 914.486 68.5825 915.017 69.8158C915.549 71.0491 916.267 72.5775 917.131 74.3142C917.995 76.0509 918.989 77.9613 920.054 79.9367L920.093 80.0066C920.339 80.4511 920.577 80.8996 920.814 81.3314L921.584 82.7204L921.946 83.3735L922.391 84.1617L922.744 84.7837L923.193 85.569L923.527 86.1468L923.991 86.943L924.296 87.4634L924.823 88.3523L925.051 88.7342C925.296 89.1431 925.535 89.5369 925.774 89.9307L925.909 90.1471C926.1 90.4587 926.291 90.7706 926.477 91.0673L926.706 91.4306C926.851 91.6589 927.002 91.9014 927.14 92.1158L927.39 92.5036L927.764 93.0777C927.85 93.209 927.932 93.3327 928.01 93.449L928.356 93.9658C928.429 94.0708 928.509 94.1896 928.583 94.294C928.657 94.3985 928.792 94.5954 928.893 94.7393L929.106 95.0386C929.2 95.1681 929.288 95.2831 929.383 95.4119L929.567 95.6551C929.655 95.7695 929.736 95.87 929.816 95.9705C929.897 96.071 929.927 96.1087 929.971 96.157C930.015 96.2053 930.122 96.3286 930.198 96.4135C930.274 96.4985 930.283 96.5111 930.318 96.546C930.41 96.6404 930.489 96.7058 930.558 96.7579C930.566 96.7624 930.569 96.7604 930.57 96.7518C931.042 97.1054 931.037 96.584 930.554 95.2531C929.908 93.4694 928.453 90.3624 926.504 86.6029Z" fill="#92CFB5"/>
<path d="M1084.82 85.4827C1084.86 84.143 1084.86 82.7576 1084.8 81.3481C1084.69 78.4988 1084.39 75.6025 1083.91 72.8544C1083.43 70.1063 1082.8 67.5698 1082.04 65.4156C1081.47 63.8051 1080.85 62.4256 1080.19 61.3279C1079.99 60.9935 1079.79 60.6879 1079.58 60.4124C1078.94 59.5618 1078.29 58.9909 1077.65 58.7185C1076.81 58.3749 1076 58.5526 1075.26 59.2398C1074.53 59.927 1073.88 61.1111 1073.36 62.7244C1072.84 64.3377 1072.46 66.3482 1072.23 68.6418C1072.01 70.9353 1071.94 73.4663 1072.05 76.0908L1072.05 76.1838C1072.11 76.7755 1072.11 77.3707 1072.15 77.9449L1072.31 79.7942L1072.39 80.6637L1072.51 81.7145L1072.62 82.544L1072.78 83.5923L1072.9 84.3638L1073.09 85.4281L1073.23 86.1241L1073.48 87.314L1073.59 87.8254C1073.72 88.3732 1073.86 88.9013 1074 89.4297L1074.08 89.7204C1074.2 90.1387 1074.32 90.5574 1074.44 90.9563L1074.61 91.4452C1074.71 91.7527 1074.82 92.0786 1074.92 92.3676L1075.12 92.8905L1075.43 93.6652C1075.5 93.8425 1075.57 94.0098 1075.65 94.1672L1075.97 94.8663C1076.04 95.0088 1076.12 95.1698 1076.2 95.3117C1076.28 95.4537 1076.42 95.7209 1076.53 95.9164L1076.77 96.3238C1076.88 96.5003 1077 96.6579 1077.12 96.8338L1077.36 97.1667C1077.48 97.3237 1077.6 97.4622 1077.72 97.6008C1077.84 97.7393 1077.89 97.7911 1077.97 97.8586C1078.05 97.9261 1078.23 98.0975 1078.36 98.216C1078.5 98.3346 1078.51 98.3518 1078.59 98.4013C1078.77 98.5344 1078.96 98.6293 1079.14 98.7064C1079.17 98.7133 1079.19 98.7115 1079.21 98.701C1080.45 99.2236 1081.63 98.5827 1082.58 96.8588C1083.87 94.5485 1084.67 90.4624 1084.82 85.4827Z" fill="#007681"/>
<path fill-rule="evenodd" clip-rule="evenodd" d="M1501.49 32.9049L1512.76 19.5488L1512.76 19.5485L1523.33 7.03387L1523.33 7.03357L1529.03 27.1489L1497 38.2175L1497 38.2178L1497 38.2191L1497 38.2188L1501.47 32.9312L1501.49 32.9052L1501.49 32.9049ZM1497 38.2178L1529.03 27.1492L1531.21 34.8842L1490.92 45.4201L1497 38.2178Z" fill="#CF4C84"/>
<path fill-rule="evenodd" clip-rule="evenodd" d="M1682.89 52.5632L1685.66 52.7661L1680.91 52.4163L1680.91 52.4173L1680.91 52.4172L1680.91 52.4178L1674.46 51.9458L1696.54 70.0434L1699.95 65.7176L1699.95 65.718L1708.81 54.4582L1697.61 53.638L1685.66 52.7669L1682.89 52.5632Z" fill="#CF4C84"/>
<path d="M1743.09 42.8016C1741.76 42.907 1740.38 43.0483 1738.99 43.2234C1736.16 43.5788 1733.29 44.0672 1730.57 44.6556C1727.85 45.2441 1725.34 45.919 1723.21 46.635C1721.62 47.1694 1720.26 47.7185 1719.18 48.2624C1718.86 48.429 1718.56 48.5947 1718.29 48.7587C1717.45 49.2668 1716.9 49.7563 1716.64 50.2111C1716.31 50.8007 1716.5 51.3198 1717.19 51.7392C1717.89 52.1586 1719.08 52.4698 1720.69 52.655C1722.3 52.8403 1724.3 52.896 1726.58 52.8189C1728.86 52.7419 1731.38 52.5336 1733.98 52.2059L1734.07 52.1913C1734.66 52.0984 1735.25 52.0353 1735.82 51.9527L1737.65 51.6623L1738.52 51.5257L1739.56 51.338L1740.38 51.185L1741.42 50.9787L1742.18 50.8196L1743.23 50.5881L1743.92 50.4295L1745.1 50.1441L1745.61 50.0183C1746.15 49.8792 1746.67 49.7356 1747.19 49.592L1747.48 49.5047C1747.89 49.3859 1748.31 49.2671 1748.7 49.1438L1749.18 48.9874C1749.49 48.8861 1749.81 48.7856 1750.09 48.6872L1750.61 48.5027L1751.37 48.2219C1751.55 48.1567 1751.71 48.0912 1751.87 48.0256L1752.56 47.7452C1752.7 47.6811 1752.86 47.6142 1753 47.5464C1753.14 47.4786 1753.4 47.3608 1753.59 47.2695L1753.99 47.0691C1754.16 46.9769 1754.32 46.8839 1754.49 46.7881L1754.82 46.5956C1754.97 46.4989 1755.11 46.4051 1755.24 46.3113C1755.38 46.2176 1755.43 46.1829 1755.49 46.123C1755.56 46.0632 1755.73 45.9263 1755.84 45.8243C1755.96 45.7223 1755.98 45.712 1756.02 45.6588C1756.15 45.5242 1756.24 45.3879 1756.32 45.2583C1756.32 45.2434 1756.32 45.2297 1756.31 45.2175C1756.81 44.3394 1756.15 43.6239 1754.42 43.1605C1752.11 42.5374 1748.04 42.4085 1743.09 42.8016Z" fill="#007681"/>
<path d="M117.293 169.759C118.444 170.592 119.645 171.444 120.879 172.302C123.374 174.036 125.958 175.76 128.456 177.358C130.953 178.957 133.307 180.393 135.36 181.57C136.894 182.45 138.241 183.177 139.354 183.723C139.693 183.889 140.008 184.037 140.297 184.166C141.191 184.563 141.846 184.785 142.24 184.825C142.744 184.871 142.789 184.601 142.374 184.032C141.96 183.463 141.093 182.605 139.823 181.508C138.554 180.411 136.907 179.096 134.976 177.638C133.045 176.18 130.868 174.608 128.57 173.012L128.487 172.956C127.962 172.602 127.445 172.236 126.938 171.89L125.296 170.783L124.525 170.262L123.583 169.64L122.839 169.15L121.893 168.535L121.194 168.084L120.225 167.466L119.589 167.064L118.496 166.381L118.025 166.089C117.519 165.777 117.028 165.479 116.537 165.18L116.263 165.019C115.872 164.784 115.481 164.549 115.104 164.329L114.641 164.06C114.348 163.891 114.04 163.711 113.764 163.554L113.262 163.271L112.516 162.855C112.344 162.76 112.181 162.672 112.026 162.59L111.343 162.222C111.201 162.149 111.042 162.065 110.899 161.994C110.756 161.922 110.491 161.785 110.295 161.686L109.883 161.483C109.702 161.397 109.537 161.323 109.356 161.238L109.008 161.08C108.842 161.008 108.692 160.946 108.543 160.885C108.393 160.824 108.337 160.8 108.259 160.775C108.181 160.749 107.988 160.679 107.852 160.633C107.716 160.587 107.698 160.579 107.637 160.563C107.477 160.517 107.347 160.497 107.235 160.486C107.224 160.486 107.221 160.491 107.225 160.502C106.466 160.427 106.732 161.054 107.99 162.306C109.676 163.984 113.017 166.661 117.293 169.759Z" fill="#007681"/>
<path fill-rule="evenodd" clip-rule="evenodd" d="M465.738 261.379L465.74 261.377L463.148 266.954L456.645 280.964L450.547 294.095L450.546 294.094L445.272 284.79L465.736 261.382L465.737 261.38L465.739 261.377L465.738 261.379ZM465.737 261.38L445.271 284.789L443.247 281.208L469.246 253.823L465.737 261.38Z" fill="#CF4C84"/>
<path fill-rule="evenodd" clip-rule="evenodd" d="M1086.39 439.791L1086.39 439.789L1083.8 445.366L1077.29 459.376L1071.19 472.507L1071.19 472.506L1065.92 463.201L1086.38 439.794L1086.38 439.792L1086.39 439.789L1086.39 439.791ZM1086.38 439.792L1065.92 463.201L1063.89 459.619L1089.89 432.235L1086.38 439.792Z" fill="#CF4C84"/>
<path d="M742.053 225.759C742.657 226.845 743.294 227.965 743.956 229.102C745.294 231.399 746.705 233.722 748.094 235.913C749.484 238.104 750.82 240.114 752.012 241.806C752.903 243.071 753.703 244.146 754.383 244.99C754.591 245.247 754.786 245.481 754.967 245.69C755.529 246.336 755.967 246.754 756.265 246.932C756.647 247.154 756.783 246.957 756.664 246.352C756.546 245.748 756.176 244.747 755.575 243.408C754.974 242.068 754.154 240.417 753.162 238.546C752.169 236.676 751.025 234.625 749.792 232.508L749.747 232.434C749.462 231.959 749.187 231.478 748.913 231.016L748.021 229.531L747.601 228.832L747.085 227.991L746.675 227.327L746.153 226.489L745.765 225.873L745.225 225.025L744.87 224.471L744.256 223.525L743.99 223.119C743.705 222.685 743.425 222.266 743.146 221.848L742.989 221.619C742.765 221.288 742.542 220.957 742.325 220.643L742.057 220.258C741.887 220.017 741.71 219.76 741.549 219.533L741.255 219.123L740.817 218.517C740.716 218.379 740.62 218.248 740.527 218.126L740.121 217.581C740.035 217.471 739.94 217.346 739.854 217.237C739.767 217.127 739.607 216.92 739.488 216.769L739.236 216.456C739.125 216.32 739.022 216.201 738.909 216.066L738.692 215.813C738.587 215.694 738.491 215.59 738.395 215.486C738.299 215.382 738.263 215.343 738.211 215.294C738.158 215.244 738.031 215.118 737.94 215.031C737.849 214.944 737.838 214.931 737.795 214.896C737.685 214.8 737.59 214.736 737.506 214.686C737.497 214.682 737.492 214.685 737.491 214.694C736.917 214.354 736.896 214.951 737.431 216.408C738.147 218.362 739.807 221.721 742.053 225.759Z" fill="#007681"/>
<path fill-rule="evenodd" clip-rule="evenodd" d="M933.727 283.002L938.22 277.962L911.183 292.133L912.04 295.658L912.041 295.658L914.283 304.822L914.283 304.822L922.089 296.064L930.414 286.72L933.73 283L933.727 283.002Z" fill="#CF4C84"/>
<path d="M1159.67 278.387C1160.14 280.082 1160.68 281.817 1161.28 283.564C1162.51 287.094 1164.01 290.609 1165.66 293.871C1167.31 297.134 1169.08 300.07 1170.86 302.48C1172.18 304.283 1173.49 305.774 1174.74 306.899C1175.12 307.241 1175.49 307.546 1175.85 307.812C1176.98 308.634 1178.02 309.099 1178.93 309.194C1180.11 309.303 1181.06 308.77 1181.72 307.627C1182.38 306.484 1182.73 304.752 1182.77 302.529C1182.8 300.307 1182.51 297.639 1181.91 294.677C1181.32 291.714 1180.43 288.516 1179.29 285.265L1179.25 285.152C1178.96 284.429 1178.72 283.686 1178.45 282.981L1177.54 280.724L1177.11 279.663L1176.55 278.394L1176.1 277.395L1175.5 276.14L1175.05 275.22L1174.4 273.958L1173.97 273.138L1173.19 271.743L1172.86 271.145C1172.49 270.507 1172.11 269.898 1171.74 269.288L1171.51 268.957C1171.21 268.477 1170.9 267.997 1170.59 267.545L1170.2 266.995C1169.95 266.65 1169.69 266.281 1169.45 265.959L1169 265.38L1168.32 264.527C1168.16 264.332 1168 264.151 1167.85 263.982L1167.18 263.228C1167.03 263.078 1166.87 262.905 1166.72 262.758C1166.56 262.612 1166.28 262.329 1166.07 262.126L1165.61 261.707C1165.41 261.529 1165.2 261.377 1164.98 261.201L1164.55 260.876C1164.34 260.726 1164.14 260.599 1163.93 260.471C1163.73 260.344 1163.65 260.296 1163.53 260.242C1163.4 260.188 1163.11 260.043 1162.89 259.946C1162.67 259.85 1162.65 259.833 1162.54 259.799C1162.26 259.702 1161.98 259.656 1161.72 259.63C1161.69 259.63 1161.67 259.64 1161.65 259.661C1159.89 259.483 1158.66 260.737 1158.12 263.265C1157.4 266.654 1157.95 272.085 1159.67 278.387Z" fill="#007681"/>
<path d="M1448.89 264.029C1449.12 264.289 1449.36 264.537 1449.6 264.786C1451.11 266.346 1453.05 267.536 1455.32 268.283C1457.59 269.03 1460.13 269.318 1462.79 269.129C1467.23 268.815 1471.78 267.192 1475.69 264.53C1478.89 262.348 1481.51 259.567 1483.27 256.502C1484.86 253.738 1485.69 250.835 1485.68 248.063C1485.67 245.29 1484.83 242.737 1483.23 240.64L1448.89 264.029Z" fill="#92CFB5"/>
<path fill-rule="evenodd" clip-rule="evenodd" d="M1642.44 183.056L1642.44 183.057L1647.2 180.409L1659.16 173.754L1670.37 167.518L1670.37 167.519L1669.3 176.935L1642.45 183.056L1642.44 183.056L1642.44 183.057L1642.44 183.056ZM1642.44 183.056L1669.3 176.935L1668.89 180.556L1635.99 186.645L1642.44 183.056Z" fill="#CF4C84"/>
<path d="M141.957 339.546C142.387 338.329 142.803 337.059 143.199 335.755C143.997 333.118 144.694 330.391 145.244 327.757C145.794 325.123 146.184 322.643 146.388 320.484C146.541 318.87 146.59 317.454 146.534 316.287C146.516 315.931 146.488 315.601 146.449 315.298C146.329 314.362 146.115 313.679 145.815 313.271C145.423 312.75 144.89 312.714 144.247 313.162C143.603 313.611 142.862 314.536 142.065 315.886C141.268 317.235 140.431 318.982 139.602 321.027C138.774 323.072 137.969 325.374 137.234 327.802L137.211 327.89C137.062 328.444 136.886 328.991 136.735 329.526L136.271 331.26L136.052 332.075L135.809 333.068L135.621 333.854L135.394 334.852L135.235 335.589L135.025 336.611L134.894 337.281L134.683 338.433L134.595 338.929C134.505 339.462 134.427 339.98 134.348 340.498L134.312 340.785C134.255 341.197 134.197 341.609 134.151 342.006L134.099 342.494C134.069 342.801 134.032 343.125 134.006 343.416L133.966 343.944L133.914 344.729C133.903 344.909 133.896 345.08 133.893 345.243L133.87 345.961C133.871 346.11 133.868 346.277 133.873 346.427C133.878 346.577 133.878 346.855 133.884 347.061L133.903 347.493C133.916 347.683 133.938 347.856 133.954 348.046L133.996 348.41C134.021 348.584 134.05 348.74 134.08 348.897C134.109 349.053 134.12 349.112 134.147 349.193C134.174 349.275 134.229 349.476 134.274 349.618C134.319 349.76 134.321 349.779 134.349 349.843C134.418 350.01 134.502 350.143 134.588 350.259C134.598 350.271 134.611 350.274 134.626 350.27C135.206 351.055 136.096 350.757 137.184 349.413C138.645 347.613 140.359 344.069 141.957 339.546Z" fill="#007681"/>
<path d="M546.305 337.231C545.912 337.582 545.534 337.956 545.155 338.329C542.783 340.644 540.912 343.422 539.657 346.489C538.401 349.557 537.789 352.849 537.858 356.163C537.972 361.686 539.97 367.004 543.52 371.237C546.431 374.699 550.253 377.278 554.553 378.682C558.429 379.956 562.564 380.232 566.576 379.484C570.588 378.736 574.346 376.989 577.503 374.404L546.305 337.231Z" fill="#92CFB5"/>
<path d="M1166.95 515.643C1166.56 515.994 1166.18 516.367 1165.8 516.741C1163.43 519.056 1161.56 521.833 1160.31 524.901C1159.05 527.969 1158.44 531.261 1158.51 534.575C1158.62 540.098 1160.62 545.416 1164.17 549.648C1167.08 553.111 1170.9 555.69 1175.2 557.094C1179.08 558.368 1183.21 558.644 1187.23 557.896C1191.24 557.148 1195 555.401 1198.15 552.815L1166.95 515.643Z" fill="#92CFB5"/>
<path d="M1484.29 356.65C1484.88 355.884 1485.46 355.078 1486.05 354.243C1487.22 352.553 1488.35 350.777 1489.35 349.032C1490.34 347.287 1491.19 345.615 1491.84 344.128C1492.32 343.017 1492.68 342.022 1492.91 341.18C1492.98 340.923 1493.04 340.682 1493.08 340.458C1493.21 339.764 1493.21 339.23 1493.1 338.87C1492.94 338.41 1492.57 338.261 1492.01 338.431C1491.45 338.601 1490.71 339.088 1489.83 339.863C1488.95 340.638 1487.95 341.686 1486.89 342.947C1485.83 344.209 1484.73 345.659 1483.64 347.215L1483.61 347.272C1483.37 347.631 1483.12 347.979 1482.89 348.325L1482.16 349.449L1481.82 349.978L1481.42 350.627L1481.1 351.142L1480.71 351.799L1480.43 352.286L1480.04 352.964L1479.79 353.41L1479.38 354.18L1479.2 354.512C1479.01 354.87 1478.84 355.219 1478.66 355.569L1478.57 355.766C1478.43 356.045 1478.3 356.324 1478.17 356.595L1478.02 356.93C1477.93 357.142 1477.83 357.363 1477.75 357.564L1477.6 357.93L1477.38 358.476C1477.33 358.601 1477.28 358.721 1477.24 358.836L1477.06 359.341C1477.03 359.447 1476.99 359.565 1476.96 359.673C1476.92 359.78 1476.86 359.978 1476.82 360.126L1476.73 360.437C1476.7 360.575 1476.67 360.703 1476.64 360.842L1476.59 361.11C1476.56 361.239 1476.55 361.358 1476.53 361.476C1476.52 361.594 1476.51 361.638 1476.51 361.702C1476.51 361.766 1476.5 361.922 1476.5 362.033C1476.5 362.144 1476.5 362.158 1476.51 362.21C1476.52 362.344 1476.54 362.459 1476.58 362.561C1476.58 362.572 1476.59 362.577 1476.6 362.577C1476.83 363.269 1477.54 363.262 1478.62 362.559C1480.07 361.617 1482.11 359.495 1484.29 356.65Z" fill="#007681"/>
<path d="M1640.38 346.228C1640.95 346.361 1641.53 346.467 1642.11 346.573C1645.7 347.251 1649.39 347.185 1652.96 346.378C1656.52 345.571 1659.89 344.041 1662.84 341.883C1667.75 338.285 1671.3 333.114 1672.87 327.229C1674.16 322.408 1674.07 317.323 1672.62 312.549C1671.32 308.24 1668.95 304.329 1665.74 301.177C1662.53 298.025 1658.57 295.735 1654.23 294.518L1640.38 346.228Z" fill="#92CFB5"/>
<path d="M309.347 273.314C308.234 272.672 307.054 272.085 305.825 271.562C303.339 270.508 300.697 269.74 298.078 269.308C295.458 268.876 292.921 268.791 290.638 269.058C288.931 269.256 287.387 269.642 286.062 270.205C285.657 270.378 285.275 270.568 284.918 270.775C283.813 271.416 282.937 272.2 282.319 273.1C281.525 274.274 281.191 275.627 281.335 277.082C281.478 278.538 282.096 280.067 283.155 281.583C284.213 283.099 285.691 284.571 287.503 285.916C289.315 287.262 291.426 288.453 293.716 289.423L293.8 289.45C294.334 289.624 294.843 289.87 295.354 290.056L297.021 290.598L297.805 290.853L298.773 291.107L299.542 291.295L300.525 291.503L301.255 291.639L302.272 291.798L302.944 291.885L304.106 291.999L304.608 292.04C305.15 292.075 305.681 292.085 306.212 292.096L306.512 292.082C306.937 292.078 307.363 292.074 307.777 292.047L308.29 292.001C308.615 291.965 308.954 291.943 309.262 291.902L309.826 291.811L310.668 291.66C310.862 291.623 311.048 291.578 311.227 291.527L312.011 291.326C312.178 291.269 312.36 291.217 312.53 291.15C312.699 291.084 313.008 290.982 313.239 290.895L313.73 290.69C313.947 290.588 314.151 290.472 314.371 290.361L314.798 290.125C315.004 290 315.194 289.869 315.384 289.738C315.574 289.608 315.645 289.56 315.75 289.462C315.856 289.365 316.11 289.154 316.292 288.99C316.474 288.826 316.496 288.813 316.582 288.72C316.805 288.488 317 288.228 317.176 287.971C317.194 287.94 317.205 287.906 317.208 287.87C318.399 286.13 318.558 284.001 317.667 281.75C316.474 278.728 313.486 275.698 309.347 273.314Z" fill="#007681"/>
<path d="M929.994 451.726C928.881 451.084 927.7 450.497 926.471 449.974C923.985 448.92 921.344 448.152 918.724 447.72C916.104 447.288 913.567 447.203 911.284 447.47C909.578 447.668 908.033 448.054 906.708 448.616C906.304 448.79 905.922 448.98 905.564 449.187C904.459 449.828 903.583 450.612 902.965 451.512C902.172 452.685 901.838 454.039 901.981 455.494C902.124 456.949 902.743 458.479 903.801 459.995C904.86 461.51 906.337 462.983 908.149 464.328C909.962 465.673 912.073 466.865 914.363 467.835L914.447 467.862C914.98 468.035 915.49 468.282 916 468.468L917.668 469.01L918.452 469.265L919.42 469.518L920.188 469.707L921.171 469.915L921.901 470.051L922.919 470.21L923.591 470.296L924.753 470.41L925.255 470.452C925.797 470.486 926.328 470.497 926.859 470.507L927.159 470.493C927.584 470.49 928.009 470.486 928.424 470.459L928.937 470.413C929.262 470.377 929.6 470.355 929.909 470.313L930.472 470.223L931.315 470.071C931.508 470.035 931.695 469.99 931.874 469.939L932.658 469.738C932.824 469.681 933.007 469.629 933.176 469.562C933.345 469.495 933.654 469.393 933.886 469.306L934.376 469.101C934.593 469 934.797 468.884 935.017 468.773L935.444 468.537C935.651 468.412 935.841 468.281 936.031 468.15C936.221 468.019 936.291 467.972 936.397 467.874C936.502 467.777 936.756 467.565 936.938 467.402C937.12 467.238 937.143 467.225 937.229 467.132C937.451 466.9 937.646 466.639 937.822 466.382C937.841 466.352 937.852 466.318 937.855 466.282C939.045 464.542 939.204 462.412 938.313 460.162C937.121 457.14 934.132 454.11 929.994 451.726Z" fill="#007681"/>
<path d="M1425.17 564.041C1424.06 563.399 1422.88 562.812 1421.65 562.289C1419.16 561.236 1416.52 560.467 1413.9 560.035C1411.28 559.603 1408.75 559.518 1406.46 559.785C1404.76 559.983 1403.21 560.37 1401.89 560.932C1401.48 561.105 1401.1 561.295 1400.74 561.502C1399.64 562.143 1398.76 562.927 1398.14 563.827C1397.35 565.001 1397.02 566.354 1397.16 567.809C1397.3 569.265 1397.92 570.794 1398.98 572.31C1400.04 573.826 1401.52 575.298 1403.33 576.643C1405.14 577.989 1407.25 579.18 1409.54 580.15L1409.63 580.177C1410.16 580.351 1410.67 580.597 1411.18 580.783L1412.85 581.325L1413.63 581.58L1414.6 581.834L1415.37 582.022L1416.35 582.23L1417.08 582.366L1418.1 582.525L1418.77 582.612L1419.93 582.726L1420.43 582.767C1420.98 582.802 1421.51 582.812 1422.04 582.823L1422.34 582.809C1422.76 582.805 1423.19 582.802 1423.6 582.774L1424.12 582.728C1424.44 582.692 1424.78 582.67 1425.09 582.629L1425.65 582.538L1426.49 582.387C1426.69 582.35 1426.87 582.306 1427.05 582.254L1427.84 582.053C1428 581.996 1428.19 581.944 1428.35 581.877C1428.52 581.811 1428.83 581.709 1429.06 581.622L1429.55 581.417C1429.77 581.315 1429.98 581.199 1430.2 581.088L1430.62 580.852C1430.83 580.727 1431.02 580.596 1431.21 580.465C1431.4 580.335 1431.47 580.287 1431.58 580.189C1431.68 580.092 1431.93 579.881 1432.12 579.717C1432.3 579.554 1432.32 579.541 1432.41 579.447C1432.63 579.215 1432.83 578.955 1433 578.698C1433.02 578.667 1433.03 578.633 1433.03 578.597C1434.22 576.857 1434.38 574.728 1433.49 572.477C1432.3 569.455 1429.31 566.425 1425.17 564.041Z" fill="#007681"/>
<path d="M675.973 437.64C676.261 436.279 676.545 434.865 676.82 433.419C677.377 430.497 677.891 427.499 678.326 424.628C678.761 421.758 679.108 419.08 679.344 416.775C679.52 415.053 679.633 413.558 679.679 412.345C679.692 411.976 679.699 411.635 679.699 411.325C679.699 410.367 679.637 409.693 679.515 409.324C679.355 408.855 679.096 408.923 678.752 409.52C678.408 410.118 677.986 411.234 677.51 412.807C677.035 414.379 676.515 416.376 675.979 418.684C675.444 420.992 674.905 423.565 674.392 426.257L674.375 426.353C674.268 426.964 674.147 427.572 674.039 428.164L673.702 430.073L673.544 430.971L673.362 432.06L673.221 432.922L673.047 434.013L672.922 434.818L672.755 435.93L672.649 436.659L672.473 437.909L672.399 438.447C672.321 439.023 672.25 439.582 672.179 440.14L672.144 440.449C672.09 440.892 672.035 441.336 671.988 441.761L671.932 442.282C671.898 442.611 671.859 442.958 671.828 443.268L671.776 443.829L671.701 444.663C671.684 444.854 671.67 445.035 671.658 445.206L671.602 445.964C671.593 446.12 671.581 446.295 671.574 446.452C671.567 446.608 671.55 446.9 671.54 447.115L671.522 447.564C671.517 447.76 671.516 447.937 671.512 448.134L671.51 448.507C671.511 448.685 671.516 448.843 671.521 449.001C671.525 449.16 671.527 449.219 671.535 449.299C671.543 449.379 671.558 449.579 671.571 449.72C671.584 449.86 671.584 449.879 671.594 449.94C671.617 450.101 671.65 450.225 671.684 450.33C671.689 450.34 671.695 450.341 671.703 450.333C671.938 451.042 672.393 450.554 673.012 448.93C673.842 446.754 674.905 442.699 675.973 437.64Z" fill="#007681"/>
<path d="M1422.42 456.78C1422.41 455.242 1422.39 453.646 1422.35 452.018C1422.27 448.728 1422.14 445.366 1421.96 442.158C1421.79 438.951 1421.57 435.973 1421.33 433.423C1421.14 431.518 1420.95 429.873 1420.75 428.549C1420.69 428.146 1420.63 427.775 1420.57 427.44C1420.38 426.402 1420.19 425.685 1420.01 425.313C1419.77 424.841 1419.55 424.972 1419.36 425.696C1419.17 426.42 1419.01 427.724 1418.89 429.534C1418.77 431.344 1418.7 433.624 1418.68 436.244C1418.65 438.864 1418.68 441.772 1418.75 444.803L1418.75 444.911C1418.77 445.597 1418.79 446.282 1418.81 446.947L1418.88 449.091L1418.92 450.099L1418.97 451.32L1419.01 452.285L1419.07 453.506L1419.12 454.405L1419.19 455.648L1419.24 456.462L1419.33 457.855L1419.36 458.454C1419.41 459.096 1419.46 459.717 1419.5 460.337L1419.53 460.68C1419.57 461.172 1419.61 461.665 1419.65 462.136L1419.7 462.714C1419.74 463.077 1419.77 463.462 1419.81 463.804L1419.87 464.425L1419.97 465.344C1419.99 465.555 1420.01 465.754 1420.04 465.943L1420.13 466.776C1420.16 466.947 1420.18 467.14 1420.21 467.311C1420.23 467.481 1420.27 467.801 1420.31 468.036L1420.38 468.527C1420.41 468.741 1420.45 468.933 1420.48 469.146L1420.56 469.552C1420.59 469.743 1420.63 469.914 1420.66 470.084C1420.7 470.255 1420.71 470.319 1420.73 470.404C1420.76 470.489 1420.81 470.702 1420.85 470.851C1420.89 471 1420.89 471.021 1420.91 471.085C1420.97 471.255 1421.02 471.382 1421.07 471.487C1421.08 471.497 1421.08 471.497 1421.09 471.486C1421.44 472.202 1421.76 471.571 1421.99 469.673C1422.31 467.13 1422.46 462.5 1422.42 456.78Z" fill="#92CFB5"/>
<path d="M1738.76 475.398C1738.08 476.413 1737.44 477.496 1736.86 478.63C1735.7 480.923 1734.79 483.383 1734.21 485.845C1733.62 488.306 1733.37 490.712 1733.47 492.901C1733.55 494.536 1733.81 496.03 1734.26 497.327C1734.4 497.723 1734.55 498.099 1734.72 498.452C1735.26 499.546 1735.95 500.43 1736.76 501.078C1737.83 501.91 1739.09 502.317 1740.48 502.278C1741.88 502.238 1743.37 501.752 1744.88 500.847C1746.39 499.941 1747.89 498.635 1749.29 497.001C1750.69 495.368 1751.96 493.44 1753.04 491.328L1753.07 491.25C1753.27 490.754 1753.54 490.287 1753.75 489.813L1754.37 488.264L1754.67 487.536L1754.97 486.633L1755.2 485.915L1755.47 484.994L1755.64 484.309L1755.86 483.352L1755.99 482.719L1756.18 481.622L1756.25 481.148C1756.32 480.635 1756.36 480.131 1756.41 479.627L1756.41 479.341C1756.44 478.936 1756.46 478.532 1756.47 478.136L1756.46 477.645C1756.44 477.334 1756.45 477.011 1756.43 476.715L1756.38 476.173L1756.29 475.362C1756.27 475.175 1756.24 474.995 1756.2 474.822L1756.06 474.063C1756.02 473.901 1755.98 473.724 1755.93 473.559C1755.88 473.393 1755.8 473.092 1755.73 472.867L1755.57 472.387C1755.49 472.174 1755.39 471.972 1755.3 471.756L1755.11 471.334C1755 471.129 1754.89 470.94 1754.78 470.751C1754.67 470.562 1754.62 470.491 1754.54 470.385C1754.45 470.278 1754.27 470.023 1754.13 469.839C1753.98 469.654 1753.97 469.632 1753.89 469.545C1753.68 469.317 1753.45 469.115 1753.22 468.931C1753.19 468.911 1753.16 468.898 1753.12 468.893C1751.55 467.646 1749.53 467.352 1747.33 468.05C1744.38 468.983 1741.3 471.622 1738.76 475.398Z" fill="#007681"/>
<path fill-rule="evenodd" clip-rule="evenodd" d="M143.294 601.841L142.155 612.373L142.155 612.373L141.085 622.244L131.407 614.066L131.407 614.066L127.689 610.92L144.364 591.97L143.748 597.65L143.749 597.648L143.749 597.649L143.294 601.841L143.294 601.841Z" fill="#CF4C84"/>
<path d="M638.779 635.438C639.082 635.843 639.407 636.235 639.732 636.629C641.745 639.087 644.242 641.107 647.067 642.562C649.892 644.017 652.985 644.877 656.156 645.088C661.441 645.44 666.687 643.977 671.026 640.939C674.576 638.449 677.359 635.014 679.059 631.024C680.6 627.428 681.209 623.502 680.83 619.608C680.451 615.714 679.096 611.978 676.89 608.746L638.779 635.438Z" fill="#92CFB5"/>
<path d="M962.56 694.383C962.713 695.422 962.881 696.498 963.061 697.595C963.426 699.812 963.834 702.073 964.258 704.224C964.682 706.376 965.112 708.369 965.52 710.069C965.824 711.34 966.111 712.433 966.371 713.309C966.451 713.576 966.528 713.821 966.601 714.042C966.828 714.725 967.024 715.192 967.183 715.427C967.387 715.723 967.524 715.614 967.584 715.106C967.645 714.598 967.628 713.701 967.535 712.467C967.442 711.232 967.275 709.684 967.043 707.91C966.811 706.137 966.518 704.173 966.182 702.131L966.169 702.058C966.088 701.597 966.015 701.134 965.938 700.687L965.684 699.245L965.564 698.566L965.413 697.746L965.292 697.098L965.136 696.278L965.019 695.674L964.853 694.841L964.743 694.295L964.551 693.362L964.467 692.961C964.376 692.531 964.286 692.116 964.195 691.7L964.143 691.471C964.07 691.142 963.997 690.813 963.924 690.499L963.833 690.113C963.775 689.87 963.716 689.614 963.661 689.385L963.559 688.972L963.405 688.359C963.37 688.219 963.336 688.087 963.302 687.962L963.156 687.407C963.124 687.294 963.089 687.166 963.056 687.053C963.024 686.94 962.965 686.728 962.92 686.572L962.824 686.247C962.78 686.106 962.739 685.979 962.695 685.838L962.608 685.571C962.565 685.445 962.525 685.333 962.484 685.221C962.444 685.109 962.429 685.067 962.405 685.012C962.382 684.957 962.326 684.817 962.285 684.72C962.244 684.624 962.24 684.61 962.219 684.569C962.168 684.459 962.119 684.378 962.074 684.312C962.069 684.306 962.065 684.306 962.062 684.314C961.756 683.864 961.605 684.32 961.626 685.625C961.654 687.374 961.989 690.52 962.56 694.383Z" fill="#92CFB5"/>
<path d="M74.9486 854.529C76.3069 854.134 77.6956 853.675 79.0931 853.162C81.9174 852.121 84.7258 850.872 87.3291 849.496C89.9323 848.121 92.2703 846.652 94.1856 845.189C95.618 844.096 96.8 843.022 97.688 842.005C97.958 841.694 98.1982 841.389 98.4075 841.092C99.053 840.173 99.4132 839.332 99.4763 838.595C99.548 837.642 99.1056 836.888 98.1761 836.375C97.2465 835.861 95.8472 835.599 94.058 835.603C92.2687 835.607 90.1251 835.877 87.7488 836.398C85.3725 836.919 82.8109 837.681 80.2096 838.64L80.1189 838.678C79.5417 838.923 78.9463 839.124 78.3825 839.35L76.5788 840.116L75.7307 840.476L74.717 840.945L73.9191 841.323L72.9172 841.82L72.1833 842.197L71.1769 842.735L70.5223 843.098L69.4102 843.739L68.9338 844.02C68.4256 844.327 67.9403 844.638 67.4548 844.948L67.1918 845.132C66.8098 845.385 66.4275 845.639 66.0683 845.896L65.6306 846.219C65.3568 846.426 65.0631 846.636 64.8074 846.836L64.3476 847.207L63.6704 847.769C63.5158 847.899 63.3719 848.027 63.2385 848.154L62.6405 848.702C62.522 848.824 62.3855 848.954 62.2694 849.081C62.1533 849.209 61.93 849.434 61.7692 849.607L61.4389 849.982C61.2984 850.153 61.1783 850.321 61.0402 850.498L60.7845 850.848C60.6668 851.022 60.5671 851.188 60.4674 851.354C60.3677 851.521 60.3302 851.582 60.2886 851.685C60.247 851.787 60.1339 852.025 60.0593 852.2C59.9847 852.375 59.9716 852.394 59.9456 852.483C59.8718 852.71 59.8388 852.933 59.8214 853.143C59.8215 853.167 59.8302 853.187 59.8472 853.204C59.7289 854.625 60.7554 855.595 62.7978 855.992C65.5361 856.528 69.9003 856.002 74.9486 854.529Z" fill="#007681"/>
<path fill-rule="evenodd" clip-rule="evenodd" d="M587.368 740.404L587.369 740.402L585.82 744.849L581.936 756.022L578.292 766.494L578.291 766.493L569.816 755.165L587.366 740.405L587.366 740.403L587.368 740.402L587.368 740.404ZM587.366 740.403L569.815 755.165L566.56 750.807L589.464 734.377L587.366 740.403Z" fill="#CF4C84"/>
<path d="M746.531 975.319C745.958 975.62 745.397 975.953 744.835 976.285C741.325 978.337 738.273 981.087 735.868 984.366C733.464 987.645 731.758 991.383 730.856 995.348C729.353 1001.96 730.153 1008.88 733.123 1014.97C735.56 1019.96 739.344 1024.16 744.046 1027.11C748.282 1029.78 753.122 1031.33 758.12 1031.63C763.117 1031.93 768.109 1030.97 772.635 1028.83L746.531 975.319Z" fill="#92CFB5"/>
<path fill-rule="evenodd" clip-rule="evenodd" d="M1277.13 929.908L1275.24 929.5L1279.94 930.517L1279.94 930.517L1279.94 930.517L1279.94 930.516L1286.31 931.892L1266.8 910.708L1262.78 914.552L1262.78 914.552L1252.35 924.559L1263.42 926.951L1275.24 929.499L1277.13 929.908Z" fill="#CF4C84"/>
<path fill-rule="evenodd" clip-rule="evenodd" d="M1359.71 802.306L1359.93 804.691L1359.23 797.103L1359.22 797.104L1359.22 797.102L1359.22 797.106L1358.27 786.825L1345.92 831.848L1350.76 834.565L1350.76 834.566L1363.35 841.616L1361.69 823.75L1359.93 804.691L1359.71 802.306Z" fill="#CF4C84"/>
<path d="M80.0732 980.535C79.6217 980.377 79.1587 980.241 78.6957 980.105C75.8155 979.241 72.7887 978.978 69.8027 979.331C66.8166 979.684 63.9348 980.647 61.3356 982.158C57.0036 984.678 53.6625 988.603 51.8658 993.281C50.3986 997.114 50.033 1001.28 50.8105 1005.31C51.5044 1008.95 53.1044 1012.35 55.4621 1015.2C57.8199 1018.06 60.8594 1020.27 64.2995 1021.64L80.0732 980.535Z" fill="#92CFB5"/>
<path fill-rule="evenodd" clip-rule="evenodd" d="M554.609 975.158L554.608 975.157L558.936 976.071L569.808 978.362L579.998 980.512L579.997 980.512L574.329 985.714L554.611 975.159L554.611 975.159L554.609 975.158L554.609 975.158ZM554.611 975.159L574.329 985.714L572.147 987.713L548.747 973.922L554.611 975.159Z" fill="#CF4C84"/>
<path fill-rule="evenodd" clip-rule="evenodd" d="M638.415 928.137L638.415 928.137L635.485 923.838L628.121 913.043L621.22 902.923L621.22 902.923L631.07 902.967L638.414 928.134L638.414 928.134L638.415 928.137L638.415 928.137ZM638.414 928.134L631.07 902.967L634.859 902.988L642.386 933.959L638.414 928.134Z" fill="#CF4C84"/>
<path fill-rule="evenodd" clip-rule="evenodd" d="M951.237 920.851L951.236 920.85L960.029 920.961L982.113 921.23L1002.81 921.487L1002.81 921.488L993.205 935.083L951.242 920.852L951.241 920.852L951.236 920.851L951.237 920.851ZM951.241 920.852L993.205 935.083L989.503 940.307L939.328 920.704L951.241 920.852Z" fill="#CF4C84"/>
<path fill-rule="evenodd" clip-rule="evenodd" d="M1263.94 813.508L1263.94 813.508L1269.29 806.536L1282.74 789.018L1295.36 772.6L1295.36 772.6L1300.48 788.439L1263.94 813.505L1263.94 813.505L1263.94 813.508L1263.94 813.508ZM1263.94 813.505L1300.48 788.439L1302.44 794.533L1256.68 822.954L1263.94 813.505Z" fill="#CF4C84"/>
<path d="M1134.84 901.583C1134.73 901.843 1134.64 902.113 1134.55 902.383C1133.97 904.062 1133.82 905.926 1134.12 907.862C1134.42 909.798 1135.16 911.764 1136.29 913.638C1138.17 916.761 1141.05 919.481 1144.45 921.346C1147.23 922.87 1150.24 923.754 1153.14 923.896C1155.75 924.029 1158.18 923.555 1160.2 922.517C1162.22 921.48 1163.77 919.913 1164.71 917.961L1134.84 901.583Z" fill="#92CFB5"/>
<path d="M1358.54 654.98C1358.68 655.221 1358.84 655.456 1359.01 655.691C1360 657.162 1361.41 658.395 1363.14 659.316C1364.87 660.237 1366.88 660.826 1369.06 661.045C1372.69 661.411 1376.59 660.736 1380.12 659.132C1383.01 657.816 1385.52 655.936 1387.37 653.705C1389.04 651.694 1390.11 649.465 1390.5 647.224C1390.88 644.983 1390.55 642.802 1389.55 640.883L1358.54 654.98Z" fill="#92CFB5"/>
<path fill-rule="evenodd" clip-rule="evenodd" d="M1397.16 1033.47L1397.17 1033.46L1391.07 1038.63L1375.77 1051.6L1361.43 1063.76L1361.43 1063.76L1359.91 1048.72L1397.15 1033.47L1397.16 1033.46L1397.16 1033.46L1397.16 1033.47ZM1397.16 1033.46L1359.91 1048.72L1359.33 1042.93L1405.41 1026.47L1397.16 1033.46Z" fill="#CF4C84"/>
<path fill-rule="evenodd" clip-rule="evenodd" d="M1621.61 528.809L1621.8 531.992L1621.32 524.019L1621.32 524.021L1621.32 524.019L1621.32 524.022L1620.66 513.221L1606.23 559.975L1611.21 562.982L1611.21 562.982L1624.16 570.786L1623.02 552.016L1621.8 531.992L1621.61 528.809Z" fill="#CF4C84"/>
<path fill-rule="evenodd" clip-rule="evenodd" d="M1623.53 997.346L1622.33 999.722L1625.1 994.258L1625.1 994.259L1625.1 994.258L1625.09 994.259L1628.84 986.854L1596.33 1003.72L1599.8 1010L1599.8 1010L1608.86 1026.32L1615.38 1013.45L1622.33 999.723L1623.53 997.346Z" fill="#CF4C84"/>
<path d="M326.034 1058.08C327.274 1058.62 328.576 1059.14 329.917 1059.63C332.63 1060.6 335.461 1061.41 338.218 1062.01C340.975 1062.6 343.595 1062.96 345.901 1063.07C347.625 1063.15 349.154 1063.09 350.432 1062.89C350.821 1062.83 351.185 1062.75 351.521 1062.66C352.561 1062.38 353.343 1061.99 353.843 1061.49C354.482 1060.83 354.622 1060.01 354.256 1059.06C353.891 1058.11 353.025 1057.05 351.71 1055.95C350.394 1054.86 348.655 1053.73 346.59 1052.65C344.526 1051.57 342.177 1050.55 339.678 1049.66L339.588 1049.63C339.013 1049.45 338.453 1049.23 337.9 1049.05L336.105 1048.5L335.261 1048.25L334.228 1047.97L333.41 1047.75L332.369 1047.5L331.598 1047.32L330.528 1047.1L329.825 1046.96L328.614 1046.75L328.091 1046.66C327.529 1046.57 326.982 1046.5 326.435 1046.43L326.129 1046.4C325.692 1046.36 325.255 1046.31 324.834 1046.27L324.314 1046.24C323.985 1046.22 323.64 1046.2 323.33 1046.19L322.764 1046.18L321.921 1046.17C321.727 1046.17 321.543 1046.18 321.366 1046.19L320.591 1046.22C320.428 1046.24 320.248 1046.25 320.085 1046.27C319.921 1046.29 319.618 1046.32 319.394 1046.35L318.92 1046.42C318.712 1046.46 318.52 1046.51 318.311 1046.55L317.907 1046.65C317.714 1046.71 317.538 1046.77 317.363 1046.83C317.187 1046.89 317.122 1046.91 317.028 1046.96C316.934 1047.01 316.705 1047.12 316.543 1047.2C316.38 1047.28 316.359 1047.29 316.285 1047.34C316.091 1047.46 315.929 1047.6 315.787 1047.75C315.773 1047.76 315.767 1047.78 315.769 1047.81C314.807 1048.78 314.963 1050.12 316.217 1051.67C317.897 1053.75 321.423 1056.05 326.034 1058.08Z" fill="#007681"/>
<path fill-rule="evenodd" clip-rule="evenodd" d="M374.53 1135.65L374.53 1135.65L373.12 1130.49L369.575 1117.53L366.254 1105.38L366.254 1105.38L375.815 1108.72L374.53 1135.64L374.53 1135.64L374.53 1135.65L374.53 1135.65ZM374.53 1135.64L375.815 1108.72L379.491 1110.01L376.441 1142.63L374.53 1135.64Z" fill="#CF4C84"/>
<path d="M665.874 1145.81C665.143 1145.15 664.354 1144.53 663.518 1143.94C661.826 1142.76 659.972 1141.76 658.081 1141.02C656.19 1140.28 654.306 1139.82 652.556 1139.65C651.248 1139.53 650.031 1139.57 648.951 1139.78C648.62 1139.85 648.305 1139.93 648.004 1140.03C647.076 1140.33 646.296 1140.78 645.691 1141.35C644.91 1142.1 644.446 1143.06 644.321 1144.18C644.197 1145.29 644.417 1146.53 644.967 1147.83C645.518 1149.13 646.389 1150.47 647.531 1151.76C648.672 1153.06 650.062 1154.29 651.621 1155.37L651.679 1155.41C652.051 1155.62 652.393 1155.89 652.745 1156.11L653.906 1156.78L654.452 1157.09L655.136 1157.44L655.681 1157.7L656.383 1158.01L656.907 1158.23L657.643 1158.51L658.132 1158.68L658.983 1158.95L659.352 1159.06C659.752 1159.18 660.147 1159.27 660.543 1159.36L660.769 1159.4C661.088 1159.46 661.407 1159.53 661.721 1159.57L662.112 1159.62C662.361 1159.64 662.618 1159.68 662.855 1159.7L663.291 1159.72L663.945 1159.74C664.096 1159.75 664.242 1159.74 664.384 1159.73L665.003 1159.71C665.136 1159.69 665.281 1159.68 665.418 1159.66C665.555 1159.64 665.803 1159.61 665.99 1159.58L666.389 1159.5C666.568 1159.46 666.739 1159.41 666.921 1159.36L667.278 1159.25C667.453 1159.19 667.615 1159.12 667.778 1159.06C667.941 1158.99 668.002 1158.96 668.096 1158.91C668.19 1158.85 668.414 1158.73 668.576 1158.64C668.738 1158.55 668.757 1158.54 668.836 1158.48C669.039 1158.35 669.227 1158.18 669.399 1158.02C669.418 1158 669.432 1157.97 669.44 1157.95C670.607 1156.84 671.064 1155.27 670.756 1153.44C670.344 1150.99 668.591 1148.25 665.874 1145.81Z" fill="#007681"/>
<path d="M861.508 1116.49C861.562 1117.74 861.649 1119.03 861.767 1120.34C862.007 1122.99 862.369 1125.68 862.829 1128.24C863.289 1130.79 863.837 1133.15 864.436 1135.16C864.882 1136.66 865.35 1137.95 865.822 1138.97C865.967 1139.28 866.112 1139.57 866.256 1139.82C866.703 1140.62 867.141 1141.15 867.557 1141.41C868.096 1141.73 868.587 1141.57 869.001 1140.94C869.414 1140.31 869.743 1139.21 869.969 1137.71C870.194 1136.22 870.311 1134.35 870.314 1132.22C870.316 1130.09 870.204 1127.74 869.983 1125.3L869.972 1125.21C869.905 1124.66 869.865 1124.11 869.806 1123.57L869.595 1121.85L869.496 1121.05L869.355 1120.07L869.239 1119.3L869.08 1118.32L868.957 1117.6L868.775 1116.61L868.65 1115.97L868.422 1114.86L868.321 1114.38C868.209 1113.87 868.092 1113.38 867.975 1112.89L867.903 1112.62C867.806 1112.23 867.708 1111.84 867.606 1111.47L867.476 1111.01C867.391 1110.73 867.308 1110.42 867.225 1110.15L867.07 1109.67L866.833 1108.94C866.778 1108.78 866.722 1108.62 866.666 1108.48L866.427 1107.82C866.372 1107.69 866.315 1107.54 866.256 1107.41C866.197 1107.28 866.096 1107.03 866.017 1106.85L865.843 1106.47C865.763 1106.3 865.681 1106.15 865.597 1105.99L865.428 1105.68C865.343 1105.53 865.26 1105.4 865.177 1105.27C865.094 1105.14 865.063 1105.1 865.01 1105.03C864.956 1104.97 864.834 1104.81 864.742 1104.7C864.651 1104.59 864.642 1104.57 864.594 1104.52C864.472 1104.4 864.348 1104.31 864.23 1104.24C864.216 1104.23 864.203 1104.23 864.192 1104.24C863.389 1103.75 862.7 1104.34 862.211 1105.93C861.555 1108.07 861.302 1111.87 861.508 1116.49Z" fill="#007681"/>
<path fill-rule="evenodd" clip-rule="evenodd" d="M1211.32 1149.45L1211.32 1149.45L1210.43 1156.06L1208.18 1172.66L1206.08 1188.21L1206.08 1188.21L1196.73 1179.73L1211.32 1149.46L1211.32 1149.46L1211.32 1149.45L1211.32 1149.45ZM1211.32 1149.46L1196.73 1179.73L1193.14 1176.46L1212.53 1140.5L1211.32 1149.46Z" fill="#CF4C84"/>
<path d="M1331.81 1062.88C1331.51 1061.63 1331.17 1060.33 1330.82 1059.02C1330.1 1056.36 1329.31 1053.66 1328.5 1051.1C1327.69 1048.53 1326.87 1046.17 1326.12 1044.16C1325.55 1042.66 1325.02 1041.38 1324.55 1040.36C1324.4 1040.04 1324.26 1039.76 1324.13 1039.5C1323.72 1038.71 1323.38 1038.18 1323.11 1037.93C1322.76 1037.61 1322.54 1037.78 1322.47 1038.43C1322.4 1039.07 1322.48 1040.18 1322.7 1041.69C1322.92 1043.19 1323.27 1045.07 1323.75 1047.21C1324.23 1049.35 1324.81 1051.72 1325.48 1054.16L1325.5 1054.25C1325.66 1054.8 1325.8 1055.36 1325.95 1055.89L1326.45 1057.62L1326.68 1058.43L1326.97 1059.41L1327.2 1060.18L1327.51 1061.16L1327.73 1061.88L1328.05 1062.87L1328.26 1063.52L1328.62 1064.63L1328.78 1065.11C1328.95 1065.62 1329.12 1066.11 1329.29 1066.6L1329.39 1066.87C1329.53 1067.26 1329.67 1067.65 1329.8 1068.03L1329.97 1068.48C1330.08 1068.77 1330.19 1069.07 1330.29 1069.34L1330.48 1069.83L1330.77 1070.55C1330.83 1070.71 1330.9 1070.87 1330.96 1071.02L1331.23 1071.67C1331.28 1071.8 1331.35 1071.95 1331.41 1072.08C1331.47 1072.22 1331.58 1072.46 1331.66 1072.65L1331.83 1073.02C1331.91 1073.19 1331.99 1073.34 1332.07 1073.5L1332.22 1073.81C1332.3 1073.96 1332.37 1074.08 1332.44 1074.21C1332.51 1074.34 1332.54 1074.39 1332.58 1074.45C1332.62 1074.51 1332.72 1074.67 1332.8 1074.78C1332.87 1074.89 1332.88 1074.91 1332.91 1074.96C1333 1075.08 1333.09 1075.17 1333.16 1075.24C1333.17 1075.24 1333.18 1075.24 1333.18 1075.23C1333.71 1075.72 1333.93 1075.11 1333.82 1073.5C1333.68 1071.34 1332.96 1067.52 1331.81 1062.88Z" fill="#007681"/>
<path d="M1605.71 593.953C1604.52 593.45 1603.29 592.943 1602.02 592.439C1599.47 591.42 1596.83 590.435 1594.29 589.548C1591.76 588.661 1589.38 587.895 1587.32 587.299C1585.77 586.853 1584.43 586.507 1583.33 586.274C1582.99 586.203 1582.68 586.143 1582.4 586.095C1581.52 585.948 1580.89 585.907 1580.52 585.974C1580.06 586.064 1580.07 586.339 1580.54 586.781C1581.01 587.224 1581.94 587.826 1583.28 588.554C1584.62 589.281 1586.34 590.119 1588.34 591.021C1590.34 591.922 1592.58 592.869 1594.94 593.807L1595.02 593.839C1595.56 594.043 1596.09 594.26 1596.61 594.461L1598.29 595.099L1599.08 595.399L1600.03 595.752L1600.79 596.029L1601.76 596.374L1602.47 596.626L1603.45 596.968L1604.1 597.188L1605.2 597.56L1605.68 597.719C1606.19 597.887 1606.69 598.046 1607.18 598.204L1607.46 598.288C1607.85 598.412 1608.25 598.536 1608.63 598.649L1609.09 598.787C1609.39 598.872 1609.7 598.966 1609.97 599.045L1610.48 599.185L1611.23 599.39C1611.4 599.437 1611.56 599.479 1611.71 599.517L1612.4 599.692C1612.54 599.725 1612.7 599.764 1612.84 599.795C1612.98 599.827 1613.24 599.889 1613.44 599.933L1613.85 600.02C1614.02 600.056 1614.19 600.084 1614.37 600.118L1614.71 600.178C1614.87 600.204 1615.02 600.224 1615.16 600.243C1615.31 600.263 1615.36 600.27 1615.44 600.275C1615.51 600.279 1615.7 600.295 1615.83 600.303C1615.96 600.312 1615.98 600.315 1616.04 600.314C1616.19 600.315 1616.31 600.301 1616.42 600.282C1616.43 600.279 1616.43 600.273 1616.42 600.263C1617.12 600.133 1616.77 599.594 1615.42 598.713C1613.6 597.532 1610.12 595.822 1605.71 593.953Z" fill="#007681"/>
<path fill-rule="evenodd" clip-rule="evenodd" d="M1674.57 1088.22L1674.19 1087.96L1677.06 1089.91L1677.06 1089.91L1677.06 1089.91L1680.95 1092.55L1673.63 1073.13L1669.9 1074.61L1669.9 1074.61L1660.23 1078.48L1666.98 1083.07L1674.19 1087.96L1674.57 1088.22Z" fill="#CF4C84"/>
<path d="M312.705 1182.67C312.088 1184.28 311.557 1185.96 311.123 1187.7C310.249 1191.22 309.785 1194.88 309.762 1198.44C309.74 1202 310.159 1205.38 310.992 1208.34C311.612 1210.56 312.448 1212.53 313.471 1214.17C313.785 1214.66 314.118 1215.13 314.466 1215.56C315.548 1216.89 316.77 1217.89 318.092 1218.52C319.813 1219.32 321.675 1219.48 323.573 1218.98C325.471 1218.49 327.367 1217.35 329.153 1215.63C330.939 1213.91 332.58 1211.64 333.981 1208.96C335.383 1206.28 336.519 1203.23 337.323 1199.99L337.341 1199.88C337.459 1199.13 337.679 1198.41 337.818 1197.69L338.186 1195.37L338.359 1194.28L338.492 1192.94L338.581 1191.88L338.65 1190.54L338.677 1189.54L338.674 1188.16L338.647 1187.25L338.555 1185.69L338.505 1185.02C338.436 1184.29 338.339 1183.59 338.241 1182.88L338.16 1182.49C338.066 1181.92 337.972 1181.36 337.849 1180.82L337.68 1180.15C337.564 1179.72 337.464 1179.28 337.345 1178.88L337.107 1178.15L336.729 1177.07C336.64 1176.82 336.542 1176.58 336.436 1176.36L336.006 1175.36C335.895 1175.15 335.788 1174.92 335.664 1174.71C335.54 1174.5 335.34 1174.11 335.176 1173.82L334.802 1173.22C334.622 1172.95 334.425 1172.7 334.232 1172.44L333.83 1171.92C333.621 1171.67 333.408 1171.45 333.195 1171.22C332.982 1171 332.903 1170.92 332.752 1170.8C332.601 1170.68 332.268 1170.39 332.013 1170.18C331.758 1169.97 331.736 1169.95 331.594 1169.85C331.241 1169.6 330.854 1169.4 330.477 1169.22C330.432 1169.2 330.385 1169.2 330.337 1169.2C327.782 1167.99 324.928 1168.22 322.133 1169.88C318.381 1172.09 314.994 1176.68 312.705 1182.67Z" fill="#007681"/>
<path d="M731.435 1307.9C731.448 1307.57 731.444 1307.24 731.441 1306.91C731.43 1304.86 730.998 1302.84 730.172 1300.96C729.347 1299.08 728.145 1297.4 726.641 1296C724.134 1293.68 720.909 1292.28 717.501 1292.05C714.709 1291.85 711.92 1292.44 709.448 1293.76C707.215 1294.93 705.315 1296.65 703.924 1298.76C702.533 1300.87 701.696 1303.29 701.49 1305.81L731.435 1307.9Z" fill="#92CFB5"/>
<path d="M1013.1 1194.86C1012.04 1193.92 1010.95 1192.97 1009.82 1192C1007.54 1190.04 1005.18 1188.07 1002.89 1186.23C1000.61 1184.39 998.45 1182.72 996.571 1181.33C995.166 1180.28 993.93 1179.41 992.91 1178.74C992.599 1178.53 992.311 1178.35 992.045 1178.18C991.224 1177.68 990.622 1177.37 990.258 1177.26C989.793 1177.14 989.747 1177.37 990.122 1177.94C990.497 1178.51 991.285 1179.42 992.443 1180.6C993.6 1181.79 995.103 1183.23 996.866 1184.85C998.629 1186.47 1000.62 1188.23 1002.72 1190.03L1002.79 1190.09C1003.27 1190.5 1003.75 1190.91 1004.21 1191.3L1005.71 1192.56L1006.42 1193.15L1007.28 1193.86L1007.96 1194.43L1008.83 1195.13L1009.46 1195.65L1010.35 1196.36L1010.93 1196.83L1011.93 1197.62L1012.36 1197.96C1012.83 1198.32 1013.28 1198.67 1013.73 1199.01L1013.98 1199.2C1014.33 1199.48 1014.69 1199.75 1015.04 1200.01L1015.46 1200.33C1015.73 1200.53 1016.01 1200.74 1016.27 1200.93L1016.73 1201.26L1017.41 1201.76C1017.57 1201.87 1017.72 1201.98 1017.86 1202.08L1018.48 1202.52C1018.61 1202.61 1018.76 1202.71 1018.89 1202.8C1019.02 1202.89 1019.26 1203.05 1019.44 1203.17L1019.82 1203.42C1019.99 1203.53 1020.14 1203.63 1020.31 1203.73L1020.63 1203.93C1020.78 1204.02 1020.91 1204.1 1021.05 1204.18C1021.19 1204.26 1021.24 1204.29 1021.31 1204.33C1021.38 1204.37 1021.56 1204.46 1021.69 1204.52C1021.81 1204.59 1021.83 1204.6 1021.89 1204.62C1022.03 1204.69 1022.15 1204.73 1022.26 1204.76C1022.27 1204.76 1022.27 1204.76 1022.27 1204.75C1022.97 1204.95 1022.73 1204.35 1021.58 1203.03C1020.05 1201.26 1017 1198.33 1013.1 1194.86Z" fill="#007681"/>
<path d="M1175.71 1268.12C1176.78 1268.7 1177.9 1269.28 1179.05 1269.84C1181.39 1270.97 1183.83 1272.02 1186.2 1272.92C1188.57 1273.82 1190.82 1274.55 1192.8 1275.06C1194.28 1275.44 1195.59 1275.69 1196.68 1275.81C1197.02 1275.85 1197.33 1275.87 1197.62 1275.88C1198.51 1275.9 1199.17 1275.81 1199.6 1275.59C1200.14 1275.3 1200.25 1274.81 1199.93 1274.14C1199.61 1273.48 1198.85 1272.65 1197.72 1271.71C1196.58 1270.77 1195.07 1269.73 1193.29 1268.66C1191.51 1267.59 1189.49 1266.5 1187.33 1265.46L1187.26 1265.42C1186.76 1265.2 1186.28 1264.96 1185.8 1264.74L1184.26 1264.05L1183.53 1263.73L1182.64 1263.35L1181.94 1263.06L1181.04 1262.7L1180.38 1262.45L1179.46 1262.1L1178.86 1261.88L1177.81 1261.51L1177.37 1261.36C1176.88 1261.2 1176.41 1261.05 1175.94 1260.9L1175.68 1260.82C1175.3 1260.71 1174.93 1260.59 1174.57 1260.49L1174.12 1260.37C1173.84 1260.3 1173.54 1260.21 1173.28 1260.15L1172.79 1260.03L1172.07 1259.87C1171.9 1259.83 1171.74 1259.8 1171.59 1259.77L1170.93 1259.65C1170.79 1259.63 1170.63 1259.6 1170.49 1259.58C1170.35 1259.56 1170.09 1259.52 1169.9 1259.5L1169.5 1259.45C1169.32 1259.44 1169.15 1259.43 1168.97 1259.42L1168.63 1259.4C1168.46 1259.4 1168.31 1259.4 1168.16 1259.41C1168.01 1259.41 1167.96 1259.41 1167.88 1259.43C1167.8 1259.44 1167.6 1259.46 1167.46 1259.48C1167.32 1259.5 1167.31 1259.5 1167.24 1259.52C1167.08 1259.56 1166.94 1259.62 1166.82 1259.68C1166.81 1259.69 1166.8 1259.7 1166.8 1259.71C1165.99 1260.14 1166.13 1261.01 1167.22 1262.22C1168.68 1263.85 1171.73 1265.97 1175.71 1268.12Z" fill="#007681"/>
<path d="M1273.36 1289.48C1273.28 1288.26 1273.18 1286.99 1273.07 1285.69C1272.83 1283.08 1272.54 1280.41 1272.2 1277.87C1271.86 1275.32 1271.49 1272.97 1271.11 1270.96C1270.83 1269.45 1270.54 1268.16 1270.27 1267.12C1270.18 1266.8 1270.1 1266.51 1270.02 1266.25C1269.77 1265.44 1269.53 1264.89 1269.32 1264.6C1269.04 1264.25 1268.81 1264.37 1268.64 1264.96C1268.46 1265.56 1268.35 1266.61 1268.31 1268.06C1268.26 1269.52 1268.29 1271.34 1268.38 1273.43C1268.48 1275.52 1268.64 1277.84 1268.85 1280.25L1268.86 1280.33C1268.92 1280.88 1268.96 1281.42 1269.01 1281.95L1269.19 1283.65L1269.28 1284.46L1269.39 1285.42L1269.48 1286.19L1269.6 1287.16L1269.69 1287.87L1269.82 1288.86L1269.91 1289.5L1270.07 1290.6L1270.14 1291.08C1270.22 1291.59 1270.3 1292.08 1270.38 1292.57L1270.43 1292.84C1270.49 1293.23 1270.55 1293.62 1270.62 1293.99L1270.7 1294.44C1270.76 1294.73 1270.81 1295.04 1270.86 1295.31L1270.96 1295.79L1271.11 1296.52C1271.14 1296.69 1271.18 1296.84 1271.21 1296.99L1271.36 1297.65C1271.39 1297.78 1271.42 1297.93 1271.46 1298.07C1271.49 1298.2 1271.55 1298.45 1271.6 1298.64L1271.7 1299.02C1271.75 1299.19 1271.79 1299.34 1271.84 1299.51L1271.94 1299.82C1271.98 1299.97 1272.03 1300.11 1272.08 1300.24C1272.12 1300.37 1272.14 1300.42 1272.17 1300.49C1272.2 1300.55 1272.26 1300.72 1272.31 1300.83C1272.36 1300.95 1272.37 1300.97 1272.39 1301.01C1272.46 1301.15 1272.52 1301.24 1272.58 1301.32C1272.59 1301.33 1272.6 1301.33 1272.6 1301.32C1273.01 1301.86 1273.32 1301.33 1273.49 1299.8C1273.71 1297.74 1273.67 1294.04 1273.36 1289.48Z" fill="#007681"/>
<path d="M1530.72 1218.86C1530.67 1218.62 1530.6 1218.38 1530.54 1218.14C1530.14 1216.66 1529.34 1215.25 1528.19 1214C1527.04 1212.76 1525.56 1211.7 1523.84 1210.9C1520.98 1209.57 1517.6 1209.01 1514.25 1209.32C1511.52 1209.58 1508.93 1210.4 1506.78 1211.7C1504.84 1212.87 1503.33 1214.38 1502.38 1216.11C1501.43 1217.83 1501.07 1219.71 1501.35 1221.56L1530.72 1218.86Z" fill="#92CFB5"/>
<path d="M1603.86 806.918C1604.68 807.75 1605.54 808.605 1606.42 809.471C1608.2 811.221 1610.05 812.982 1611.84 814.634C1613.63 816.287 1615.32 817.793 1616.8 819.051C1617.91 819.992 1618.88 820.785 1619.69 821.401C1619.94 821.588 1620.17 821.757 1620.38 821.908C1621.03 822.372 1621.51 822.662 1621.81 822.768C1622.18 822.9 1622.24 822.713 1621.96 822.217C1621.68 821.722 1621.08 820.929 1620.18 819.882C1619.29 818.835 1618.12 817.555 1616.75 816.116C1615.38 814.677 1613.83 813.107 1612.19 811.495L1612.13 811.438C1611.76 811.078 1611.39 810.71 1611.03 810.359L1609.85 809.232L1609.3 808.702L1608.63 808.065L1608.09 807.562L1607.42 806.929L1606.92 806.465L1606.22 805.825L1605.76 805.408L1604.98 804.697L1604.64 804.392C1604.28 804.066 1603.93 803.753 1603.57 803.439L1603.37 803.268C1603.09 803.021 1602.81 802.773 1602.54 802.539L1602.21 802.252C1602 802.073 1601.77 801.881 1601.57 801.713L1601.21 801.409L1600.67 800.959C1600.55 800.857 1600.43 800.76 1600.32 800.67L1599.82 800.269C1599.72 800.188 1599.61 800.096 1599.5 800.016C1599.4 799.936 1599.21 799.784 1599.07 799.674L1598.77 799.445C1598.63 799.347 1598.51 799.261 1598.38 799.163L1598.13 798.981C1598.01 798.896 1597.9 798.822 1597.79 798.748C1597.68 798.674 1597.64 798.646 1597.58 798.612C1597.52 798.578 1597.38 798.489 1597.28 798.429C1597.18 798.369 1597.17 798.359 1597.12 798.336C1597.01 798.271 1596.91 798.231 1596.82 798.201C1596.82 798.199 1596.81 798.202 1596.82 798.21C1596.25 798.007 1596.41 798.516 1597.28 799.673C1598.46 801.224 1600.82 803.826 1603.86 806.918Z" fill="#007681"/>
<path d="M1749.53 806.337C1748.37 806.686 1747.18 807.074 1745.97 807.497C1743.53 808.353 1741.07 809.336 1738.77 810.379C1736.47 811.422 1734.37 812.501 1732.62 813.543C1731.31 814.321 1730.21 815.069 1729.35 815.758C1729.09 815.969 1728.86 816.174 1728.65 816.371C1728 816.982 1727.6 817.522 1727.46 817.976C1727.28 818.562 1727.55 818.987 1728.25 819.226C1728.95 819.466 1730.06 819.515 1731.52 819.372C1732.99 819.228 1734.78 818.895 1736.79 818.39C1738.8 817.885 1740.99 817.219 1743.24 816.43L1743.32 816.4C1743.83 816.205 1744.34 816.036 1744.83 815.854L1746.4 815.245L1747.14 814.959L1748.03 814.593L1748.73 814.3L1749.61 813.919L1750.26 813.631L1751.15 813.224L1751.73 812.952L1752.72 812.473L1753.15 812.265C1753.6 812.037 1754.04 811.81 1754.47 811.583L1754.71 811.45C1755.06 811.266 1755.4 811.081 1755.73 810.896L1756.13 810.665C1756.38 810.517 1756.64 810.366 1756.88 810.224L1757.3 809.962L1757.93 809.566C1758.07 809.475 1758.2 809.385 1758.33 809.297L1758.89 808.917C1759 808.833 1759.13 808.743 1759.24 808.656C1759.35 808.569 1759.56 808.415 1759.71 808.297L1760.03 808.042C1760.17 807.927 1760.28 807.815 1760.42 807.697L1760.67 807.464C1760.79 807.348 1760.89 807.239 1761 807.13C1761.1 807.021 1761.14 806.98 1761.18 806.915C1761.23 806.849 1761.35 806.695 1761.44 806.583C1761.52 806.47 1761.53 806.458 1761.56 806.401C1761.65 806.257 1761.71 806.119 1761.75 805.99C1761.75 805.975 1761.75 805.963 1761.73 805.954C1762.01 805.08 1761.29 804.57 1759.67 804.489C1757.49 804.378 1753.85 805.042 1749.53 806.337Z" fill="#007681"/>
</svg>
