<svg width="1735" height="1469" viewBox="0 0 1735 1469" fill="none" xmlns="http://www.w3.org/2000/svg">
<path fill-rule="evenodd" clip-rule="evenodd" d="M929.586 513.477L931.188 513.259L926.892 513.845L926.893 513.844L926.892 513.844L926.893 513.843L921.074 514.635L940.082 496.97L943.419 500.703L943.419 500.703L952.093 510.419L941.979 511.795L931.187 513.259L929.586 513.477Z" fill="#CF4C84"/>
<path fill-rule="evenodd" clip-rule="evenodd" d="M375.646 653.534L375.643 653.532L379.447 659.795L388.996 675.529L397.95 690.275L397.951 690.274L403.636 677.62L375.649 653.537L375.647 653.535L375.644 653.532L375.646 653.534ZM375.647 653.535L403.637 677.62L405.818 672.751L370.494 645.048L375.647 653.535Z" fill="#CF4C84"/>
<path fill-rule="evenodd" clip-rule="evenodd" d="M996.292 831.946L996.289 831.944L1000.09 838.206L1009.64 853.941L1018.6 868.687L1018.6 868.686L1024.28 856.032L996.295 831.949L996.294 831.946L996.291 831.944L996.292 831.946ZM996.294 831.946L1024.28 856.032L1026.46 851.163L991.141 823.46L996.294 831.946Z" fill="#CF4C84"/>
<path d="M723.994 908.977C723.834 909.184 723.688 909.41 723.541 909.635C722.619 911.028 722.103 912.826 722.025 914.915C721.948 917.005 722.309 919.343 723.088 921.785C724.387 925.854 726.781 930.016 729.875 933.582C732.409 936.499 735.299 938.886 738.217 940.472C740.85 941.908 743.418 942.644 745.683 942.613C747.947 942.582 749.836 941.785 751.174 940.295L723.994 908.977Z" fill="#92CFB5"/>
<path d="M655.661 991.988C655.184 993.389 654.672 994.835 654.134 996.306C653.045 999.277 651.869 1002.29 650.683 1005.14C649.498 1008 648.331 1010.62 647.261 1012.84C646.462 1014.51 645.727 1015.92 645.083 1017.05C644.886 1017.39 644.699 1017.7 644.522 1017.98C643.976 1018.84 643.527 1019.42 643.19 1019.68C642.757 1020.01 642.527 1019.79 642.51 1019.05C642.494 1018.3 642.693 1017.04 643.096 1015.34C643.499 1013.63 644.098 1011.52 644.859 1009.11C645.62 1006.71 646.528 1004.06 647.53 1001.33L647.568 1001.23C647.804 1000.61 648.025 999.992 648.251 999.394L648.99 997.469L649.338 996.563L649.771 995.47L650.115 994.608L650.557 993.519L650.886 992.717L651.348 991.613L651.653 990.891L652.183 989.658L652.413 989.128C652.661 988.56 652.906 988.014 653.15 987.467L653.29 987.166C653.486 986.734 653.683 986.301 653.876 985.889L654.115 985.384C654.267 985.067 654.425 984.73 654.57 984.432L654.835 983.894L655.233 983.096C655.325 982.913 655.413 982.741 655.499 982.58L655.872 981.861C655.952 981.715 656.04 981.55 656.121 981.405C656.203 981.259 656.352 980.985 656.464 980.785L656.702 980.368C656.808 980.188 656.909 980.028 657.017 979.849L657.227 979.51C657.33 979.35 657.425 979.21 657.52 979.07C657.615 978.93 657.65 978.877 657.705 978.81C657.759 978.742 657.888 978.57 657.981 978.451C658.075 978.332 658.086 978.315 658.131 978.265C658.247 978.133 658.352 978.041 658.447 977.967C658.458 977.961 658.465 977.964 658.468 977.975C659.116 977.475 659.31 978.188 659.026 980.024C658.647 982.484 657.438 986.781 655.661 991.988Z" fill="#007681"/>
<path d="M240.181 924.223C238.716 924.016 237.199 923.789 235.653 923.545C232.527 923.051 229.339 922.496 226.305 921.918C223.271 921.34 220.461 920.752 218.062 920.193C216.27 919.776 214.727 919.381 213.491 919.022C213.114 918.912 212.769 918.807 212.457 918.705C211.492 918.392 210.833 918.12 210.502 917.898C210.082 917.613 210.235 917.42 210.95 917.33C211.664 917.24 212.927 917.256 214.667 917.376C216.407 917.496 218.589 917.718 221.089 918.029C223.589 918.34 226.357 918.735 229.237 919.19L229.339 919.207C229.99 919.318 230.642 919.416 231.273 919.52L233.306 919.866L234.262 920.028L235.419 920.234L236.333 920.398L237.489 920.611L238.341 920.771L239.516 920.996L240.285 921.147L241.601 921.41L242.167 921.524C242.773 921.648 243.359 921.772 243.945 921.896L244.268 921.967C244.732 922.067 245.196 922.167 245.64 922.267L246.183 922.391C246.526 922.471 246.888 922.552 247.21 922.628L247.793 922.768L248.657 922.978C248.855 923.027 249.042 923.074 249.218 923.12L250 923.322C250.16 923.365 250.34 923.413 250.5 923.458C250.66 923.503 250.959 923.585 251.179 923.646L251.638 923.779C251.837 923.838 252.015 923.896 252.214 923.957L252.591 924.077C252.769 924.136 252.927 924.192 253.085 924.248C253.243 924.303 253.302 924.324 253.38 924.357C253.458 924.39 253.655 924.467 253.792 924.524C253.929 924.581 253.948 924.587 254.006 924.615C254.162 924.687 254.276 924.755 254.369 924.818C254.378 924.825 254.377 924.83 254.367 924.834C255.003 925.261 254.362 925.479 252.524 925.46C250.06 925.436 245.627 924.992 240.181 924.223Z" fill="#007681"/>
<path d="M370.354 968.084C369.932 966.666 369.505 965.192 369.083 963.685C368.229 960.638 367.404 957.509 366.665 954.51C365.925 951.511 365.288 948.711 364.796 946.299C364.428 944.495 364.143 942.928 363.954 941.655C363.897 941.267 363.849 940.909 363.811 940.583C363.694 939.576 363.667 938.863 363.729 938.47C363.814 937.969 364.053 938.028 364.433 938.64C364.812 939.252 365.325 940.407 365.941 942.038C366.557 943.67 367.265 945.745 368.025 948.148C368.784 950.55 369.58 953.23 370.366 956.037L370.393 956.138C370.564 956.775 370.746 957.409 370.915 958.026L371.448 960.018L371.699 960.955L371.995 962.092L372.227 962.992L372.515 964.131L372.725 964.972L373.01 966.134L373.194 966.896L373.503 968.201L373.635 968.764C373.775 969.367 373.907 969.95 374.039 970.534L374.108 970.858C374.211 971.321 374.313 971.785 374.408 972.23L374.521 972.776C374.592 973.12 374.669 973.483 374.734 973.807L374.85 974.396L375.019 975.269C375.058 975.469 375.092 975.659 375.124 975.838L375.267 976.633C375.294 976.797 375.326 976.98 375.351 977.144C375.377 977.308 375.428 977.614 375.463 977.84L375.534 978.312C375.563 978.518 375.585 978.704 375.612 978.91L375.66 979.303C375.681 979.49 375.696 979.656 375.711 979.823C375.727 979.99 375.732 980.052 375.735 980.137C375.738 980.222 375.749 980.433 375.755 980.581C375.76 980.729 375.763 980.749 375.762 980.814C375.761 980.985 375.747 981.117 375.729 981.228C375.726 981.239 375.72 981.24 375.713 981.232C375.59 981.989 375.125 981.497 374.375 979.818C373.37 977.569 371.925 973.354 370.354 968.084Z" fill="#92CFB5"/>
<path d="M254.021 666.502C252.543 666.425 251.012 666.329 249.45 666.217C246.294 665.988 243.072 665.695 240.001 665.355C236.931 665.016 234.083 664.639 231.65 664.249C229.831 663.959 228.263 663.665 227.005 663.38C226.621 663.293 226.269 663.206 225.95 663.121C224.966 662.858 224.29 662.61 223.944 662.384C223.506 662.091 223.646 661.843 224.354 661.653C225.063 661.463 226.326 661.336 228.073 661.278C229.82 661.22 232.015 661.232 234.534 661.314C237.053 661.397 239.846 661.548 242.754 661.758L242.857 661.767C243.515 661.824 244.173 661.866 244.81 661.917L246.865 662.094L247.831 662.178L249.001 662.289L249.925 662.38L251.095 662.501L251.956 662.593L253.145 662.726L253.924 662.817L255.257 662.978L255.83 663.049C256.444 663.128 257.037 663.208 257.631 663.288L257.958 663.336C258.429 663.402 258.899 663.467 259.349 663.535L259.901 663.62C260.248 663.676 260.615 663.731 260.942 663.784L261.534 663.884L262.411 664.035C262.612 664.07 262.802 664.105 262.981 664.14L263.776 664.29C263.939 664.324 264.122 664.359 264.285 664.395C264.447 664.431 264.752 664.493 264.976 664.541L265.443 664.646C265.645 664.695 265.828 664.743 266.03 664.793L266.415 664.893C266.597 664.943 266.758 664.991 266.92 665.039C267.081 665.087 267.142 665.105 267.222 665.135C267.302 665.166 267.504 665.235 267.645 665.287C267.785 665.339 267.805 665.344 267.865 665.371C268.024 665.439 268.143 665.507 268.241 665.571C268.25 665.579 268.249 665.585 268.239 665.591C268.903 666.027 268.276 666.361 266.438 666.552C263.974 666.809 259.514 666.791 254.021 666.502Z" fill="#007681"/>
<path d="M874.669 844.914C873.192 844.837 871.66 844.741 870.099 844.628C866.942 844.4 863.72 844.106 860.65 843.767C857.58 843.428 854.732 843.05 852.299 842.661C850.48 842.37 848.912 842.077 847.653 841.792C847.269 841.704 846.917 841.618 846.599 841.533C845.614 841.27 844.938 841.021 844.592 840.795C844.154 840.503 844.294 840.255 845.003 840.065C845.711 839.875 846.975 839.747 848.722 839.689C850.469 839.631 852.664 839.644 855.183 839.726C857.702 839.809 860.495 839.959 863.402 840.17L863.505 840.179C864.163 840.235 864.821 840.278 865.459 840.329L867.513 840.506L868.48 840.589L869.65 840.701L870.574 840.792L871.743 840.912L872.605 841.004L873.794 841.138L874.573 841.228L875.905 841.39L876.478 841.461C877.092 841.539 877.686 841.619 878.279 841.699L878.607 841.747C879.077 841.813 879.548 841.879 879.997 841.947L880.549 842.032C880.896 842.087 881.264 842.142 881.59 842.196L882.182 842.295L883.06 842.447C883.261 842.482 883.451 842.517 883.63 842.552L884.425 842.702C884.587 842.735 884.77 842.771 884.933 842.807C885.096 842.842 885.4 842.905 885.624 842.953L886.091 843.058C886.294 843.106 886.476 843.154 886.679 843.204L887.063 843.304C887.245 843.354 887.407 843.402 887.568 843.451C887.73 843.499 887.79 843.517 887.87 843.547C887.951 843.577 888.152 843.647 888.293 843.699C888.433 843.751 888.453 843.756 888.513 843.783C888.673 843.851 888.791 843.918 888.889 843.983C888.898 843.99 888.898 843.997 888.887 844.002C889.552 844.438 888.925 844.773 887.086 844.964C884.622 845.22 880.162 845.203 874.669 844.914Z" fill="#007681"/>
<path d="M1.84769 770.388C2.69991 771.602 3.55296 772.88 4.39341 774.202C6.09121 776.874 7.7059 779.678 9.12865 782.424C10.5514 785.17 11.7494 787.796 12.642 790.123C13.3101 791.863 13.8025 793.415 14.1008 794.724C14.1909 795.124 14.2615 795.498 14.3123 795.845C14.4678 796.919 14.4423 797.741 14.2367 798.286C13.9636 798.983 13.3844 799.188 12.5334 798.89C11.6824 798.593 10.5757 797.797 9.27657 796.549C7.9774 795.301 6.51146 793.626 4.96207 791.618C3.41268 789.61 1.81062 787.31 0.247087 784.848L0.194296 784.759C-0.141602 784.191 -0.505943 783.64 -0.838535 783.094L-1.88821 781.319L-2.38179 780.484L-2.95835 779.46L-3.40934 778.647L-3.96793 777.612L-4.37278 776.846L-4.92054 775.78L-5.27258 775.077L-5.8618 773.867L-6.11235 773.345C-6.37692 772.783 -6.62368 772.234 -6.87056 771.685L-6.99913 771.377C-7.19023 770.939 -7.38151 770.501 -7.55492 770.076L-7.76284 769.552C-7.89096 769.221 -8.03293 768.874 -8.15055 768.56L-8.35792 767.988L-8.65848 767.135C-8.72646 766.939 -8.78714 766.751 -8.84072 766.572L-9.08845 765.784C-9.13288 765.618 -9.18779 765.435 -9.22863 765.268C-9.26946 765.1 -9.35485 764.792 -9.4128 764.562L-9.52478 764.077C-9.56863 763.864 -9.59842 763.666 -9.63868 763.45L-9.70504 763.034C-9.73121 762.834 -9.74687 762.651 -9.76254 762.469C-9.77821 762.286 -9.78444 762.219 -9.77969 762.12C-9.77495 762.021 -9.77612 761.781 -9.77051 761.61C-9.76489 761.439 -9.76806 761.417 -9.75641 761.339C-9.73253 761.133 -9.68039 760.958 -9.62142 760.804C-9.61324 760.788 -9.59995 760.78 -9.58188 760.78C-9.18272 759.732 -8.10538 759.787 -6.4852 760.938C-4.3119 762.48 -1.31895 765.874 1.84769 770.388Z" fill="#007681"/>
<path d="M238.425 62.8531C238.751 61.1081 239.075 59.2955 239.391 57.4437C240.028 53.6998 240.619 49.8627 241.126 46.1911C241.632 42.5194 242.041 39.0979 242.326 36.1569C242.539 33.9584 242.682 32.0525 242.748 30.5096C242.768 30.0393 242.78 29.6063 242.784 29.2123C242.797 27.9952 242.741 27.1418 242.616 26.6798C242.453 26.0932 242.174 26.193 241.798 26.9711C241.422 27.7493 240.955 29.1916 240.425 31.2159C239.894 33.2403 239.309 35.8063 238.704 38.7683C238.099 41.7303 237.486 45.0294 236.899 48.4779L236.88 48.6009C236.756 49.3831 236.618 50.1624 236.495 50.9197L236.107 53.3643L235.925 54.5137L235.715 55.9084L235.552 57.0106L235.35 58.4067L235.206 59.436L235.011 60.8589L234.887 61.7912L234.681 63.3884L234.594 64.0757C234.503 64.813 234.419 65.5262 234.335 66.2396L234.293 66.6342C234.228 67.2004 234.164 67.767 234.107 68.3093L234.04 68.9753C233.999 69.3948 233.953 69.8379 233.915 70.2329L233.851 70.9495L233.759 72.0129C233.738 72.2565 233.72 72.4874 233.706 72.7056L233.634 73.672C233.623 73.8706 233.607 74.0937 233.598 74.2926C233.588 74.4916 233.565 74.8635 233.551 75.1369L233.526 75.7092C233.517 75.9584 233.515 76.1836 233.508 76.4331L233.5 76.9078C233.499 77.1332 233.501 77.3341 233.504 77.535C233.507 77.7359 233.508 77.811 233.515 77.9124C233.523 78.0138 233.535 78.2675 233.547 78.4448C233.559 78.6221 233.559 78.6468 233.568 78.7235C233.591 78.9275 233.624 79.083 233.66 79.2139C233.664 79.2265 233.671 79.2275 233.679 79.217C233.92 80.1047 234.414 79.4591 235.098 77.3617C236.016 74.5511 237.211 69.34 238.425 62.8531Z" fill="#92CFB5"/>
<path d="M534.666 146.221C534.628 145.148 534.521 144.052 534.348 142.95C533.994 140.722 533.369 138.511 532.515 136.464C531.662 134.417 530.599 132.582 529.399 131.083C528.504 129.962 527.546 129.039 526.561 128.349C526.259 128.139 525.956 127.953 525.651 127.791C524.707 127.292 523.765 127.019 522.853 126.98C521.671 126.937 520.565 127.299 519.597 128.045C518.629 128.791 517.82 129.906 517.215 131.327C516.609 132.747 516.22 134.446 516.069 136.325C515.919 138.204 516.009 140.227 516.336 142.278L516.354 142.35C516.467 142.804 516.518 143.274 516.612 143.719L516.966 145.14L517.133 145.808L517.382 146.606L517.588 147.234L517.876 148.022L518.103 148.599L518.441 149.39L518.677 149.905L519.11 150.778L519.303 151.153C519.519 151.552 519.746 151.932 519.974 152.313L520.117 152.519C520.307 152.819 520.498 153.119 520.701 153.4L520.961 153.743C521.13 153.957 521.295 154.187 521.461 154.388L521.775 154.747L522.255 155.277C522.367 155.397 522.481 155.51 522.596 155.614L523.086 156.081C523.2 156.173 523.318 156.279 523.44 156.37C523.562 156.46 523.771 156.634 523.935 156.759L524.297 157.016C524.465 157.125 524.638 157.218 524.814 157.325L525.17 157.523C525.35 157.614 525.527 157.69 525.704 157.767C525.88 157.844 525.945 157.872 526.061 157.904C526.177 157.936 526.439 158.022 526.635 158.078C526.832 158.135 526.851 158.145 526.955 158.164C527.218 158.22 527.489 158.243 527.749 158.253C527.779 158.253 527.808 158.246 527.834 158.232C529.594 158.305 531.173 157.475 532.373 155.848C533.985 153.665 534.809 150.207 534.666 146.221Z" fill="#007681"/>
<path d="M1171.55 131.874C1171.41 133.222 1171.32 134.62 1171.28 136.045C1171.19 138.927 1171.29 141.87 1171.58 144.675C1171.86 147.481 1172.33 150.084 1172.94 152.311C1173.4 153.975 1173.93 155.41 1174.51 156.564C1174.69 156.915 1174.88 157.238 1175.06 157.53C1175.65 158.433 1176.27 159.055 1176.9 159.375C1177.72 159.781 1178.55 159.659 1179.34 159.017C1180.13 158.376 1180.86 157.227 1181.5 155.637C1182.14 154.046 1182.67 152.046 1183.06 149.748C1183.45 147.451 1183.69 144.902 1183.77 142.248L1183.77 142.153C1183.76 141.553 1183.8 140.952 1183.8 140.37L1183.76 138.494L1183.75 137.611L1183.7 136.542L1183.65 135.698L1183.56 134.63L1183.49 133.843L1183.38 132.756L1183.29 132.044L1183.12 130.827L1183.04 130.303C1182.95 129.741 1182.85 129.199 1182.75 128.656L1182.68 128.357C1182.59 127.926 1182.5 127.496 1182.4 127.085L1182.27 126.58C1182.19 126.262 1182.11 125.926 1182.02 125.627L1181.86 125.086L1181.6 124.283C1181.54 124.099 1181.48 123.925 1181.41 123.761L1181.14 123.033C1181.07 122.884 1181.01 122.716 1180.94 122.568C1180.86 122.419 1180.74 122.139 1180.65 121.935L1180.43 121.507C1180.33 121.321 1180.23 121.154 1180.12 120.968L1179.9 120.615C1179.79 120.448 1179.68 120.3 1179.56 120.151C1179.45 120.003 1179.41 119.948 1179.33 119.874C1179.26 119.8 1179.09 119.615 1178.96 119.486C1178.83 119.356 1178.82 119.338 1178.75 119.283C1178.57 119.136 1178.39 119.027 1178.21 118.936C1178.19 118.927 1178.16 118.928 1178.14 118.937C1176.92 118.322 1175.69 118.886 1174.61 120.557C1173.15 122.797 1172.05 126.861 1171.55 131.874Z" fill="#007681"/>
<path d="M1473.35 5.59573C1473.23 5.48204 1473.09 5.37623 1472.96 5.27032C1472.12 4.60495 1471 4.17594 1469.68 4.00997C1468.35 3.84401 1466.84 3.94449 1465.24 4.30532C1462.57 4.90685 1459.78 6.20186 1457.34 7.97578C1455.34 9.42933 1453.65 11.1391 1452.48 12.9115C1451.42 14.5103 1450.81 16.1062 1450.7 17.5519C1450.59 18.9975 1451 20.2461 1451.87 21.182L1473.35 5.59573Z" fill="#92CFB5"/>
<path d="M1690.3 115.291C1690.46 115.603 1690.64 115.91 1690.82 116.217C1691.94 118.134 1693.45 119.801 1695.24 121.115C1697.03 122.428 1699.07 123.36 1701.24 123.853C1704.85 124.674 1708.63 124.237 1711.96 122.614C1714.68 121.283 1716.97 119.216 1718.58 116.648C1720.04 114.334 1720.89 111.69 1721.06 108.961C1721.22 106.231 1720.69 103.504 1719.52 101.032L1690.3 115.291Z" fill="#92CFB5"/>
<path d="M307.023 192.923C305.619 193.158 304.17 193.436 302.7 193.753C299.729 194.393 296.724 195.179 293.888 196.057C291.051 196.935 288.449 197.886 286.257 198.844C284.617 199.56 283.224 200.27 282.128 200.948C281.794 201.156 281.491 201.359 281.219 201.559C280.38 202.176 279.835 202.748 279.601 203.255C279.309 203.912 279.559 204.446 280.336 204.827C281.113 205.208 282.403 205.429 284.132 205.476C285.86 205.523 287.994 205.396 290.411 205.102C292.827 204.808 295.48 204.353 298.216 203.763L298.313 203.739C298.928 203.585 299.55 203.463 300.147 203.323L302.068 202.844L302.972 202.618L304.061 202.322L304.92 202.083L306.004 201.767L306.801 201.527L307.899 201.183L308.616 200.951L309.841 200.538L310.366 200.357C310.929 200.159 311.471 199.958 312.012 199.757L312.309 199.638C312.738 199.473 313.166 199.308 313.573 199.141L314.072 198.929C314.385 198.794 314.718 198.657 315.011 198.526L315.542 198.282L316.328 197.912C316.508 197.827 316.677 197.742 316.836 197.658L317.542 197.296C317.685 197.215 317.847 197.129 317.989 197.044C318.131 196.959 318.399 196.809 318.595 196.694L319.002 196.444C319.178 196.33 319.333 196.217 319.508 196.099L319.837 195.864C319.992 195.747 320.127 195.635 320.262 195.523C320.397 195.41 320.448 195.369 320.512 195.299C320.576 195.229 320.741 195.068 320.854 194.949C320.968 194.83 320.985 194.818 321.031 194.757C321.155 194.602 321.239 194.448 321.305 194.304C321.311 194.287 321.307 194.273 321.295 194.261C321.742 193.282 320.978 192.582 319.099 192.25C316.581 191.804 312.243 192.045 307.023 192.923Z" fill="#007681"/>
<path fill-rule="evenodd" clip-rule="evenodd" d="M1570.23 216.871L1581.51 203.515L1581.51 203.515L1592.08 191L1592.08 191L1597.77 211.115L1565.75 222.184L1565.75 222.184L1565.74 222.186L1565.74 222.185L1570.21 216.898L1570.23 216.872L1570.23 216.871ZM1565.75 222.184L1597.77 211.116L1599.96 218.851L1559.66 229.387L1565.75 222.184Z" fill="#CF4C84"/>
<path fill-rule="evenodd" clip-rule="evenodd" d="M76.4165 171.708L79.187 171.911L74.4313 171.561L74.4326 171.562L74.4317 171.562L74.4326 171.563L67.9892 171.091L90.0632 189.188L93.4724 184.862L93.473 184.863L102.333 173.603L91.1349 172.783L79.1874 171.912L76.4165 171.708Z" fill="#CF4C84"/>
<path d="M113.293 326.758C114.444 327.592 115.645 328.444 116.879 329.302C119.374 331.036 121.958 332.76 124.456 334.358C126.953 335.957 129.307 337.393 131.36 338.57C132.894 339.45 134.241 340.176 135.354 340.723C135.693 340.889 136.008 341.037 136.297 341.165C137.191 341.563 137.846 341.785 138.24 341.825C138.744 341.871 138.789 341.601 138.374 341.032C137.96 340.462 137.093 339.605 135.823 338.508C134.554 337.411 132.907 336.096 130.976 334.638C129.045 333.18 126.868 331.608 124.57 330.012L124.487 329.956C123.962 329.602 123.445 329.236 122.938 328.89L121.296 327.783L120.525 327.262L119.583 326.64L118.839 326.15L117.893 325.535L117.194 325.084L116.225 324.466L115.589 324.064L114.496 323.381L114.025 323.089C113.519 322.776 113.028 322.478 112.537 322.18L112.263 322.018C111.872 321.784 111.481 321.549 111.104 321.328L110.641 321.059C110.348 320.891 110.04 320.711 109.764 320.554L109.262 320.271L108.516 319.855C108.344 319.76 108.181 319.671 108.026 319.589L107.343 319.222C107.201 319.149 107.042 319.065 106.899 318.994C106.756 318.922 106.491 318.785 106.295 318.686L105.883 318.483C105.702 318.396 105.537 318.322 105.356 318.237L105.008 318.08C104.842 318.008 104.692 317.946 104.543 317.885C104.393 317.823 104.337 317.8 104.259 317.775C104.181 317.749 103.988 317.679 103.852 317.633C103.716 317.587 103.698 317.579 103.637 317.563C103.477 317.517 103.347 317.497 103.235 317.486C103.224 317.486 103.221 317.491 103.225 317.501C102.466 317.426 102.732 318.054 103.99 319.306C105.676 320.984 109.017 323.661 113.293 326.758Z" fill="#007681"/>
<path fill-rule="evenodd" clip-rule="evenodd" d="M1082.39 596.791L1082.39 596.789L1079.8 602.366L1073.29 616.376L1067.19 629.507L1067.19 629.506L1061.92 620.201L1082.38 596.794L1082.38 596.792L1082.39 596.789L1082.39 596.791ZM1082.38 596.792L1061.92 620.201L1059.89 616.62L1085.89 589.235L1082.38 596.792Z" fill="#CF4C84"/>
<path d="M1141.86 501.601C1142.32 503.297 1142.86 505.031 1143.47 506.778C1144.7 510.308 1146.19 513.823 1147.84 517.086C1149.5 520.349 1151.27 523.284 1153.05 525.694C1154.37 527.497 1155.68 528.988 1156.92 530.113C1157.3 530.455 1157.68 530.76 1158.04 531.027C1159.17 531.848 1160.21 532.314 1161.12 532.408C1162.3 532.518 1163.25 531.985 1163.91 530.841C1164.56 529.698 1164.92 527.966 1164.95 525.744C1164.99 523.522 1164.7 520.853 1164.1 517.891C1163.51 514.929 1162.62 511.731 1161.48 508.479L1161.44 508.366C1161.14 507.644 1160.91 506.9 1160.64 506.195L1159.73 503.938L1159.3 502.877L1158.74 501.608L1158.29 500.609L1157.69 499.354L1157.24 498.434L1156.59 497.173L1156.16 496.352L1155.38 494.957L1155.04 494.359C1154.67 493.721 1154.3 493.112 1153.92 492.502L1153.7 492.172C1153.39 491.692 1153.09 491.211 1152.78 490.76L1152.39 490.209C1152.13 489.865 1151.88 489.495 1151.64 489.173L1151.19 488.594L1150.5 487.741C1150.34 487.546 1150.19 487.365 1150.03 487.196L1149.37 486.442C1149.22 486.292 1149.06 486.12 1148.9 485.973C1148.75 485.826 1148.47 485.544 1148.26 485.34L1147.8 484.922C1147.59 484.744 1147.39 484.591 1147.17 484.416L1146.74 484.09C1146.53 483.94 1146.32 483.813 1146.12 483.686C1145.91 483.558 1145.84 483.51 1145.71 483.456C1145.59 483.402 1145.29 483.257 1145.08 483.16C1144.86 483.064 1144.84 483.047 1144.73 483.013C1144.45 482.917 1144.17 482.871 1143.91 482.845C1143.88 482.844 1143.86 482.854 1143.84 482.875C1142.07 482.698 1140.85 483.951 1140.31 486.479C1139.58 489.868 1140.14 495.3 1141.86 501.601Z" fill="#007681"/>
<path d="M137.957 496.546C138.387 495.329 138.803 494.059 139.199 492.755C139.997 490.118 140.694 487.391 141.244 484.757C141.794 482.123 142.184 479.643 142.388 477.484C142.541 475.87 142.59 474.454 142.534 473.287C142.516 472.931 142.488 472.601 142.449 472.298C142.329 471.362 142.115 470.679 141.815 470.271C141.423 469.75 140.89 469.714 140.247 470.162C139.603 470.611 138.862 471.536 138.065 472.886C137.268 474.235 136.431 475.982 135.602 478.027C134.774 480.072 133.969 482.374 133.234 484.802L133.211 484.89C133.062 485.444 132.886 485.991 132.735 486.526L132.271 488.26L132.052 489.075L131.809 490.068L131.621 490.854L131.394 491.852L131.235 492.589L131.025 493.611L130.894 494.281L130.683 495.433L130.595 495.929C130.505 496.462 130.427 496.98 130.348 497.498L130.312 497.785C130.255 498.197 130.197 498.609 130.151 499.006L130.099 499.494C130.069 499.801 130.032 500.125 130.006 500.416L129.966 500.944L129.914 501.729C129.903 501.909 129.896 502.08 129.893 502.243L129.87 502.961C129.871 503.11 129.868 503.277 129.873 503.427C129.878 503.577 129.878 503.855 129.884 504.061L129.903 504.493C129.916 504.683 129.938 504.856 129.954 505.046L129.996 505.41C130.021 505.584 130.05 505.74 130.08 505.897C130.109 506.053 130.12 506.112 130.147 506.193C130.174 506.275 130.229 506.476 130.274 506.618C130.319 506.76 130.321 506.779 130.349 506.843C130.418 507.01 130.502 507.143 130.588 507.259C130.598 507.271 130.611 507.274 130.626 507.27C131.206 508.055 132.096 507.757 133.184 506.413C134.645 504.613 136.359 501.069 137.957 496.546Z" fill="#007681"/>
<path d="M542.305 494.231C541.912 494.582 541.534 494.956 541.155 495.329C538.783 497.644 536.912 500.422 535.657 503.489C534.401 506.557 533.789 509.849 533.858 513.163C533.972 518.686 535.97 524.004 539.52 528.237C542.431 531.699 546.253 534.278 550.553 535.682C554.429 536.956 558.564 537.232 562.576 536.484C566.588 535.736 570.346 533.989 573.503 531.404L542.305 494.231Z" fill="#92CFB5"/>
<path d="M1162.95 672.643C1162.56 672.994 1162.18 673.367 1161.8 673.741C1159.43 676.056 1157.56 678.833 1156.31 681.901C1155.05 684.969 1154.44 688.261 1154.51 691.575C1154.62 697.098 1156.62 702.416 1160.17 706.648C1163.08 710.111 1166.9 712.69 1171.2 714.094C1175.08 715.368 1179.21 715.644 1183.23 714.896C1187.24 714.148 1191 712.401 1194.15 709.815L1162.95 672.643Z" fill="#92CFB5"/>
<path d="M1480.29 513.65C1480.88 512.884 1481.46 512.078 1482.05 511.243C1483.22 509.553 1484.35 507.777 1485.35 506.032C1486.34 504.287 1487.19 502.615 1487.84 501.128C1488.32 500.017 1488.68 499.022 1488.91 498.18C1488.98 497.923 1489.04 497.682 1489.08 497.458C1489.21 496.764 1489.21 496.23 1489.1 495.87C1488.94 495.41 1488.57 495.261 1488.01 495.431C1487.45 495.601 1486.71 496.088 1485.83 496.863C1484.95 497.638 1483.95 498.686 1482.89 499.947C1481.83 501.209 1480.73 502.659 1479.64 504.215L1479.61 504.272C1479.37 504.631 1479.12 504.979 1478.89 505.325L1478.16 506.449L1477.82 506.978L1477.42 507.627L1477.1 508.142L1476.71 508.799L1476.43 509.286L1476.04 509.964L1475.79 510.41L1475.38 511.18L1475.2 511.512C1475.01 511.87 1474.84 512.219 1474.66 512.569L1474.57 512.766C1474.43 513.045 1474.3 513.324 1474.17 513.595L1474.02 513.93C1473.93 514.142 1473.83 514.363 1473.75 514.564L1473.6 514.93L1473.38 515.476C1473.33 515.601 1473.28 515.721 1473.24 515.836L1473.06 516.341C1473.03 516.447 1472.99 516.565 1472.96 516.673C1472.92 516.78 1472.86 516.978 1472.82 517.126L1472.73 517.437C1472.7 517.575 1472.67 517.703 1472.64 517.842L1472.59 518.11C1472.56 518.239 1472.55 518.358 1472.53 518.476C1472.52 518.594 1472.51 518.638 1472.51 518.702C1472.51 518.766 1472.5 518.922 1472.5 519.033C1472.5 519.144 1472.5 519.158 1472.51 519.21C1472.52 519.344 1472.54 519.459 1472.58 519.561C1472.58 519.572 1472.59 519.577 1472.6 519.577C1472.83 520.269 1473.54 520.262 1474.62 519.559C1476.07 518.617 1478.11 516.495 1480.29 513.65Z" fill="#007681"/>
<path d="M1636.38 503.228C1636.95 503.361 1637.53 503.467 1638.11 503.573C1641.7 504.251 1645.39 504.185 1648.96 503.378C1652.52 502.571 1655.89 501.041 1658.84 498.883C1663.75 495.285 1667.3 490.114 1668.87 484.229C1670.16 479.408 1670.07 474.323 1668.62 469.549C1667.32 465.24 1664.95 461.329 1661.74 458.177C1658.53 455.025 1654.57 452.735 1650.23 451.518L1636.38 503.228Z" fill="#92CFB5"/>
<path d="M925.994 608.726C924.881 608.084 923.7 607.497 922.471 606.974C919.985 605.92 917.344 605.152 914.724 604.72C912.104 604.288 909.567 604.203 907.284 604.47C905.578 604.668 904.033 605.054 902.708 605.616C902.304 605.79 901.922 605.98 901.564 606.187C900.459 606.828 899.583 607.612 898.965 608.512C898.172 609.685 897.838 611.039 897.981 612.494C898.124 613.949 898.743 615.479 899.801 616.995C900.86 618.51 902.337 619.983 904.149 621.328C905.962 622.673 908.073 623.865 910.363 624.835L910.447 624.862C910.98 625.035 911.49 625.282 912 625.468L913.668 626.01L914.452 626.265L915.42 626.518L916.188 626.707L917.171 626.915L917.901 627.051L918.919 627.21L919.591 627.296L920.753 627.41L921.255 627.452C921.797 627.486 922.328 627.497 922.859 627.507L923.159 627.493C923.584 627.49 924.009 627.486 924.424 627.459L924.937 627.413C925.262 627.377 925.6 627.355 925.909 627.313L926.472 627.223L927.315 627.071C927.508 627.035 927.695 626.99 927.874 626.939L928.658 626.738C928.824 626.681 929.007 626.629 929.176 626.562C929.345 626.495 929.654 626.393 929.886 626.306L930.376 626.101C930.593 626 930.797 625.884 931.017 625.773L931.444 625.537C931.651 625.412 931.841 625.281 932.031 625.15C932.221 625.019 932.291 624.972 932.397 624.874C932.502 624.777 932.756 624.565 932.938 624.402C933.12 624.238 933.143 624.225 933.229 624.132C933.451 623.9 933.646 623.639 933.822 623.382C933.841 623.352 933.852 623.318 933.855 623.282C935.045 621.542 935.204 619.412 934.313 617.162C933.121 614.14 930.132 611.11 925.994 608.726Z" fill="#007681"/>
<path d="M1421.17 721.041C1420.06 720.399 1418.88 719.812 1417.65 719.289C1415.16 718.236 1412.52 717.467 1409.9 717.035C1407.28 716.603 1404.75 716.518 1402.46 716.785C1400.76 716.983 1399.21 717.37 1397.89 717.932C1397.48 718.105 1397.1 718.295 1396.74 718.502C1395.64 719.144 1394.76 719.927 1394.14 720.827C1393.35 722.001 1393.02 723.354 1393.16 724.809C1393.3 726.265 1393.92 727.794 1394.98 729.31C1396.04 730.826 1397.52 732.298 1399.33 733.644C1401.14 734.989 1403.25 736.18 1405.54 737.15L1405.63 737.177C1406.16 737.351 1406.67 737.597 1407.18 737.783L1408.85 738.325L1409.63 738.58L1410.6 738.834L1411.37 739.023L1412.35 739.231L1413.08 739.366L1414.1 739.525L1414.77 739.612L1415.93 739.726L1416.43 739.768C1416.98 739.802 1417.51 739.812 1418.04 739.823L1418.34 739.809C1418.76 739.805 1419.19 739.802 1419.6 739.774L1420.12 739.728C1420.44 739.692 1420.78 739.67 1421.09 739.629L1421.65 739.539L1422.49 739.387C1422.69 739.35 1422.87 739.306 1423.05 739.254L1423.84 739.054C1424 738.996 1424.19 738.944 1424.35 738.877C1424.52 738.811 1424.83 738.709 1425.06 738.622L1425.55 738.417C1425.77 738.315 1425.98 738.199 1426.2 738.088L1426.62 737.852C1426.83 737.727 1427.02 737.596 1427.21 737.466C1427.4 737.335 1427.47 737.287 1427.58 737.19C1427.68 737.092 1427.93 736.881 1428.12 736.717C1428.3 736.554 1428.32 736.541 1428.41 736.447C1428.63 736.216 1428.83 735.955 1429 735.698C1429.02 735.667 1429.03 735.633 1429.03 735.597C1430.22 733.857 1430.38 731.728 1429.49 729.477C1428.3 726.455 1425.31 723.425 1421.17 721.041Z" fill="#007681"/>
<path d="M671.973 594.64C672.261 593.279 672.545 591.865 672.82 590.419C673.377 587.497 673.891 584.499 674.326 581.628C674.761 578.758 675.108 576.08 675.344 573.775C675.52 572.053 675.633 570.558 675.679 569.345C675.692 568.976 675.699 568.635 675.699 568.325C675.699 567.367 675.637 566.693 675.515 566.324C675.355 565.855 675.096 565.923 674.752 566.52C674.408 567.118 673.986 568.235 673.51 569.807C673.035 571.38 672.515 573.376 671.979 575.684C671.444 577.992 670.905 580.565 670.392 583.257L670.375 583.353C670.268 583.964 670.147 584.572 670.039 585.164L669.702 587.073L669.544 587.971L669.362 589.061L669.221 589.922L669.047 591.013L668.922 591.818L668.755 592.93L668.649 593.659L668.473 594.909L668.399 595.447C668.321 596.024 668.25 596.582 668.179 597.14L668.144 597.449C668.09 597.892 668.035 598.336 667.988 598.761L667.932 599.282C667.898 599.611 667.859 599.958 667.828 600.268L667.776 600.829L667.701 601.663C667.684 601.854 667.67 602.035 667.658 602.206L667.602 602.965C667.593 603.121 667.581 603.296 667.574 603.452C667.567 603.608 667.55 603.9 667.54 604.115L667.522 604.564C667.517 604.76 667.516 604.938 667.512 605.134L667.51 605.507C667.511 605.685 667.516 605.843 667.521 606.001C667.525 606.16 667.527 606.219 667.535 606.299C667.543 606.379 667.558 606.58 667.571 606.72C667.584 606.86 667.584 606.879 667.594 606.94C667.617 607.101 667.65 607.225 667.684 607.33C667.689 607.34 667.695 607.341 667.703 607.333C667.938 608.042 668.393 607.554 669.012 605.93C669.842 603.754 670.905 599.699 671.973 594.64Z" fill="#007681"/>
<path d="M1418.42 613.78C1418.41 612.242 1418.39 610.646 1418.35 609.018C1418.27 605.728 1418.14 602.366 1417.96 599.158C1417.79 595.951 1417.57 592.973 1417.33 590.423C1417.14 588.518 1416.95 586.873 1416.75 585.549C1416.69 585.146 1416.63 584.775 1416.57 584.44C1416.38 583.402 1416.19 582.685 1416.01 582.313C1415.77 581.841 1415.55 581.972 1415.36 582.696C1415.17 583.42 1415.01 584.724 1414.89 586.534C1414.77 588.344 1414.7 590.624 1414.68 593.244C1414.65 595.864 1414.68 598.772 1414.75 601.803L1414.75 601.911C1414.77 602.597 1414.79 603.282 1414.81 603.947L1414.88 606.091L1414.92 607.099L1414.97 608.32L1415.01 609.285L1415.07 610.506L1415.12 611.405L1415.19 612.648L1415.24 613.462L1415.33 614.855L1415.36 615.454C1415.41 616.096 1415.46 616.717 1415.5 617.337L1415.53 617.68C1415.57 618.172 1415.61 618.665 1415.65 619.136L1415.7 619.714C1415.74 620.077 1415.77 620.462 1415.81 620.804L1415.87 621.425L1415.97 622.344C1415.99 622.555 1416.01 622.754 1416.04 622.943L1416.13 623.776C1416.16 623.947 1416.18 624.14 1416.21 624.311C1416.23 624.481 1416.27 624.801 1416.31 625.036L1416.38 625.527C1416.41 625.741 1416.45 625.933 1416.48 626.146L1416.56 626.552C1416.59 626.743 1416.63 626.914 1416.66 627.084C1416.7 627.255 1416.71 627.319 1416.73 627.404C1416.76 627.489 1416.81 627.702 1416.85 627.851C1416.89 628 1416.89 628.021 1416.91 628.085C1416.97 628.255 1417.02 628.382 1417.07 628.487C1417.08 628.497 1417.08 628.497 1417.09 628.486C1417.44 629.202 1417.76 628.571 1417.99 626.673C1418.31 624.13 1418.46 619.5 1418.42 613.78Z" fill="#92CFB5"/>
<path d="M1734.76 632.398C1734.08 633.413 1733.44 634.496 1732.86 635.63C1731.7 637.923 1730.79 640.383 1730.21 642.845C1729.62 645.306 1729.37 647.712 1729.47 649.901C1729.55 651.536 1729.81 653.03 1730.26 654.327C1730.4 654.723 1730.55 655.099 1730.72 655.452C1731.26 656.546 1731.95 657.43 1732.76 658.078C1733.83 658.91 1735.09 659.317 1736.48 659.278C1737.88 659.238 1739.37 658.752 1740.88 657.847C1742.39 656.941 1743.89 655.635 1745.29 654.001C1746.69 652.368 1747.96 650.44 1749.04 648.328L1749.07 648.25C1749.27 647.754 1749.54 647.287 1749.75 646.813L1750.37 645.264L1750.67 644.536L1750.97 643.633L1751.2 642.915L1751.47 641.994L1751.64 641.309L1751.86 640.352L1751.99 639.719L1752.18 638.622L1752.25 638.148C1752.32 637.635 1752.36 637.131 1752.41 636.627L1752.41 636.341C1752.44 635.936 1752.46 635.532 1752.47 635.136L1752.46 634.645C1752.44 634.334 1752.45 634.011 1752.43 633.715L1752.38 633.173L1752.29 632.362C1752.27 632.175 1752.24 631.995 1752.2 631.822L1752.06 631.063C1752.02 630.901 1751.98 630.724 1751.93 630.559C1751.88 630.393 1751.8 630.092 1751.73 629.867L1751.57 629.387C1751.49 629.174 1751.39 628.972 1751.3 628.756L1751.11 628.334C1751 628.129 1750.89 627.94 1750.78 627.751C1750.67 627.562 1750.62 627.491 1750.54 627.385C1750.45 627.278 1750.27 627.023 1750.13 626.839C1749.98 626.654 1749.97 626.632 1749.89 626.545C1749.68 626.317 1749.45 626.115 1749.22 625.931C1749.19 625.911 1749.16 625.898 1749.12 625.893C1747.55 624.646 1745.53 624.352 1743.33 625.05C1740.38 625.983 1737.3 628.622 1734.76 632.398Z" fill="#007681"/>
<path fill-rule="evenodd" clip-rule="evenodd" d="M139.294 758.84L138.155 769.372L138.155 769.373L137.085 779.243L127.407 771.066L127.407 771.066L123.689 767.919L140.364 748.969L139.748 754.65L139.749 754.648L139.749 754.648L139.294 758.84L139.294 758.84Z" fill="#CF4C84"/>
<path d="M634.779 792.437C635.082 792.842 635.407 793.235 635.732 793.628C637.745 796.087 640.242 798.106 643.067 799.562C645.892 801.017 648.985 801.877 652.156 802.088C657.441 802.44 662.687 800.976 667.026 797.939C670.576 795.448 673.359 792.014 675.059 788.024C676.6 784.428 677.209 780.501 676.83 776.607C676.451 772.713 675.096 768.978 672.89 765.746L634.779 792.437Z" fill="#92CFB5"/>
<path d="M958.56 851.383C958.713 852.422 958.881 853.498 959.061 854.595C959.426 856.812 959.834 859.073 960.258 861.224C960.682 863.376 961.112 865.369 961.52 867.069C961.824 868.34 962.111 869.433 962.371 870.309C962.451 870.576 962.528 870.821 962.601 871.042C962.828 871.725 963.024 872.192 963.183 872.427C963.387 872.723 963.524 872.614 963.584 872.106C963.645 871.598 963.628 870.701 963.535 869.467C963.442 868.232 963.275 866.684 963.043 864.91C962.811 863.137 962.518 861.173 962.182 859.131L962.169 859.058C962.088 858.597 962.015 858.134 961.938 857.687L961.684 856.245L961.564 855.566L961.413 854.746L961.292 854.098L961.136 853.278L961.019 852.674L960.853 851.841L960.743 851.295L960.551 850.362L960.467 849.961C960.376 849.531 960.286 849.116 960.195 848.7L960.143 848.471C960.07 848.142 959.997 847.813 959.924 847.499L959.833 847.113C959.775 846.87 959.716 846.614 959.661 846.385L959.559 845.972L959.405 845.359C959.37 845.219 959.336 845.087 959.302 844.962L959.156 844.407C959.124 844.294 959.089 844.166 959.056 844.053C959.024 843.94 958.965 843.728 958.92 843.572L958.824 843.247C958.78 843.106 958.739 842.979 958.695 842.838L958.608 842.571C958.565 842.445 958.525 842.333 958.484 842.221C958.444 842.109 958.429 842.067 958.405 842.012C958.382 841.957 958.326 841.817 958.285 841.72C958.244 841.624 958.24 841.61 958.219 841.569C958.168 841.459 958.119 841.378 958.074 841.312C958.069 841.306 958.065 841.306 958.062 841.314C957.756 840.864 957.605 841.32 957.626 842.625C957.654 844.374 957.989 847.52 958.56 851.383Z" fill="#92CFB5"/>
<path d="M70.9486 1011.53C72.3069 1011.13 73.6956 1010.68 75.0931 1010.16C77.9174 1009.12 80.7258 1007.87 83.3291 1006.5C85.9323 1005.12 88.2703 1003.65 90.1856 1002.19C91.618 1001.1 92.8 1000.02 93.688 999.005C93.958 998.694 94.1982 998.389 94.4075 998.092C95.053 997.173 95.4132 996.332 95.4763 995.595C95.548 994.642 95.1056 993.888 94.1761 993.375C93.2465 992.861 91.8472 992.599 90.058 992.603C88.2687 992.607 86.1251 992.877 83.7488 993.398C81.3725 993.919 78.8109 994.681 76.2096 995.64L76.1189 995.678C75.5417 995.923 74.9463 996.124 74.3825 996.35L72.5788 997.116L71.7307 997.476L70.717 997.945L69.9191 998.323L68.9172 998.82L68.1833 999.197L67.1769 999.735L66.5223 1000.1L65.4102 1000.74L64.9338 1001.02C64.4256 1001.33 63.9403 1001.64 63.4548 1001.95L63.1918 1002.13C62.8098 1002.39 62.4275 1002.64 62.0683 1002.9L61.6306 1003.22C61.3568 1003.43 61.0631 1003.64 60.8074 1003.84L60.3476 1004.21L59.6704 1004.77C59.5158 1004.9 59.3719 1005.03 59.2385 1005.15L58.6405 1005.7C58.522 1005.82 58.3855 1005.95 58.2694 1006.08C58.1533 1006.21 57.93 1006.43 57.7692 1006.61L57.4389 1006.98C57.2984 1007.15 57.1783 1007.32 57.0402 1007.5L56.7845 1007.85C56.6668 1008.02 56.5671 1008.19 56.4674 1008.35C56.3677 1008.52 56.3302 1008.58 56.2886 1008.68C56.247 1008.79 56.1339 1009.02 56.0593 1009.2C55.9847 1009.38 55.9716 1009.39 55.9456 1009.48C55.8718 1009.71 55.8388 1009.93 55.8214 1010.14C55.8215 1010.17 55.8302 1010.19 55.8472 1010.2C55.7289 1011.63 56.7554 1012.6 58.7978 1012.99C61.5361 1013.53 65.9003 1013 70.9486 1011.53Z" fill="#007681"/>
<path fill-rule="evenodd" clip-rule="evenodd" d="M583.368 897.404L583.369 897.403L581.82 901.849L577.936 913.023L574.292 923.494L574.291 923.493L565.816 912.165L583.366 897.406L583.366 897.403L583.368 897.402L583.368 897.404ZM583.366 897.403L565.815 912.165L562.56 907.807L585.464 891.377L583.366 897.403Z" fill="#CF4C84"/>
<path d="M742.531 1132.32C741.958 1132.62 741.397 1132.95 740.835 1133.28C737.325 1135.34 734.273 1138.09 731.868 1141.37C729.464 1144.65 727.758 1148.38 726.856 1152.35C725.353 1158.96 726.153 1165.88 729.123 1171.97C731.56 1176.96 735.344 1181.16 740.046 1184.11C744.282 1186.78 749.122 1188.33 754.12 1188.63C759.117 1188.93 764.109 1187.97 768.635 1185.83L742.531 1132.32Z" fill="#92CFB5"/>
<path fill-rule="evenodd" clip-rule="evenodd" d="M1273.42 1086.97L1271.24 1086.5L1275.94 1087.52L1275.94 1087.52L1275.94 1087.52L1275.94 1087.52L1282.31 1088.89L1262.8 1067.71L1258.78 1071.55L1258.78 1071.55L1248.35 1081.56L1259.42 1083.95L1271.24 1086.5L1273.42 1086.97Z" fill="#CF4C84"/>
<path fill-rule="evenodd" clip-rule="evenodd" d="M1355.71 959.4L1355.93 961.691L1355.23 954.103L1355.22 954.104L1355.22 954.102L1355.22 954.105L1354.27 943.825L1341.92 988.848L1346.76 991.565L1346.76 991.566L1359.35 998.616L1357.69 980.75L1355.93 961.691L1355.71 959.4Z" fill="#CF4C84"/>
<path d="M76.0732 1137.53C75.6217 1137.38 75.1587 1137.24 74.6957 1137.1C71.8155 1136.24 68.7887 1135.98 65.8027 1136.33C62.8166 1136.68 59.9348 1137.65 57.3356 1139.16C53.0036 1141.68 49.6625 1145.6 47.8658 1150.28C46.3986 1154.11 46.033 1158.28 46.8105 1162.31C47.5044 1165.95 49.1044 1169.35 51.4621 1172.2C53.8199 1175.06 56.8594 1177.27 60.2995 1178.64L76.0732 1137.53Z" fill="#92CFB5"/>
<path fill-rule="evenodd" clip-rule="evenodd" d="M565.808 1135.36L565.808 1135.36L575.998 1137.51L570.329 1142.71L570.329 1142.71L568.147 1144.71L544.747 1130.92L550.611 1132.16L550.608 1132.16L550.609 1132.16L554.893 1133.06L554.936 1133.07L554.937 1133.07L565.808 1135.36Z" fill="#CF4C84"/>
<path fill-rule="evenodd" clip-rule="evenodd" d="M634.415 1085.14L634.415 1085.14L631.485 1080.84L624.121 1070.04L617.22 1059.92L617.22 1059.92L627.07 1059.97L634.414 1085.13L634.414 1085.14L634.415 1085.14L634.415 1085.14ZM634.414 1085.14L627.07 1059.97L630.859 1059.99L638.386 1090.96L634.414 1085.14Z" fill="#CF4C84"/>
<path fill-rule="evenodd" clip-rule="evenodd" d="M947.237 1077.85L947.236 1077.85L956.029 1077.96L978.113 1078.23L998.814 1078.49L998.814 1078.49L989.205 1092.08L947.242 1077.85L947.241 1077.85L947.236 1077.85L947.237 1077.85ZM947.241 1077.85L989.205 1092.08L985.503 1097.31L935.328 1077.7L947.241 1077.85Z" fill="#CF4C84"/>
<path fill-rule="evenodd" clip-rule="evenodd" d="M1259.94 970.508L1259.94 970.508L1265.29 963.536L1278.74 946.018L1291.36 929.6L1291.36 929.6L1296.48 945.439L1259.94 970.505L1259.94 970.505L1259.94 970.508L1259.94 970.508ZM1259.94 970.505L1296.48 945.439L1298.44 951.533L1252.68 979.954L1259.94 970.505Z" fill="#CF4C84"/>
<path d="M1130.84 1058.58C1130.73 1058.84 1130.64 1059.11 1130.55 1059.38C1129.97 1061.06 1129.82 1062.93 1130.12 1064.86C1130.42 1066.8 1131.16 1068.76 1132.29 1070.64C1134.17 1073.76 1137.05 1076.48 1140.45 1078.35C1143.23 1079.87 1146.24 1080.75 1149.14 1080.9C1151.75 1081.03 1154.18 1080.55 1156.2 1079.52C1158.22 1078.48 1159.77 1076.91 1160.71 1074.96L1130.84 1058.58Z" fill="#92CFB5"/>
<path d="M1354.54 811.98C1354.68 812.222 1354.84 812.457 1355.01 812.692C1356 814.162 1357.41 815.396 1359.14 816.316C1360.87 817.237 1362.88 817.826 1365.06 818.045C1368.69 818.411 1372.59 817.736 1376.12 816.132C1379.01 814.816 1381.52 812.936 1383.37 810.705C1385.04 808.694 1386.11 806.465 1386.5 804.224C1386.88 801.983 1386.55 799.802 1385.55 797.883L1354.54 811.98Z" fill="#92CFB5"/>
<path fill-rule="evenodd" clip-rule="evenodd" d="M1393.16 1190.46L1393.16 1190.46L1387.07 1195.63L1371.77 1208.6L1357.42 1220.76L1357.42 1220.76L1355.91 1205.72L1393.15 1190.47L1393.15 1190.46L1393.16 1190.46L1393.16 1190.46ZM1393.15 1190.46L1355.91 1205.72L1355.33 1199.93L1401.41 1183.47L1393.15 1190.46Z" fill="#CF4C84"/>
<path fill-rule="evenodd" clip-rule="evenodd" d="M1617.61 685.888L1617.8 688.991L1617.32 681.019L1617.32 681.021L1617.32 681.019L1617.32 681.022L1616.66 670.221L1602.23 716.975L1607.21 719.982L1607.21 719.982L1620.16 727.786L1619.02 709.016L1617.8 688.991L1617.61 685.888Z" fill="#CF4C84"/>
<path fill-rule="evenodd" clip-rule="evenodd" d="M1619.4 1154.6L1618.33 1156.72L1621.1 1151.26L1621.1 1151.26L1621.1 1151.26L1621.09 1151.26L1624.84 1143.85L1592.33 1160.72L1595.8 1167L1595.8 1167L1604.86 1183.32L1611.38 1170.45L1618.33 1156.72L1619.4 1154.6Z" fill="#CF4C84"/>
<path d="M322.034 1215.08C323.274 1215.62 324.576 1216.14 325.917 1216.63C328.63 1217.6 331.461 1218.41 334.218 1219.01C336.975 1219.6 339.595 1219.96 341.901 1220.07C343.625 1220.15 345.154 1220.09 346.432 1219.89C346.821 1219.83 347.185 1219.75 347.521 1219.66C348.561 1219.38 349.343 1218.99 349.843 1218.49C350.482 1217.83 350.622 1217.01 350.256 1216.06C349.891 1215.11 349.025 1214.05 347.71 1212.95C346.394 1211.86 344.655 1210.73 342.59 1209.65C340.526 1208.57 338.177 1207.55 335.678 1206.66L335.588 1206.63C335.013 1206.45 334.453 1206.23 333.9 1206.05L332.105 1205.5L331.261 1205.25L330.228 1204.97L329.41 1204.75L328.369 1204.5L327.598 1204.32L326.528 1204.1L325.825 1203.96L324.614 1203.75L324.091 1203.66C323.529 1203.57 322.982 1203.5 322.435 1203.43L322.129 1203.4C321.692 1203.36 321.255 1203.31 320.834 1203.27L320.314 1203.24C319.985 1203.22 319.64 1203.2 319.33 1203.19L318.764 1203.18L317.921 1203.17C317.727 1203.17 317.543 1203.18 317.366 1203.19L316.591 1203.22C316.428 1203.24 316.248 1203.25 316.085 1203.27C315.921 1203.29 315.618 1203.32 315.394 1203.35L314.92 1203.42C314.712 1203.46 314.52 1203.51 314.311 1203.55L313.907 1203.65C313.714 1203.71 313.538 1203.77 313.363 1203.83C313.187 1203.89 313.122 1203.91 313.028 1203.96C312.934 1204.01 312.705 1204.12 312.543 1204.2C312.38 1204.28 312.359 1204.29 312.285 1204.34C312.091 1204.46 311.929 1204.6 311.787 1204.75C311.773 1204.76 311.767 1204.78 311.769 1204.81C310.807 1205.78 310.963 1207.12 312.217 1208.67C313.897 1210.75 317.423 1213.05 322.034 1215.08Z" fill="#007681"/>
<path fill-rule="evenodd" clip-rule="evenodd" d="M370.53 1292.65L370.53 1292.65L369.12 1287.49L365.575 1274.53L362.254 1262.38L362.254 1262.38L371.815 1265.72L370.53 1292.64L370.53 1292.64L370.53 1292.65L370.53 1292.65ZM370.53 1292.64L371.815 1265.72L375.491 1267.01L372.441 1299.63L370.53 1292.64Z" fill="#CF4C84"/>
<path d="M661.874 1302.81C661.143 1302.15 660.354 1301.53 659.518 1300.94C657.826 1299.76 655.972 1298.76 654.081 1298.02C652.19 1297.28 650.306 1296.82 648.556 1296.65C647.248 1296.53 646.031 1296.57 644.951 1296.78C644.62 1296.85 644.305 1296.93 644.004 1297.03C643.076 1297.33 642.296 1297.78 641.691 1298.35C640.91 1299.11 640.446 1300.06 640.321 1301.18C640.197 1302.29 640.417 1303.53 640.967 1304.83C641.518 1306.13 642.389 1307.47 643.531 1308.76C644.672 1310.06 646.062 1311.29 647.621 1312.38L647.679 1312.41C648.051 1312.62 648.393 1312.89 648.745 1313.11L649.906 1313.78L650.452 1314.09L651.136 1314.44L651.681 1314.7L652.383 1315.01L652.907 1315.23L653.643 1315.51L654.132 1315.68L654.983 1315.95L655.352 1316.06C655.752 1316.18 656.147 1316.27 656.543 1316.36L656.769 1316.4C657.088 1316.46 657.407 1316.53 657.721 1316.57L658.112 1316.62C658.361 1316.65 658.618 1316.68 658.855 1316.7L659.291 1316.72L659.945 1316.74C660.096 1316.75 660.242 1316.74 660.384 1316.73L661.003 1316.71C661.136 1316.69 661.281 1316.68 661.418 1316.66C661.555 1316.64 661.803 1316.61 661.99 1316.58L662.389 1316.5C662.568 1316.46 662.739 1316.41 662.921 1316.36L663.278 1316.25C663.453 1316.19 663.615 1316.12 663.778 1316.06C663.941 1315.99 664.002 1315.96 664.096 1315.91C664.19 1315.85 664.414 1315.73 664.576 1315.64C664.738 1315.55 664.757 1315.54 664.836 1315.48C665.039 1315.35 665.227 1315.18 665.399 1315.02C665.418 1315 665.432 1314.98 665.44 1314.95C666.607 1313.84 667.064 1312.27 666.756 1310.44C666.344 1307.99 664.591 1305.25 661.874 1302.81Z" fill="#007681"/>
<path d="M857.508 1273.49C857.562 1274.74 857.649 1276.03 857.767 1277.34C858.007 1279.98 858.369 1282.68 858.829 1285.24C859.289 1287.79 859.837 1290.15 860.436 1292.16C860.882 1293.66 861.35 1294.95 861.822 1295.97C861.967 1296.28 862.112 1296.57 862.256 1296.82C862.703 1297.62 863.141 1298.15 863.557 1298.41C864.096 1298.73 864.587 1298.57 865.001 1297.94C865.414 1297.31 865.743 1296.21 865.969 1294.71C866.194 1293.22 866.311 1291.35 866.314 1289.22C866.316 1287.09 866.204 1284.74 865.983 1282.3L865.972 1282.21C865.905 1281.66 865.865 1281.11 865.806 1280.57L865.595 1278.85L865.496 1278.05L865.355 1277.07L865.239 1276.3L865.08 1275.32L864.957 1274.6L864.775 1273.61L864.65 1272.97L864.422 1271.86L864.321 1271.38C864.209 1270.87 864.092 1270.38 863.975 1269.89L863.903 1269.62C863.806 1269.23 863.708 1268.84 863.606 1268.47L863.476 1268.01C863.391 1267.73 863.308 1267.42 863.225 1267.15L863.07 1266.67L862.833 1265.94C862.778 1265.78 862.722 1265.62 862.666 1265.48L862.427 1264.82C862.372 1264.69 862.315 1264.54 862.256 1264.41C862.197 1264.28 862.096 1264.03 862.017 1263.85L861.843 1263.47C861.763 1263.3 861.681 1263.15 861.597 1262.99L861.428 1262.68C861.343 1262.53 861.26 1262.4 861.177 1262.27C861.094 1262.14 861.063 1262.1 861.01 1262.03C860.956 1261.97 860.834 1261.81 860.742 1261.7C860.651 1261.59 860.642 1261.57 860.594 1261.52C860.472 1261.4 860.348 1261.31 860.23 1261.24C860.216 1261.23 860.203 1261.23 860.192 1261.24C859.389 1260.75 858.7 1261.34 858.211 1262.93C857.555 1265.07 857.302 1268.87 857.508 1273.49Z" fill="#007681"/>
<path fill-rule="evenodd" clip-rule="evenodd" d="M1207.32 1306.45L1207.32 1306.45L1206.43 1313.06L1204.18 1329.66L1202.08 1345.22L1202.08 1345.21L1192.73 1336.73L1207.32 1306.46L1207.32 1306.46L1207.32 1306.45L1207.32 1306.45ZM1207.32 1306.46L1192.73 1336.73L1189.14 1333.46L1208.53 1297.5L1207.32 1306.46Z" fill="#CF4C84"/>
<path d="M1327.81 1219.88C1327.51 1218.63 1327.17 1217.33 1326.82 1216.02C1326.1 1213.36 1325.31 1210.66 1324.5 1208.1C1323.69 1205.53 1322.87 1203.17 1322.12 1201.16C1321.55 1199.66 1321.02 1198.38 1320.55 1197.35C1320.4 1197.04 1320.26 1196.76 1320.13 1196.5C1319.72 1195.71 1319.38 1195.18 1319.11 1194.93C1318.76 1194.61 1318.54 1194.78 1318.47 1195.43C1318.4 1196.07 1318.48 1197.18 1318.7 1198.69C1318.92 1200.19 1319.27 1202.07 1319.75 1204.21C1320.23 1206.35 1320.81 1208.72 1321.48 1211.16L1321.5 1211.25C1321.66 1211.8 1321.8 1212.36 1321.95 1212.89L1322.45 1214.62L1322.68 1215.43L1322.97 1216.41L1323.2 1217.18L1323.51 1218.16L1323.73 1218.88L1324.05 1219.87L1324.26 1220.52L1324.62 1221.63L1324.78 1222.11C1324.95 1222.62 1325.12 1223.11 1325.29 1223.6L1325.39 1223.87C1325.53 1224.26 1325.67 1224.65 1325.8 1225.03L1325.97 1225.48C1326.08 1225.77 1326.19 1226.07 1326.29 1226.34L1326.48 1226.83L1326.77 1227.55C1326.83 1227.71 1326.9 1227.87 1326.96 1228.02L1327.23 1228.67C1327.28 1228.8 1327.35 1228.95 1327.41 1229.08C1327.47 1229.21 1327.58 1229.46 1327.66 1229.65L1327.83 1230.02C1327.91 1230.19 1327.99 1230.34 1328.07 1230.5L1328.22 1230.81C1328.3 1230.95 1328.37 1231.08 1328.44 1231.21C1328.51 1231.34 1328.54 1231.39 1328.58 1231.45C1328.62 1231.51 1328.72 1231.67 1328.8 1231.78C1328.87 1231.89 1328.88 1231.91 1328.91 1231.96C1329 1232.08 1329.09 1232.17 1329.16 1232.24C1329.17 1232.24 1329.18 1232.24 1329.18 1232.23C1329.71 1232.72 1329.93 1232.11 1329.82 1230.5C1329.68 1228.34 1328.96 1224.52 1327.81 1219.88Z" fill="#007681"/>
<path d="M1601.71 750.953C1600.52 750.45 1599.29 749.943 1598.02 749.439C1595.47 748.42 1592.83 747.435 1590.29 746.548C1587.76 745.661 1585.38 744.895 1583.32 744.299C1581.77 743.853 1580.43 743.507 1579.33 743.274C1578.99 743.203 1578.68 743.143 1578.4 743.095C1577.52 742.948 1576.89 742.907 1576.52 742.974C1576.06 743.064 1576.07 743.339 1576.54 743.781C1577.01 744.224 1577.94 744.826 1579.28 745.554C1580.62 746.281 1582.34 747.119 1584.34 748.021C1586.34 748.922 1588.58 749.869 1590.94 750.807L1591.02 750.839C1591.56 751.043 1592.09 751.26 1592.61 751.461L1594.29 752.099L1595.08 752.398L1596.03 752.752L1596.79 753.029L1597.76 753.374L1598.47 753.626L1599.45 753.968L1600.1 754.188L1601.2 754.56L1601.68 754.719C1602.19 754.887 1602.69 755.046 1603.18 755.204L1603.46 755.288C1603.85 755.412 1604.25 755.536 1604.63 755.649L1605.09 755.787C1605.39 755.872 1605.7 755.966 1605.97 756.044L1606.48 756.185L1607.23 756.39C1607.4 756.437 1607.56 756.479 1607.71 756.517L1608.4 756.692C1608.54 756.725 1608.7 756.764 1608.84 756.795C1608.98 756.826 1609.24 756.889 1609.44 756.933L1609.85 757.02C1610.02 757.056 1610.19 757.084 1610.37 757.118L1610.71 757.178C1610.87 757.204 1611.02 757.223 1611.16 757.243C1611.31 757.263 1611.36 757.27 1611.44 757.274C1611.51 757.279 1611.7 757.295 1611.83 757.303C1611.96 757.311 1611.98 757.314 1612.04 757.314C1612.19 757.315 1612.31 757.301 1612.42 757.282C1612.43 757.279 1612.43 757.272 1612.42 757.263C1613.12 757.133 1612.77 756.594 1611.42 755.713C1609.6 754.532 1606.12 752.822 1601.71 750.953Z" fill="#007681"/>
<path fill-rule="evenodd" clip-rule="evenodd" d="M1670.57 1245.22L1670.19 1244.96L1673.06 1246.91L1673.06 1246.91L1673.06 1246.91L1676.95 1249.55L1669.63 1230.13L1665.9 1231.61L1665.9 1231.61L1656.23 1235.48L1662.98 1240.07L1670.19 1244.96L1670.57 1245.22Z" fill="#CF4C84"/>
<path d="M308.705 1339.67C308.088 1341.28 307.557 1342.96 307.123 1344.7C306.249 1348.22 305.785 1351.88 305.762 1355.44C305.74 1359 306.159 1362.38 306.992 1365.34C307.612 1367.56 308.448 1369.53 309.471 1371.17C309.785 1371.67 310.118 1372.13 310.466 1372.56C311.548 1373.89 312.77 1374.89 314.092 1375.52C315.813 1376.32 317.675 1376.48 319.573 1375.98C321.471 1375.49 323.367 1374.35 325.153 1372.63C326.939 1370.91 328.58 1368.64 329.981 1365.96C331.383 1363.28 332.519 1360.23 333.323 1356.99L333.341 1356.88C333.459 1356.13 333.679 1355.41 333.818 1354.69L334.186 1352.37L334.359 1351.28L334.492 1349.94L334.581 1348.88L334.65 1347.54L334.677 1346.54L334.674 1345.16L334.647 1344.25L334.555 1342.69L334.505 1342.02C334.436 1341.29 334.339 1340.59 334.241 1339.88L334.16 1339.49C334.066 1338.92 333.972 1338.36 333.849 1337.82L333.68 1337.15C333.564 1336.72 333.464 1336.28 333.345 1335.88L333.107 1335.15L332.729 1334.07C332.64 1333.82 332.542 1333.58 332.436 1333.36L332.006 1332.36C331.895 1332.15 331.788 1331.92 331.664 1331.71C331.54 1331.5 331.34 1331.11 331.176 1330.82L330.802 1330.22C330.622 1329.95 330.425 1329.71 330.232 1329.44L329.83 1328.92C329.621 1328.67 329.408 1328.45 329.195 1328.22C328.982 1328 328.903 1327.92 328.752 1327.8C328.601 1327.68 328.268 1327.39 328.013 1327.18C327.758 1326.97 327.736 1326.95 327.594 1326.85C327.241 1326.61 326.854 1326.4 326.477 1326.22C326.432 1326.2 326.385 1326.2 326.337 1326.2C323.782 1324.99 320.928 1325.22 318.133 1326.88C314.381 1329.09 310.994 1333.69 308.705 1339.67Z" fill="#007681"/>
<path d="M727.435 1464.9C727.448 1464.57 727.444 1464.24 727.441 1463.91C727.43 1461.86 726.998 1459.84 726.172 1457.96C725.347 1456.08 724.145 1454.4 722.641 1453C720.134 1450.68 716.909 1449.28 713.501 1449.05C710.709 1448.85 707.92 1449.44 705.448 1450.76C703.215 1451.93 701.315 1453.65 699.924 1455.76C698.533 1457.87 697.696 1460.29 697.49 1462.81L727.435 1464.9Z" fill="#92CFB5"/>
<path d="M1009.1 1351.86C1008.04 1350.93 1006.95 1349.97 1005.82 1349C1003.54 1347.04 1001.18 1345.07 998.89 1343.23C996.605 1341.39 994.45 1339.72 992.571 1338.33C991.166 1337.28 989.93 1336.41 988.91 1335.74C988.599 1335.53 988.311 1335.35 988.045 1335.18C987.224 1334.68 986.622 1334.37 986.258 1334.26C985.793 1334.14 985.747 1334.37 986.122 1334.94C986.497 1335.51 987.285 1336.42 988.443 1337.6C989.6 1338.79 991.103 1340.23 992.866 1341.85C994.629 1343.47 996.618 1345.23 998.719 1347.03L998.794 1347.1C999.275 1347.5 999.747 1347.91 1000.21 1348.3L1001.71 1349.56L1002.42 1350.15L1003.28 1350.87L1003.96 1351.43L1004.83 1352.13L1005.46 1352.65L1006.35 1353.36L1006.93 1353.83L1007.93 1354.62L1008.36 1354.96C1008.83 1355.32 1009.28 1355.67 1009.73 1356.01L1009.98 1356.2C1010.33 1356.48 1010.69 1356.75 1011.04 1357.01L1011.46 1357.33C1011.73 1357.53 1012.01 1357.74 1012.27 1357.93L1012.73 1358.26L1013.41 1358.76C1013.57 1358.87 1013.72 1358.98 1013.86 1359.08L1014.48 1359.52C1014.61 1359.61 1014.76 1359.71 1014.89 1359.8C1015.02 1359.89 1015.26 1360.05 1015.44 1360.17L1015.82 1360.42C1015.99 1360.53 1016.14 1360.63 1016.31 1360.73L1016.63 1360.93C1016.78 1361.02 1016.91 1361.1 1017.05 1361.18C1017.19 1361.26 1017.24 1361.29 1017.31 1361.33C1017.38 1361.37 1017.56 1361.46 1017.69 1361.53C1017.81 1361.59 1017.83 1361.6 1017.89 1361.62C1018.03 1361.69 1018.15 1361.73 1018.26 1361.76C1018.27 1361.76 1018.27 1361.76 1018.27 1361.75C1018.97 1361.95 1018.73 1361.35 1017.58 1360.03C1016.05 1358.26 1013 1355.33 1009.1 1351.86Z" fill="#007681"/>
<path d="M1171.71 1425.12C1172.78 1425.7 1173.9 1426.28 1175.05 1426.84C1177.39 1427.97 1179.83 1429.02 1182.2 1429.92C1184.57 1430.82 1186.82 1431.55 1188.8 1432.06C1190.28 1432.44 1191.59 1432.69 1192.68 1432.81C1193.02 1432.85 1193.33 1432.87 1193.62 1432.88C1194.51 1432.9 1195.17 1432.8 1195.6 1432.59C1196.14 1432.3 1196.25 1431.81 1195.93 1431.14C1195.61 1430.48 1194.85 1429.65 1193.72 1428.71C1192.58 1427.77 1191.07 1426.73 1189.29 1425.66C1187.51 1424.59 1185.49 1423.5 1183.33 1422.46L1183.26 1422.42C1182.76 1422.2 1182.28 1421.96 1181.8 1421.74L1180.26 1421.05L1179.53 1420.72L1178.64 1420.35L1177.94 1420.06L1177.04 1419.7L1176.38 1419.45L1175.46 1419.1L1174.86 1418.88L1173.81 1418.51L1173.37 1418.36C1172.88 1418.2 1172.41 1418.05 1171.94 1417.9L1171.68 1417.82C1171.3 1417.71 1170.93 1417.59 1170.57 1417.49L1170.12 1417.37C1169.84 1417.3 1169.54 1417.21 1169.28 1417.15L1168.79 1417.03L1168.07 1416.87C1167.9 1416.83 1167.74 1416.8 1167.59 1416.77L1166.93 1416.65C1166.79 1416.63 1166.63 1416.6 1166.49 1416.58C1166.35 1416.56 1166.09 1416.52 1165.9 1416.5L1165.5 1416.45C1165.32 1416.44 1165.15 1416.43 1164.97 1416.42L1164.63 1416.4C1164.46 1416.4 1164.31 1416.4 1164.16 1416.41C1164.01 1416.41 1163.96 1416.41 1163.88 1416.43C1163.8 1416.44 1163.6 1416.46 1163.46 1416.48C1163.32 1416.5 1163.31 1416.5 1163.24 1416.52C1163.08 1416.56 1162.94 1416.62 1162.82 1416.68C1162.81 1416.69 1162.8 1416.7 1162.8 1416.71C1161.99 1417.14 1162.13 1418.01 1163.22 1419.22C1164.68 1420.85 1167.73 1422.97 1171.71 1425.12Z" fill="#007681"/>
<path d="M1269.36 1446.48C1269.28 1445.26 1269.18 1443.99 1269.07 1442.69C1268.83 1440.08 1268.54 1437.41 1268.2 1434.87C1267.86 1432.32 1267.49 1429.97 1267.11 1427.96C1266.83 1426.45 1266.54 1425.16 1266.27 1424.12C1266.18 1423.8 1266.1 1423.51 1266.02 1423.25C1265.77 1422.44 1265.53 1421.89 1265.32 1421.6C1265.04 1421.25 1264.81 1421.37 1264.64 1421.96C1264.46 1422.56 1264.35 1423.61 1264.31 1425.06C1264.26 1426.52 1264.29 1428.34 1264.38 1430.43C1264.48 1432.52 1264.64 1434.84 1264.85 1437.25L1264.86 1437.33C1264.92 1437.88 1264.96 1438.42 1265.01 1438.95L1265.19 1440.65L1265.28 1441.46L1265.39 1442.42L1265.48 1443.19L1265.6 1444.16L1265.69 1444.87L1265.82 1445.86L1265.91 1446.5L1266.07 1447.6L1266.14 1448.08C1266.22 1448.59 1266.3 1449.08 1266.38 1449.57L1266.43 1449.84C1266.49 1450.23 1266.55 1450.62 1266.62 1450.99L1266.7 1451.44C1266.76 1451.73 1266.81 1452.04 1266.86 1452.31L1266.96 1452.79L1267.11 1453.52C1267.14 1453.69 1267.18 1453.84 1267.21 1453.99L1267.36 1454.65C1267.39 1454.78 1267.42 1454.93 1267.46 1455.07C1267.49 1455.2 1267.55 1455.45 1267.6 1455.64L1267.7 1456.02C1267.75 1456.19 1267.79 1456.34 1267.84 1456.51L1267.94 1456.82C1267.98 1456.97 1268.03 1457.11 1268.08 1457.24C1268.12 1457.37 1268.14 1457.42 1268.17 1457.49C1268.2 1457.55 1268.26 1457.72 1268.31 1457.83C1268.36 1457.95 1268.37 1457.97 1268.39 1458.01C1268.46 1458.15 1268.52 1458.24 1268.58 1458.32C1268.59 1458.33 1268.6 1458.33 1268.6 1458.32C1269.01 1458.86 1269.32 1458.33 1269.49 1456.8C1269.71 1454.74 1269.67 1451.04 1269.36 1446.48Z" fill="#007681"/>
<path d="M1526.72 1375.86C1526.67 1375.62 1526.6 1375.38 1526.54 1375.14C1526.14 1373.66 1525.34 1372.25 1524.19 1371C1523.04 1369.76 1521.56 1368.7 1519.84 1367.9C1516.98 1366.57 1513.6 1366.01 1510.25 1366.32C1507.52 1366.58 1504.93 1367.4 1502.78 1368.7C1500.84 1369.87 1499.33 1371.38 1498.38 1373.11C1497.43 1374.83 1497.07 1376.71 1497.35 1378.56L1526.72 1375.86Z" fill="#92CFB5"/>
<path d="M1599.86 963.918C1600.68 964.75 1601.54 965.606 1602.42 966.471C1604.2 968.222 1606.05 969.982 1607.84 971.635C1609.63 973.287 1611.32 974.793 1612.8 976.052C1613.91 976.993 1614.88 977.785 1615.69 978.401C1615.94 978.588 1616.17 978.757 1616.38 978.908C1617.03 979.372 1617.51 979.662 1617.81 979.769C1618.18 979.901 1618.24 979.713 1617.96 979.218C1617.68 978.722 1617.08 977.929 1616.18 976.882C1615.29 975.835 1614.12 974.556 1612.75 973.117C1611.38 971.677 1609.83 970.107 1608.19 968.495L1608.13 968.439C1607.76 968.078 1607.39 967.711 1607.03 967.36L1605.85 966.232L1605.3 965.702L1604.63 965.065L1604.09 964.563L1603.42 963.93L1602.92 963.465L1602.22 962.825L1601.76 962.408L1600.98 961.697L1600.64 961.392C1600.28 961.066 1599.93 960.753 1599.57 960.439L1599.37 960.268C1599.09 960.021 1598.81 959.773 1598.54 959.539L1598.21 959.253C1598 959.073 1597.77 958.881 1597.57 958.713L1597.21 958.409L1596.67 957.96C1596.55 957.857 1596.43 957.761 1596.32 957.671L1595.82 957.269C1595.72 957.188 1595.61 957.096 1595.5 957.016C1595.4 956.936 1595.21 956.785 1595.07 956.674L1594.77 956.446C1594.63 956.347 1594.51 956.261 1594.38 956.164L1594.13 955.981C1594.01 955.896 1593.9 955.822 1593.79 955.748C1593.68 955.674 1593.64 955.646 1593.58 955.612C1593.52 955.578 1593.38 955.489 1593.28 955.429C1593.18 955.369 1593.17 955.36 1593.12 955.336C1593.01 955.271 1592.91 955.231 1592.82 955.201C1592.82 955.199 1592.81 955.202 1592.82 955.211C1592.25 955.007 1592.41 955.516 1593.28 956.673C1594.46 958.224 1596.82 960.826 1599.86 963.918Z" fill="#007681"/>
<path d="M1745.53 963.337C1744.37 963.685 1743.18 964.074 1741.97 964.497C1739.53 965.353 1737.07 966.336 1734.77 967.379C1732.47 968.421 1730.37 969.5 1728.62 970.543C1727.31 971.321 1726.21 972.069 1725.35 972.758C1725.09 972.969 1724.86 973.173 1724.65 973.371C1724 973.981 1723.6 974.522 1723.46 974.976C1723.28 975.562 1723.55 975.986 1724.25 976.226C1724.95 976.465 1726.06 976.515 1727.52 976.371C1728.99 976.228 1730.78 975.894 1732.79 975.39C1734.8 974.885 1736.99 974.219 1739.24 973.43L1739.32 973.4C1739.83 973.205 1740.34 973.036 1740.83 972.853L1742.4 972.245L1743.14 971.959L1744.03 971.593L1744.73 971.3L1745.61 970.918L1746.26 970.631L1747.15 970.224L1747.73 969.951L1748.72 969.473L1749.15 969.264C1749.6 969.037 1750.04 968.81 1750.47 968.582L1750.71 968.45C1751.06 968.265 1751.4 968.081 1751.73 967.896L1752.13 967.665C1752.38 967.517 1752.64 967.366 1752.88 967.224L1753.3 966.962L1753.93 966.566C1754.07 966.475 1754.2 966.385 1754.33 966.297L1754.89 965.916C1755 965.833 1755.13 965.743 1755.24 965.656C1755.35 965.569 1755.56 965.414 1755.71 965.296L1756.03 965.042C1756.17 964.927 1756.28 964.815 1756.42 964.697L1756.67 964.463C1756.79 964.348 1756.89 964.239 1757 964.13C1757.1 964.02 1757.14 963.98 1757.18 963.914C1757.23 963.849 1757.35 963.695 1757.44 963.582C1757.52 963.47 1757.53 963.457 1757.56 963.401C1757.65 963.257 1757.71 963.118 1757.75 962.989C1757.75 962.975 1757.75 962.963 1757.73 962.954C1758.01 962.079 1757.29 961.569 1755.67 961.488C1753.49 961.378 1749.85 962.042 1745.53 963.337Z" fill="#007681"/>
</svg>
