<svg width="1736" height="808" viewBox="0 0 1736 808" fill="none" xmlns="http://www.w3.org/2000/svg">
<mask id="mask0_62_196" style="mask-type:alpha" maskUnits="userSpaceOnUse" x="0" y="0" width="1736" height="808">
<rect width="1736" height="808" fill="#D9D9D9"/>
</mask>
<g mask="url(#mask0_62_196)">
<path fill-rule="evenodd" clip-rule="evenodd" d="M657.392 191.828L659.303 191.568L655.008 192.154L655.008 192.153L655.007 192.153L655.008 192.152L649.189 192.944L668.197 175.279L671.534 179.012L671.534 179.012L680.208 188.728L670.094 190.104L659.302 191.568L657.392 191.828Z" fill="#CF4C84"/>
<path fill-rule="evenodd" clip-rule="evenodd" d="M389.645 305.534L389.643 305.532L393.447 311.795L402.996 327.529L411.95 342.275L411.951 342.274L417.636 329.62L389.649 305.537L389.647 305.535L389.644 305.532L389.645 305.534ZM389.647 305.535L417.637 329.62L419.818 324.751L384.494 297.048L389.647 305.535Z" fill="#CF4C84"/>
<path fill-rule="evenodd" clip-rule="evenodd" d="M1010.29 483.946L1010.29 483.944L1014.09 490.207L1023.64 505.941L1032.6 520.687L1032.6 520.686L1038.28 508.032L1010.3 483.949L1010.29 483.947L1010.29 483.944L1010.29 483.946ZM1010.29 483.947L1038.28 508.032L1040.46 503.163L1005.14 475.46L1010.29 483.947Z" fill="#CF4C84"/>
<path d="M737.994 560.977C737.834 561.184 737.688 561.41 737.541 561.635C736.619 563.028 736.103 564.825 736.025 566.915C735.948 569.005 736.309 571.343 737.088 573.784C738.387 577.854 740.781 582.016 743.875 585.581C746.409 588.499 749.299 590.886 752.217 592.471C754.85 593.908 757.418 594.644 759.683 594.613C761.947 594.582 763.836 593.785 765.174 592.294L737.994 560.977Z" fill="#92CFB5"/>
<path d="M669.661 643.988C669.184 645.388 668.672 646.835 668.134 648.305C667.045 651.277 665.869 654.291 664.683 657.144C663.498 659.996 662.331 662.622 661.261 664.844C660.462 666.505 659.727 667.923 659.083 669.046C658.886 669.387 658.699 669.699 658.522 669.979C657.976 670.844 657.527 671.416 657.19 671.677C656.757 672.005 656.527 671.79 656.51 671.045C656.494 670.3 656.693 669.04 657.096 667.335C657.499 665.631 658.098 663.517 658.859 661.113C659.62 658.71 660.528 656.064 661.53 653.326L661.568 653.23C661.804 652.614 662.025 651.992 662.251 651.394L662.99 649.468L663.338 648.563L663.771 647.47L664.115 646.608L664.557 645.518L664.886 644.717L665.348 643.613L665.653 642.891L666.183 641.657L666.413 641.127C666.661 640.56 666.906 640.013 667.15 639.467L667.29 639.166C667.486 638.734 667.683 638.301 667.876 637.889L668.115 637.384C668.267 637.067 668.425 636.73 668.57 636.432L668.835 635.893L669.233 635.096C669.325 634.913 669.413 634.741 669.499 634.579L669.872 633.861C669.952 633.715 670.04 633.55 670.121 633.404C670.203 633.259 670.352 632.985 670.464 632.785L670.702 632.368C670.808 632.188 670.909 632.028 671.017 631.848L671.227 631.509C671.33 631.35 671.425 631.21 671.52 631.07C671.615 630.929 671.65 630.877 671.705 630.809C671.759 630.742 671.888 630.569 671.981 630.451C672.075 630.332 672.086 630.314 672.131 630.265C672.247 630.133 672.352 630.041 672.447 629.967C672.458 629.961 672.465 629.963 672.468 629.975C673.116 629.475 673.31 630.188 673.026 632.023C672.647 634.484 671.438 638.781 669.661 643.988V643.988Z" fill="#007681"/>
<path d="M246.205 623.355C244.74 623.148 243.222 622.921 241.676 622.676C238.55 622.182 235.363 621.628 232.329 621.049C229.295 620.471 226.484 619.883 224.086 619.325C222.293 618.908 220.75 618.512 219.514 618.154C219.138 618.044 218.792 617.938 218.48 617.837C217.516 617.523 216.857 617.251 216.525 617.03C216.106 616.744 216.258 616.551 216.973 616.462C217.688 616.372 218.951 616.388 220.691 616.507C222.431 616.627 224.612 616.849 227.112 617.161C229.612 617.472 232.381 617.866 235.26 618.321L235.362 618.339C236.013 618.449 236.665 618.548 237.296 618.652L239.329 618.997L240.286 619.16L241.443 619.365L242.357 619.53L243.513 619.743L244.364 619.903L245.539 620.128L246.308 620.278L247.624 620.541L248.19 620.656C248.797 620.78 249.382 620.904 249.968 621.027L250.291 621.099C250.755 621.199 251.22 621.299 251.663 621.399L252.207 621.523C252.549 621.602 252.911 621.683 253.233 621.759L253.816 621.899L254.68 622.11C254.878 622.158 255.065 622.206 255.242 622.252L256.024 622.453C256.183 622.497 256.364 622.544 256.523 622.59C256.683 622.635 256.983 622.716 257.202 622.778L257.661 622.91C257.86 622.97 258.039 623.028 258.238 623.089L258.615 623.209C258.793 623.268 258.951 623.324 259.109 623.379C259.266 623.435 259.326 623.456 259.404 623.489C259.482 623.522 259.679 623.599 259.816 623.656C259.952 623.712 259.972 623.719 260.03 623.747C260.185 623.819 260.299 623.887 260.393 623.95C260.402 623.957 260.401 623.962 260.39 623.966C261.027 624.393 260.386 624.61 258.547 624.592C256.083 624.568 251.65 624.124 246.205 623.355V623.355Z" fill="#007681"/>
<path d="M384.354 620.084C383.932 618.666 383.505 617.192 383.083 615.685C382.229 612.637 381.404 609.509 380.665 606.51C379.925 603.511 379.288 600.711 378.796 598.299C378.428 596.495 378.143 594.928 377.954 593.655C377.897 593.267 377.849 592.909 377.811 592.583C377.694 591.575 377.667 590.863 377.729 590.47C377.814 589.969 378.053 590.028 378.433 590.64C378.812 591.252 379.325 592.407 379.941 594.038C380.557 595.669 381.265 597.745 382.025 600.147C382.784 602.549 383.58 605.23 384.366 608.037L384.393 608.137C384.564 608.775 384.746 609.409 384.915 610.025L385.448 612.018L385.699 612.955L385.995 614.092L386.227 614.991L386.515 616.131L386.725 616.971L387.01 618.134L387.194 618.895L387.503 620.201L387.635 620.763C387.775 621.366 387.907 621.95 388.039 622.534L388.108 622.857C388.211 623.321 388.313 623.785 388.408 624.23L388.521 624.776C388.592 625.12 388.669 625.483 388.734 625.807L388.85 626.395L389.019 627.269C389.058 627.469 389.092 627.658 389.124 627.838L389.267 628.633C389.294 628.796 389.326 628.98 389.351 629.144C389.377 629.308 389.428 629.614 389.463 629.84L389.534 630.312C389.563 630.517 389.585 630.704 389.612 630.91L389.66 631.303C389.681 631.489 389.696 631.656 389.711 631.823C389.727 631.99 389.732 632.052 389.735 632.137C389.738 632.221 389.749 632.433 389.755 632.581C389.76 632.729 389.763 632.749 389.762 632.814C389.761 632.985 389.747 633.116 389.729 633.228C389.726 633.239 389.72 633.24 389.713 633.232C389.59 633.989 389.125 633.497 388.375 631.818C387.37 629.569 385.925 625.354 384.354 620.084V620.084Z" fill="#92CFB5"/>
<path d="M268.021 318.502C266.543 318.425 265.012 318.329 263.45 318.217C260.294 317.988 257.072 317.695 254.001 317.355C250.931 317.016 248.083 316.639 245.65 316.249C243.831 315.959 242.263 315.665 241.005 315.38C240.621 315.293 240.269 315.206 239.95 315.121C238.966 314.858 238.29 314.61 237.944 314.384C237.506 314.091 237.646 313.843 238.354 313.653C239.063 313.463 240.326 313.336 242.073 313.278C243.82 313.22 246.015 313.232 248.534 313.314C251.053 313.397 253.846 313.548 256.754 313.758L256.857 313.767C257.515 313.824 258.173 313.866 258.81 313.917L260.865 314.094L261.831 314.178L263.001 314.289L263.925 314.38L265.095 314.501L265.956 314.593L267.145 314.726L267.924 314.817L269.257 314.978L269.83 315.049C270.444 315.128 271.037 315.208 271.631 315.288L271.958 315.336C272.429 315.402 272.899 315.467 273.349 315.535L273.901 315.62C274.248 315.676 274.615 315.731 274.942 315.784L275.534 315.884L276.411 316.035C276.612 316.07 276.802 316.105 276.981 316.14L277.776 316.29C277.939 316.324 278.122 316.359 278.285 316.395C278.447 316.431 278.752 316.493 278.976 316.541L279.443 316.646C279.645 316.695 279.828 316.743 280.03 316.793L280.415 316.893C280.597 316.943 280.758 316.991 280.92 317.039C281.081 317.087 281.142 317.105 281.222 317.135C281.302 317.166 281.504 317.235 281.645 317.287C281.785 317.339 281.805 317.344 281.865 317.371C282.024 317.439 282.143 317.507 282.241 317.571C282.25 317.579 282.249 317.585 282.239 317.591C282.903 318.027 282.276 318.361 280.438 318.552C277.974 318.809 273.514 318.791 268.021 318.502V318.502Z" fill="#007681"/>
<path d="M888.669 496.914C887.192 496.837 885.66 496.741 884.099 496.628C880.942 496.4 877.72 496.106 874.65 495.767C871.58 495.428 868.732 495.051 866.299 494.661C864.48 494.37 862.912 494.077 861.653 493.792C861.269 493.704 860.917 493.618 860.599 493.533C859.614 493.27 858.938 493.021 858.592 492.796C858.154 492.503 858.294 492.255 859.003 492.065C859.711 491.875 860.975 491.748 862.722 491.689C864.468 491.631 866.664 491.644 869.183 491.726C871.702 491.809 874.495 491.959 877.402 492.17L877.505 492.179C878.163 492.235 878.821 492.278 879.459 492.329L881.513 492.506L882.48 492.59L883.65 492.701L884.574 492.792L885.743 492.912L886.605 493.005L887.794 493.138L888.573 493.228L889.905 493.39L890.478 493.461C891.092 493.539 891.686 493.619 892.279 493.699L892.607 493.747C893.077 493.813 893.548 493.879 893.997 493.947L894.549 494.032C894.896 494.087 895.264 494.142 895.59 494.196L896.182 494.296L897.06 494.447C897.261 494.482 897.451 494.517 897.63 494.552L898.425 494.702C898.587 494.736 898.77 494.771 898.933 494.807C899.096 494.842 899.4 494.905 899.624 494.953L900.091 495.058C900.294 495.106 900.476 495.154 900.679 495.204L901.063 495.304C901.245 495.354 901.407 495.402 901.568 495.451C901.73 495.499 901.79 495.517 901.87 495.547C901.951 495.577 902.152 495.647 902.293 495.699C902.433 495.751 902.453 495.756 902.513 495.783C902.673 495.851 902.791 495.919 902.889 495.983C902.898 495.99 902.898 495.997 902.887 496.003C903.552 496.439 902.925 496.773 901.086 496.964C898.622 497.22 894.162 497.203 888.669 496.914V496.914Z" fill="#007681"/>
<path d="M15.8477 422.388C16.6999 423.602 17.553 424.88 18.3934 426.201C20.0912 428.874 21.7059 431.678 23.1287 434.424C24.5514 437.17 25.7494 439.795 26.642 442.123C27.3101 443.862 27.8025 445.415 28.1008 446.724C28.1909 447.123 28.2615 447.498 28.3123 447.845C28.4678 448.919 28.4423 449.741 28.2367 450.286C27.9636 450.983 27.3844 451.188 26.5334 450.89C25.6824 450.592 24.5757 449.797 23.2766 448.549C21.9774 447.301 20.5115 445.626 18.9621 443.618C17.4127 441.61 15.8106 439.31 14.2471 436.848L14.1943 436.759C13.8584 436.191 13.4941 435.64 13.1615 435.094L12.1118 433.319L11.6182 432.484L11.0416 431.459L10.5907 430.647L10.0321 429.612L9.62722 428.845L9.07946 427.779L8.72742 427.077L8.1382 425.867L7.88765 425.345C7.62308 424.783 7.37632 424.234 7.12944 423.685L7.00087 423.377C6.80977 422.939 6.61849 422.501 6.44508 422.076L6.23716 421.552C6.10904 421.22 5.96707 420.874 5.84945 420.56L5.64208 419.988L5.34152 419.134C5.27354 418.939 5.21286 418.751 5.15928 418.572L4.91155 417.784C4.86712 417.618 4.81221 417.435 4.77137 417.267C4.73054 417.1 4.64515 416.791 4.5872 416.562L4.47522 416.077C4.43137 415.863 4.40158 415.665 4.36132 415.45L4.29496 415.034C4.26879 414.833 4.25313 414.651 4.23746 414.469C4.22179 414.286 4.21556 414.218 4.22031 414.12C4.22505 414.021 4.22388 413.781 4.22949 413.61C4.23511 413.439 4.23194 413.417 4.24359 413.338C4.26747 413.133 4.31961 412.958 4.37858 412.803C4.38676 412.787 4.40005 412.779 4.41812 412.78C4.81728 411.732 5.89462 411.787 7.5148 412.938C9.6881 414.48 12.681 417.874 15.8477 422.388V422.388Z" fill="#007681"/>
<path fill-rule="evenodd" clip-rule="evenodd" d="M475.738 70.3794L475.74 70.3775L473.148 75.9543L466.645 89.9642L460.547 103.095L460.546 103.095L455.272 93.7896L475.736 70.3821L475.737 70.38L475.739 70.3773L475.738 70.3794ZM475.737 70.38L455.271 93.7894L453.247 90.2077L479.246 62.8231L475.737 70.38Z" fill="#CF4C84"/>
<path fill-rule="evenodd" clip-rule="evenodd" d="M1096.38 248.791L1096.39 248.789L1093.79 254.366L1087.29 268.376L1081.19 281.507L1081.19 281.506L1075.92 272.201L1096.38 248.794L1096.38 248.792L1096.39 248.789L1096.38 248.791ZM1096.38 248.792L1075.92 272.201L1073.89 268.619L1099.89 241.235L1096.38 248.792Z" fill="#CF4C84"/>
<path d="M752.053 34.7588C752.657 35.8451 753.294 36.9654 753.956 38.1019C755.294 40.3993 756.705 42.7219 758.094 44.9132C759.484 47.1045 760.82 49.1138 762.012 50.806C762.903 52.0712 763.703 53.1459 764.383 53.9903C764.591 54.2474 764.786 54.4811 764.967 54.6902C765.529 55.3359 765.967 55.7544 766.265 55.932C766.647 56.1544 766.783 55.9569 766.664 55.3523C766.546 54.7477 766.176 53.7472 765.575 52.4077C764.974 51.0683 764.154 49.4165 763.162 47.5463C762.169 45.6761 761.025 43.6246 759.792 41.5085L759.747 41.4338C759.462 40.9586 759.187 40.4776 758.913 40.0156L758.021 38.5306L757.601 37.8323L757.085 36.9907L756.675 36.3268L756.153 35.4891L755.765 34.8733L755.225 34.025L754.87 33.471L754.256 32.5253L753.99 32.1191C753.705 31.6845 753.425 31.2665 753.146 30.8482L752.989 30.6189C752.765 30.2882 752.542 29.9573 752.325 29.643L752.057 29.2584C751.887 29.0168 751.71 28.7599 751.549 28.5332L751.255 28.1234L750.817 27.5173C750.716 27.3786 750.62 27.2482 750.527 27.1259L750.121 26.5815C750.035 26.4712 749.94 26.3461 749.854 26.2366C749.767 26.1271 749.607 25.9202 749.488 25.7692L749.236 25.4557C749.125 25.3204 749.022 25.2007 748.909 25.0662L748.692 24.8129C748.587 24.694 748.491 24.5899 748.395 24.4859C748.299 24.3819 748.263 24.3429 748.211 24.2936C748.158 24.2443 748.031 24.1177 747.94 24.0308C747.849 23.944 747.838 23.9309 747.795 23.8956C747.685 23.8002 747.59 23.736 747.506 23.6859C747.497 23.6817 747.492 23.6846 747.491 23.6944C746.917 23.3543 746.896 23.9506 747.431 25.4084C748.147 27.3624 749.807 30.7208 752.053 34.7588V34.7588Z" fill="#007681"/>
<path fill-rule="evenodd" clip-rule="evenodd" d="M943.728 92.002L948.22 86.9623L921.183 101.133L922.04 104.658L922.041 104.658L924.283 113.822L924.283 113.822L932.089 105.064L940.414 95.7195L943.73 92.0004L943.728 92.002Z" fill="#CF4C84"/>
<path d="M1169.67 87.3869C1170.14 89.0823 1170.67 90.8169 1171.28 92.5636C1172.51 96.0937 1174 99.6087 1175.66 102.871C1177.31 106.134 1179.08 109.07 1180.86 111.48C1182.18 113.283 1183.49 114.774 1184.74 115.899C1185.12 116.241 1185.49 116.546 1185.85 116.812C1186.98 117.634 1188.02 118.099 1188.93 118.194C1190.11 118.303 1191.06 117.77 1191.72 116.627C1192.37 115.484 1192.73 113.752 1192.76 111.529C1192.8 109.307 1192.51 106.639 1191.91 103.677C1191.32 100.714 1190.43 97.5164 1189.29 94.265L1189.25 94.1515C1188.96 93.4294 1188.72 92.6856 1188.45 91.9805L1187.54 89.7239L1187.11 88.6628L1186.55 87.3938L1186.1 86.3946L1185.5 85.1395L1185.05 84.2199L1184.4 82.9585L1183.97 82.1376L1183.19 80.7426L1182.86 80.1448C1182.49 79.507 1182.11 78.8976 1181.74 78.2879L1181.51 77.9572C1181.21 77.4774 1180.9 76.9971 1180.59 76.5454L1180.2 75.9948C1179.94 75.6503 1179.69 75.281 1179.45 74.9591L1179 74.3801L1178.31 73.5268C1178.16 73.332 1178 73.1506 1177.84 72.9821L1177.18 72.2276C1177.03 72.0778 1176.87 71.9055 1176.71 71.7585C1176.56 71.6115 1176.28 71.3293 1176.07 71.1258L1175.61 70.7075C1175.4 70.5294 1175.2 70.3765 1174.98 70.2012L1174.55 69.876C1174.34 69.7261 1174.13 69.5987 1173.93 69.4712C1173.73 69.3438 1173.65 69.2959 1173.52 69.242C1173.4 69.1881 1173.11 69.0425 1172.89 68.9461C1172.67 68.8496 1172.65 68.8329 1172.54 68.7988C1172.26 68.7022 1171.98 68.6564 1171.72 68.6302C1171.69 68.6298 1171.67 68.6401 1171.65 68.661C1169.88 68.4832 1168.66 69.7371 1168.12 72.2648C1167.4 75.654 1167.95 81.0854 1169.67 87.3869V87.3869Z" fill="#007681"/>
<path d="M1458.89 73.0286C1459.12 73.2887 1459.36 73.5375 1459.6 73.7864C1461.1 75.3459 1463.05 76.536 1465.32 77.283C1467.59 78.03 1470.13 78.3182 1472.79 78.1294C1477.23 77.8146 1481.78 76.1919 1485.69 73.5302C1488.88 71.3485 1491.51 68.5673 1493.27 65.5018C1494.86 62.7377 1495.69 59.8353 1495.68 57.0628C1495.67 54.2903 1494.83 51.7373 1493.23 49.6403L1458.89 73.0286Z" fill="#92CFB5"/>
<path d="M151.957 148.546C152.387 147.329 152.803 146.059 153.199 144.755C153.997 142.118 154.694 139.391 155.244 136.757C155.794 134.123 156.184 131.643 156.388 129.484C156.541 127.87 156.59 126.454 156.534 125.287C156.516 124.931 156.488 124.601 156.449 124.298C156.329 123.362 156.115 122.679 155.815 122.271C155.423 121.75 154.89 121.714 154.247 122.162C153.603 122.611 152.862 123.536 152.065 124.886C151.268 126.235 150.431 127.982 149.602 130.027C148.774 132.072 147.969 134.374 147.234 136.802L147.211 136.89C147.062 137.444 146.886 137.991 146.735 138.526L146.271 140.26L146.052 141.075L145.809 142.068L145.621 142.854L145.394 143.852L145.235 144.589L145.025 145.611L144.894 146.281L144.683 147.433L144.595 147.929C144.505 148.462 144.427 148.98 144.348 149.498L144.312 149.785C144.255 150.197 144.197 150.609 144.151 151.006L144.099 151.494C144.069 151.801 144.032 152.125 144.006 152.416L143.966 152.944L143.914 153.729C143.903 153.909 143.896 154.08 143.893 154.243L143.87 154.961C143.871 155.11 143.868 155.277 143.873 155.427C143.878 155.577 143.878 155.855 143.884 156.061L143.903 156.493C143.916 156.683 143.938 156.856 143.954 157.046L143.996 157.41C144.021 157.584 144.05 157.74 144.08 157.897C144.109 158.053 144.12 158.112 144.147 158.193C144.174 158.275 144.229 158.476 144.274 158.618C144.319 158.76 144.321 158.779 144.349 158.843C144.418 159.01 144.502 159.143 144.588 159.259C144.598 159.271 144.611 159.274 144.626 159.27C145.206 160.055 146.096 159.757 147.184 158.413C148.645 156.613 150.359 153.069 151.957 148.546V148.546Z" fill="#007681"/>
<path d="M556.305 146.231C555.912 146.582 555.534 146.956 555.155 147.329C552.783 149.644 550.912 152.422 549.657 155.489C548.401 158.557 547.789 161.849 547.858 165.163C547.972 170.686 549.97 176.004 553.52 180.237C556.431 183.699 560.253 186.278 564.553 187.682C568.429 188.956 572.564 189.232 576.576 188.484C580.588 187.736 584.346 185.989 587.503 183.404L556.305 146.231Z" fill="#92CFB5"/>
<path d="M1176.95 324.643C1176.56 324.994 1176.18 325.367 1175.8 325.741C1173.43 328.056 1171.56 330.833 1170.3 333.901C1169.05 336.969 1168.44 340.261 1168.51 343.575C1168.62 349.098 1170.62 354.416 1174.17 358.648C1177.08 362.111 1180.9 364.69 1185.2 366.094C1189.08 367.368 1193.21 367.644 1197.22 366.896C1201.24 366.148 1204.99 364.401 1208.15 361.815L1176.95 324.643Z" fill="#92CFB5"/>
<path d="M1494.29 165.65C1494.87 164.884 1495.46 164.078 1496.04 163.243C1497.22 161.553 1498.35 159.777 1499.34 158.032C1500.34 156.287 1501.19 154.615 1501.84 153.128C1502.32 152.017 1502.68 151.022 1502.91 150.18C1502.98 149.923 1503.04 149.682 1503.08 149.458C1503.21 148.764 1503.21 148.23 1503.1 147.87C1502.94 147.41 1502.57 147.261 1502.01 147.431C1501.44 147.601 1500.7 148.088 1499.83 148.863C1498.95 149.638 1497.95 150.686 1496.89 151.947C1495.83 153.209 1494.73 154.659 1493.64 156.215L1493.61 156.272C1493.37 156.631 1493.12 156.979 1492.89 157.325L1492.16 158.449L1491.82 158.978L1491.41 159.627L1491.1 160.142L1490.71 160.799L1490.42 161.286L1490.04 161.964L1489.79 162.41L1489.38 163.18L1489.2 163.512C1489.01 163.87 1488.84 164.219 1488.66 164.569L1488.57 164.766C1488.43 165.045 1488.3 165.324 1488.17 165.595L1488.02 165.93C1487.93 166.142 1487.83 166.363 1487.74 166.564L1487.59 166.93L1487.38 167.476C1487.33 167.601 1487.28 167.721 1487.24 167.836L1487.06 168.341C1487.03 168.447 1486.99 168.565 1486.95 168.673C1486.92 168.78 1486.86 168.978 1486.82 169.126L1486.73 169.437C1486.7 169.575 1486.67 169.703 1486.64 169.842L1486.58 170.11C1486.56 170.239 1486.55 170.358 1486.53 170.476C1486.52 170.594 1486.51 170.638 1486.51 170.702C1486.51 170.766 1486.5 170.922 1486.5 171.033C1486.5 171.144 1486.5 171.158 1486.5 171.21C1486.51 171.344 1486.54 171.459 1486.58 171.561C1486.58 171.572 1486.59 171.577 1486.6 171.577C1486.83 172.269 1487.53 172.262 1488.62 171.559C1490.07 170.617 1492.11 168.495 1494.29 165.65V165.65Z" fill="#007681"/>
<path d="M1650.38 155.228C1650.95 155.361 1651.53 155.467 1652.1 155.573C1655.7 156.251 1659.39 156.185 1662.96 155.378C1666.52 154.571 1669.88 153.041 1672.84 150.883C1677.75 147.285 1681.3 142.114 1682.87 136.229C1684.16 131.408 1684.07 126.323 1682.62 121.549C1681.32 117.24 1678.95 113.329 1675.74 110.177C1672.52 107.025 1668.57 104.735 1664.23 103.518L1650.38 155.228Z" fill="#92CFB5"/>
<path d="M319.347 82.3143C318.234 81.6721 317.054 81.0849 315.825 80.5621C313.339 79.5085 310.697 78.7398 308.078 78.3079C305.458 77.876 302.921 77.7909 300.638 78.0581C298.931 78.2558 297.387 78.6425 296.062 79.2045C295.657 79.378 295.275 79.5683 294.918 79.7748C293.813 80.4163 292.937 81.2001 292.319 82.1003C291.525 83.2736 291.191 84.6269 291.335 86.0823C291.478 87.5378 292.096 89.067 293.155 90.5829C294.213 92.0987 295.691 93.5712 297.503 94.9164C299.315 96.2617 301.426 97.4532 303.716 98.4229L303.8 98.4502C304.334 98.6235 304.843 98.87 305.354 99.0563L307.021 99.598L307.805 99.8528L308.773 100.107L309.542 100.295L310.525 100.503L311.255 100.639L312.272 100.798L312.944 100.885L314.106 100.999L314.608 101.04C315.15 101.075 315.681 101.085 316.212 101.096L316.512 101.082C316.937 101.078 317.363 101.074 317.777 101.047L318.29 101.001C318.615 100.965 318.954 100.943 319.262 100.902L319.826 100.811L320.668 100.66C320.862 100.623 321.048 100.578 321.227 100.527L322.011 100.326C322.178 100.269 322.36 100.217 322.53 100.15C322.699 100.084 323.008 99.9817 323.239 99.8947L323.73 99.6896C323.947 99.588 324.151 99.4719 324.371 99.3611L324.798 99.1251C325.004 98.9998 325.194 98.8691 325.384 98.7384C325.574 98.6077 325.645 98.5598 325.75 98.4624C325.856 98.3649 326.11 98.1537 326.292 97.9901C326.474 97.8265 326.496 97.8135 326.582 97.7198C326.805 97.4883 327 97.2276 327.176 96.9707C327.194 96.9398 327.205 96.906 327.208 96.87C328.399 95.1298 328.558 93.0007 327.667 90.7498C326.474 87.728 323.486 84.6982 319.347 82.3143V82.3143Z" fill="#007681"/>
<path d="M939.994 260.726C938.881 260.084 937.7 259.497 936.471 258.974C933.985 257.92 931.344 257.152 928.724 256.72C926.104 256.288 923.567 256.203 921.284 256.47C919.578 256.668 918.033 257.054 916.708 257.616C916.304 257.79 915.922 257.98 915.564 258.187C914.459 258.828 913.583 259.612 912.965 260.512C912.172 261.685 911.838 263.039 911.981 264.494C912.124 265.949 912.743 267.479 913.801 268.995C914.86 270.51 916.337 271.983 918.149 273.328C919.962 274.673 922.073 275.865 924.363 276.835L924.447 276.862C924.98 277.035 925.49 277.282 926 277.468L927.668 278.01L928.452 278.265L929.42 278.518L930.188 278.707L931.171 278.915L931.901 279.051L932.919 279.21L933.591 279.296L934.753 279.41L935.255 279.452C935.797 279.486 936.328 279.497 936.859 279.507L937.159 279.493C937.584 279.49 938.009 279.486 938.424 279.459L938.937 279.413C939.262 279.377 939.6 279.355 939.909 279.313L940.472 279.223L941.315 279.071C941.508 279.035 941.695 278.99 941.874 278.939L942.658 278.738C942.824 278.681 943.007 278.629 943.176 278.562C943.345 278.495 943.654 278.393 943.886 278.306L944.376 278.101C944.593 278 944.797 277.884 945.017 277.773L945.444 277.537C945.651 277.412 945.841 277.281 946.031 277.15C946.221 277.019 946.291 276.972 946.397 276.874C946.502 276.777 946.756 276.565 946.938 276.402C947.12 276.238 947.143 276.225 947.229 276.132C947.451 275.9 947.646 275.639 947.822 275.382C947.841 275.352 947.852 275.318 947.855 275.282C949.045 273.542 949.204 271.412 948.313 269.162C947.121 266.14 944.133 263.11 939.994 260.726V260.726Z" fill="#007681"/>
<path d="M1435.17 373.041C1434.06 372.399 1432.88 371.812 1431.65 371.289C1429.16 370.236 1426.52 369.467 1423.9 369.035C1421.28 368.603 1418.75 368.518 1416.46 368.785C1414.76 368.983 1413.21 369.37 1411.89 369.932C1411.48 370.105 1411.1 370.295 1410.74 370.502C1409.64 371.143 1408.76 371.927 1408.14 372.827C1407.35 374.001 1407.02 375.354 1407.16 376.809C1407.3 378.265 1407.92 379.794 1408.98 381.31C1410.04 382.826 1411.51 384.298 1413.33 385.644C1415.14 386.989 1417.25 388.18 1419.54 389.15L1419.62 389.177C1420.16 389.351 1420.67 389.597 1421.18 389.783L1422.85 390.325L1423.63 390.58L1424.6 390.834L1425.37 391.022L1426.35 391.23L1427.08 391.366L1428.1 391.525L1428.77 391.612L1429.93 391.726L1430.43 391.767C1430.97 391.802 1431.51 391.812 1432.04 391.823L1432.34 391.809C1432.76 391.805 1433.19 391.802 1433.6 391.774L1434.11 391.728C1434.44 391.692 1434.78 391.67 1435.09 391.629L1435.65 391.538L1436.49 391.387C1436.69 391.35 1436.87 391.306 1437.05 391.254L1437.84 391.053C1438 390.996 1438.18 390.944 1438.35 390.877C1438.52 390.811 1438.83 390.709 1439.06 390.622L1439.55 390.417C1439.77 390.315 1439.97 390.199 1440.2 390.088L1440.62 389.852C1440.83 389.727 1441.02 389.596 1441.21 389.465C1441.4 389.335 1441.47 389.287 1441.57 389.189C1441.68 389.092 1441.93 388.881 1442.12 388.717C1442.3 388.554 1442.32 388.541 1442.41 388.447C1442.63 388.215 1442.82 387.955 1443 387.698C1443.02 387.667 1443.03 387.633 1443.03 387.597C1444.22 385.857 1444.38 383.728 1443.49 381.477C1442.3 378.455 1439.31 375.425 1435.17 373.041V373.041Z" fill="#007681"/>
<path d="M685.973 246.64C686.261 245.279 686.545 243.865 686.82 242.419C687.377 239.497 687.891 236.499 688.326 233.628C688.761 230.758 689.108 228.08 689.344 225.775C689.52 224.053 689.633 222.558 689.679 221.345C689.692 220.976 689.699 220.635 689.699 220.325C689.699 219.367 689.637 218.693 689.515 218.324C689.355 217.855 689.096 217.923 688.752 218.52C688.408 219.118 687.986 220.234 687.51 221.807C687.035 223.379 686.515 225.376 685.979 227.684C685.444 229.992 684.905 232.565 684.392 235.257L684.375 235.353C684.268 235.964 684.147 236.572 684.039 237.164L683.702 239.073L683.544 239.971L683.362 241.06L683.221 241.922L683.047 243.013L682.922 243.818L682.755 244.93L682.649 245.659L682.473 246.909L682.399 247.447C682.321 248.023 682.25 248.582 682.179 249.14L682.144 249.449C682.09 249.892 682.035 250.336 681.988 250.761L681.932 251.282C681.898 251.611 681.859 251.958 681.828 252.268L681.776 252.829L681.701 253.663C681.684 253.854 681.67 254.035 681.658 254.206L681.602 254.964C681.593 255.12 681.581 255.295 681.574 255.452C681.567 255.608 681.55 255.9 681.54 256.115L681.522 256.564C681.517 256.76 681.516 256.937 681.512 257.134L681.51 257.507C681.511 257.685 681.516 257.843 681.521 258.001C681.525 258.16 681.527 258.219 681.535 258.299C681.543 258.379 681.558 258.579 681.571 258.72C681.584 258.86 681.584 258.879 681.594 258.94C681.617 259.101 681.65 259.225 681.684 259.33C681.689 259.34 681.695 259.341 681.703 259.333C681.938 260.042 682.393 259.554 683.012 257.93C683.842 255.754 684.905 251.699 685.973 246.64V246.64Z" fill="#007681"/>
<path d="M1432.42 265.78C1432.41 264.242 1432.39 262.646 1432.35 261.018C1432.27 257.728 1432.14 254.366 1431.96 251.158C1431.79 247.951 1431.57 244.973 1431.32 242.423C1431.14 240.518 1430.95 238.873 1430.75 237.549C1430.69 237.146 1430.63 236.775 1430.57 236.44C1430.38 235.402 1430.19 234.685 1430 234.313C1429.77 233.841 1429.55 233.972 1429.36 234.696C1429.17 235.42 1429.01 236.724 1428.89 238.534C1428.77 240.344 1428.7 242.624 1428.68 245.244C1428.65 247.864 1428.67 250.772 1428.75 253.803L1428.75 253.911C1428.77 254.597 1428.78 255.282 1428.8 255.947L1428.88 258.091L1428.91 259.099L1428.97 260.32L1429.01 261.285L1429.07 262.506L1429.12 263.405L1429.19 264.648L1429.24 265.462L1429.32 266.855L1429.36 267.454C1429.41 268.096 1429.45 268.717 1429.5 269.337L1429.53 269.68C1429.57 270.172 1429.61 270.665 1429.65 271.136L1429.7 271.714C1429.74 272.077 1429.77 272.462 1429.8 272.804L1429.87 273.425L1429.97 274.344C1429.99 274.555 1430.01 274.754 1430.03 274.943L1430.13 275.776C1430.16 275.947 1430.18 276.14 1430.21 276.311C1430.23 276.481 1430.27 276.801 1430.31 277.036L1430.38 277.527C1430.41 277.741 1430.45 277.933 1430.48 278.146L1430.55 278.552C1430.59 278.743 1430.63 278.914 1430.66 279.084C1430.7 279.255 1430.71 279.319 1430.73 279.404C1430.76 279.489 1430.81 279.702 1430.85 279.851C1430.89 280 1430.89 280.021 1430.91 280.085C1430.97 280.255 1431.02 280.382 1431.07 280.487C1431.08 280.497 1431.08 280.497 1431.09 280.486C1431.44 281.202 1431.75 280.571 1431.99 278.673C1432.31 276.13 1432.46 271.5 1432.42 265.78V265.78Z" fill="#92CFB5"/>
<path fill-rule="evenodd" clip-rule="evenodd" d="M153.294 410.841L152.155 421.373L152.155 421.373L151.085 431.244L141.407 423.066L141.407 423.066L137.689 419.92L154.364 400.97L153.748 406.65L153.749 406.648L153.749 406.649L153.294 410.841L153.294 410.841Z" fill="#CF4C84"/>
<path d="M648.779 444.438C649.082 444.843 649.407 445.236 649.732 445.629C651.745 448.087 654.242 450.107 657.067 451.562C659.892 453.017 662.985 453.877 666.156 454.088C671.441 454.44 676.687 452.977 681.026 449.939C684.576 447.449 687.359 444.014 689.059 440.024C690.6 436.428 691.209 432.502 690.83 428.608C690.451 424.714 689.096 420.978 686.89 417.746L648.779 444.438Z" fill="#92CFB5"/>
<path d="M972.56 503.383C972.713 504.422 972.881 505.498 973.061 506.595C973.426 508.812 973.834 511.073 974.258 513.224C974.682 515.376 975.112 517.369 975.52 519.069C975.824 520.34 976.111 521.433 976.371 522.309C976.451 522.576 976.528 522.821 976.601 523.042C976.828 523.725 977.024 524.192 977.183 524.427C977.387 524.723 977.524 524.614 977.584 524.106C977.645 523.598 977.628 522.701 977.535 521.467C977.442 520.232 977.275 518.684 977.043 516.91C976.811 515.137 976.518 513.173 976.182 511.131L976.169 511.058C976.088 510.597 976.015 510.134 975.938 509.687L975.684 508.245L975.564 507.566L975.413 506.746L975.292 506.098L975.136 505.278L975.019 504.674L974.853 503.841L974.743 503.295L974.551 502.362L974.467 501.961C974.376 501.531 974.286 501.116 974.195 500.7L974.143 500.471C974.07 500.142 973.997 499.813 973.924 499.499L973.833 499.113C973.775 498.87 973.716 498.614 973.661 498.385L973.559 497.972L973.405 497.359C973.37 497.219 973.336 497.087 973.302 496.962L973.156 496.407C973.124 496.294 973.089 496.166 973.056 496.053C973.024 495.94 972.965 495.728 972.92 495.572L972.824 495.247C972.78 495.106 972.739 494.979 972.695 494.838L972.608 494.571C972.565 494.445 972.525 494.333 972.484 494.221C972.444 494.109 972.429 494.067 972.405 494.012C972.382 493.957 972.326 493.817 972.285 493.72C972.244 493.624 972.24 493.61 972.219 493.569C972.168 493.459 972.119 493.378 972.074 493.312C972.069 493.306 972.065 493.306 972.062 493.314C971.756 492.864 971.605 493.32 971.626 494.625C971.654 496.374 971.989 499.52 972.56 503.383V503.383Z" fill="#92CFB5"/>
<path d="M84.9486 663.529C86.3069 663.134 87.6956 662.675 89.0931 662.162C91.9174 661.121 94.7258 659.872 97.3291 658.496C99.9323 657.121 102.27 655.652 104.186 654.189C105.618 653.096 106.8 652.022 107.688 651.005C107.958 650.694 108.198 650.389 108.408 650.092C109.053 649.173 109.413 648.332 109.476 647.595C109.548 646.642 109.106 645.888 108.176 645.375C107.246 644.861 105.847 644.599 104.058 644.603C102.269 644.607 100.125 644.877 97.7488 645.398C95.3725 645.919 92.8109 646.681 90.2096 647.64L90.1189 647.678C89.5417 647.923 88.9463 648.124 88.3825 648.35L86.5788 649.116L85.7307 649.476L84.717 649.945L83.9191 650.323L82.9172 650.82L82.1833 651.197L81.1769 651.735L80.5223 652.098L79.4102 652.739L78.9338 653.02C78.4256 653.327 77.9403 653.638 77.4548 653.948L77.1918 654.132C76.8098 654.385 76.4275 654.639 76.0683 654.896L75.6306 655.219C75.3568 655.426 75.0631 655.636 74.8074 655.836L74.3476 656.207L73.6704 656.769C73.5158 656.899 73.3719 657.027 73.2385 657.154L72.6405 657.702C72.522 657.824 72.3855 657.954 72.2694 658.081C72.1533 658.209 71.93 658.434 71.7692 658.607L71.4389 658.982C71.2984 659.153 71.1783 659.321 71.0402 659.498L70.7845 659.848C70.6668 660.022 70.5671 660.188 70.4674 660.354C70.3677 660.521 70.3302 660.582 70.2886 660.685C70.247 660.787 70.1339 661.025 70.0593 661.2C69.9847 661.375 69.9716 661.394 69.9456 661.483C69.8718 661.71 69.8388 661.933 69.8214 662.143C69.8215 662.167 69.8302 662.187 69.8472 662.204C69.7289 663.625 70.7554 664.595 72.7978 664.992C75.5361 665.528 79.9003 665.002 84.9486 663.529V663.529Z" fill="#007681"/>
<path fill-rule="evenodd" clip-rule="evenodd" d="M597.368 549.404L597.369 549.402L595.82 553.849L591.936 565.022L588.292 575.494L588.291 575.493L579.816 564.165L597.366 549.405L597.366 549.403L597.368 549.402L597.368 549.404ZM597.366 549.403L579.815 564.165L576.56 559.807L599.464 543.377L597.366 549.403Z" fill="#CF4C84"/>
<path fill-rule="evenodd" clip-rule="evenodd" d="M1287.13 738.908L1285.24 738.5L1289.94 739.517L1289.94 739.517L1289.94 739.517L1289.94 739.516L1296.31 740.892L1276.8 719.708L1272.78 723.552L1272.78 723.552L1262.35 733.559L1273.42 735.951L1285.24 738.499L1287.13 738.908Z" fill="#CF4C84"/>
<path fill-rule="evenodd" clip-rule="evenodd" d="M1530.8 618.419L1530.8 618.414L1531.5 626.003L1533.27 645.062L1534.92 662.928L1534.92 662.927L1522.33 655.877L1530.79 618.423L1530.79 618.419L1530.79 618.414L1530.8 618.419ZM1530.79 618.419L1522.33 655.877L1517.49 653.16L1529.84 608.137L1530.79 618.419Z" fill="#CF4C84"/>
<path fill-rule="evenodd" clip-rule="evenodd" d="M564.609 784.158L564.608 784.157L568.936 785.071L579.808 787.362L589.998 789.512L589.997 789.512L584.329 794.714L584.329 794.714L582.147 796.713L558.747 782.922L564.611 784.159L564.609 784.158Z" fill="#CF4C84"/>
<path fill-rule="evenodd" clip-rule="evenodd" d="M648.415 737.137L648.415 737.137L645.485 732.838L638.121 722.043L631.22 711.923L631.22 711.923L641.07 711.967L648.414 737.134L648.414 737.134L648.415 737.137L648.415 737.137ZM648.414 737.134L641.07 711.967L644.859 711.988L652.386 742.959L648.414 737.134Z" fill="#CF4C84"/>
<path fill-rule="evenodd" clip-rule="evenodd" d="M961.237 729.851L961.236 729.85L970.029 729.961L992.113 730.23L1012.81 730.487L1012.81 730.488L1003.21 744.083L961.242 729.852L961.241 729.852L961.236 729.851L961.237 729.851ZM961.241 729.852L1003.21 744.083L999.503 749.307L949.328 729.704L961.241 729.852Z" fill="#CF4C84"/>
<path fill-rule="evenodd" clip-rule="evenodd" d="M1273.94 622.508L1273.93 622.508L1279.29 615.536L1292.74 598.018L1305.35 581.6L1305.35 581.6L1310.48 597.439L1273.94 622.505L1273.94 622.505L1273.94 622.508L1273.94 622.508ZM1273.94 622.505L1310.48 597.439L1312.44 603.533L1266.68 631.954L1273.94 622.505Z" fill="#CF4C84"/>
<path d="M1144.84 710.583C1144.73 710.843 1144.64 711.113 1144.55 711.383C1143.97 713.062 1143.82 714.926 1144.12 716.862C1144.42 718.798 1145.16 720.764 1146.29 722.638C1148.17 725.761 1151.05 728.481 1154.45 730.346C1157.23 731.87 1160.24 732.754 1163.13 732.896C1165.75 733.029 1168.18 732.555 1170.2 731.517C1172.22 730.48 1173.77 728.913 1174.71 726.961L1144.84 710.583Z" fill="#92CFB5"/>
<path d="M1368.54 463.98C1368.68 464.221 1368.84 464.456 1369.01 464.691C1370 466.162 1371.41 467.395 1373.14 468.316C1374.87 469.237 1376.88 469.826 1379.06 470.045C1382.68 470.411 1386.59 469.736 1390.12 468.132C1393.01 466.816 1395.52 464.936 1397.37 462.705C1399.04 460.694 1400.11 458.465 1400.5 456.224C1400.88 453.983 1400.55 451.802 1399.55 449.883L1368.54 463.98Z" fill="#92CFB5"/>
<path fill-rule="evenodd" clip-rule="evenodd" d="M1631.61 337.809L1631.8 340.992L1631.32 333.019L1631.32 333.021L1631.32 333.019L1631.32 333.022L1630.66 322.221L1616.23 368.975L1621.21 371.982L1621.21 371.982L1634.16 379.786L1633.02 361.016L1631.8 340.992L1631.61 337.809Z" fill="#CF4C84"/>
<path d="M1615.71 402.953C1614.52 402.45 1613.29 401.943 1612.02 401.439C1609.47 400.42 1606.83 399.435 1604.29 398.548C1601.75 397.661 1599.38 396.895 1597.31 396.299C1595.77 395.853 1594.43 395.507 1593.33 395.274C1592.99 395.203 1592.68 395.143 1592.4 395.095C1591.52 394.948 1590.89 394.907 1590.52 394.974C1590.06 395.064 1590.06 395.339 1590.54 395.781C1591.01 396.224 1591.94 396.826 1593.28 397.554C1594.62 398.281 1596.34 399.119 1598.34 400.021C1600.34 400.922 1602.58 401.869 1604.94 402.807L1605.02 402.839C1605.56 403.043 1606.09 403.26 1606.61 403.461L1608.29 404.099L1609.07 404.399L1610.03 404.752L1610.79 405.029L1611.76 405.374L1612.47 405.626L1613.45 405.968L1614.09 406.188L1615.2 406.56L1615.68 406.719C1616.19 406.887 1616.69 407.046 1617.18 407.204L1617.46 407.288C1617.85 407.412 1618.25 407.536 1618.63 407.649L1619.09 407.787C1619.39 407.872 1619.7 407.966 1619.97 408.045L1620.48 408.185L1621.23 408.39C1621.4 408.437 1621.56 408.479 1621.71 408.517L1622.4 408.692C1622.54 408.725 1622.7 408.764 1622.84 408.795C1622.98 408.827 1623.24 408.889 1623.44 408.933L1623.85 409.02C1624.02 409.056 1624.19 409.084 1624.37 409.118L1624.71 409.178C1624.87 409.204 1625.02 409.224 1625.16 409.243C1625.31 409.263 1625.36 409.27 1625.44 409.275C1625.51 409.279 1625.7 409.295 1625.83 409.303C1625.96 409.312 1625.98 409.315 1626.04 409.314C1626.19 409.315 1626.31 409.301 1626.41 409.282C1626.42 409.279 1626.43 409.273 1626.42 409.263C1627.12 409.133 1626.77 408.594 1625.42 407.713C1623.6 406.532 1620.12 404.822 1615.71 402.953V402.953Z" fill="#007681"/>
<path d="M1613.86 615.918C1614.68 616.75 1615.54 617.605 1616.42 618.471C1618.2 620.221 1620.05 621.982 1621.84 623.634C1623.63 625.287 1625.32 626.793 1626.8 628.051C1627.91 628.992 1628.88 629.785 1629.69 630.401C1629.94 630.588 1630.17 630.757 1630.38 630.908C1631.03 631.372 1631.51 631.662 1631.81 631.768C1632.18 631.9 1632.23 631.713 1631.96 631.217C1631.68 630.722 1631.07 629.929 1630.18 628.882C1629.29 627.835 1628.12 626.555 1626.75 625.116C1625.38 623.677 1623.83 622.107 1622.19 620.495L1622.13 620.438C1621.76 620.078 1621.39 619.71 1621.03 619.359L1619.85 618.232L1619.3 617.702L1618.63 617.065L1618.09 616.562L1617.42 615.929L1616.91 615.465L1616.22 614.825L1615.76 614.408L1614.98 613.697L1614.64 613.392C1614.28 613.066 1613.92 612.753 1613.57 612.439L1613.37 612.268C1613.09 612.021 1612.81 611.773 1612.54 611.539L1612.21 611.252C1611.99 611.073 1611.77 610.881 1611.57 610.713L1611.21 610.409L1610.67 609.959C1610.55 609.857 1610.43 609.76 1610.32 609.67L1609.82 609.269C1609.72 609.188 1609.61 609.096 1609.5 609.016C1609.4 608.936 1609.21 608.784 1609.06 608.674L1608.76 608.445C1608.63 608.347 1608.51 608.261 1608.38 608.163L1608.13 607.981C1608.01 607.896 1607.9 607.822 1607.79 607.748C1607.68 607.674 1607.64 607.646 1607.58 607.612C1607.52 607.578 1607.38 607.489 1607.28 607.429C1607.18 607.369 1607.17 607.359 1607.12 607.336C1607 607.271 1606.91 607.231 1606.82 607.201C1606.82 607.199 1606.81 607.202 1606.81 607.21C1606.25 607.007 1606.41 607.516 1607.28 608.673C1608.45 610.224 1610.82 612.826 1613.86 615.918V615.918Z" fill="#007681"/>
<path fill-rule="evenodd" clip-rule="evenodd" d="M1678.48 709.484L1675.92 711.017L1679.85 708.665L1679.85 708.665L1679.85 708.665L1679.84 708.665L1685.16 705.476L1657.85 703.474L1657.57 708.75L1657.57 708.75L1656.84 722.473L1666.07 716.932L1675.92 711.017L1678.48 709.484Z" fill="#CF4C84"/>
<path d="M1759.53 615.337C1758.37 615.686 1757.18 616.074 1755.97 616.497C1753.53 617.353 1751.07 618.336 1748.77 619.379C1746.46 620.422 1744.37 621.501 1742.62 622.543C1741.31 623.321 1740.2 624.069 1739.35 624.758C1739.09 624.969 1738.86 625.174 1738.65 625.371C1738 625.982 1737.6 626.522 1737.46 626.976C1737.28 627.562 1737.55 627.987 1738.25 628.226C1738.94 628.466 1740.06 628.515 1741.52 628.372C1742.99 628.228 1744.78 627.895 1746.79 627.39C1748.8 626.885 1750.99 626.219 1753.24 625.43L1753.32 625.4C1753.82 625.205 1754.34 625.036 1754.83 624.854L1756.4 624.245L1757.14 623.959L1758.03 623.593L1758.73 623.3L1759.61 622.919L1760.26 622.631L1761.15 622.224L1761.73 621.952L1762.72 621.473L1763.15 621.265C1763.6 621.037 1764.04 620.81 1764.47 620.583L1764.71 620.45C1765.06 620.266 1765.4 620.081 1765.73 619.896L1766.13 619.665C1766.38 619.517 1766.64 619.366 1766.88 619.224L1767.3 618.962L1767.92 618.566C1768.07 618.475 1768.2 618.385 1768.33 618.297L1768.88 617.917C1769 617.833 1769.12 617.743 1769.24 617.656C1769.35 617.569 1769.56 617.415 1769.71 617.297L1770.03 617.042C1770.16 616.927 1770.28 616.815 1770.42 616.697L1770.67 616.464C1770.79 616.348 1770.89 616.239 1770.99 616.13C1771.1 616.021 1771.14 615.98 1771.18 615.915C1771.23 615.849 1771.35 615.695 1771.43 615.583C1771.52 615.47 1771.53 615.458 1771.56 615.401C1771.65 615.257 1771.71 615.119 1771.75 614.99C1771.75 614.975 1771.75 614.963 1771.73 614.954C1772.01 614.08 1771.29 613.57 1769.67 613.489C1767.49 613.378 1763.85 614.042 1759.53 615.337V615.337Z" fill="#007681"/>
</g>
</svg>
