<svg width="198" height="205" viewBox="0 0 198 205" fill="none" xmlns="http://www.w3.org/2000/svg">
<path fill-rule="evenodd" clip-rule="evenodd" d="M99 201.453C44.3238 201.453 0 156.357 0 100.727C0 45.0969 44.3238 0 99 0C153.676 0 198 45.0969 198 100.727C198 133.735 182.395 163.035 158.281 181.406L152.972 204.535L128.317 196.964C119.053 199.882 109.207 201.453 99 201.453Z" fill="#007681"/>
<path d="M56.8723 118L66.7923 104H66.8723V118H73.2723V88H70.4723L60.5523 103.2H60.4723V88H54.0723V118H56.8723ZM75.9808 123.36H79.9808V118H100.261V123.36H104.261V112H101.061V88H82.2608V100.88C82.2608 106.84 81.2208 109.32 78.4208 112H75.9808V123.36ZM88.6608 94H94.6608V112H86.3008C87.9408 108.88 88.6608 106.52 88.6608 101.68V94ZM107.209 118H121.209V112H113.609V105.6H120.009V99.6H113.609V94H121.209V88H107.209V118ZM125.611 97.2C125.611 101.24 127.211 103.68 129.811 105.04L124.011 118H131.211L135.931 105.6H136.011V118H142.411V88H136.011C130.211 88 125.611 90.72 125.611 97.2ZM132.011 97.2C132.011 94.92 133.531 93.6 136.011 93.6V100.8C133.531 100.8 132.011 99.92 132.011 97.2Z" fill="white"/>
</svg>
