<svg width="198" height="205" viewBox="0 0 198 205" fill="none" xmlns="http://www.w3.org/2000/svg">
<path fill-rule="evenodd" clip-rule="evenodd" d="M99 201.89C153.676 201.89 198 156.695 198 100.945C198 45.1946 153.676 0 99 0C44.3238 0 0 45.1946 0 100.945C0 134.024 15.6043 163.387 39.7168 181.798L45.0264 204.978L69.6818 197.39C78.9464 200.315 88.7928 201.89 99 201.89Z" fill="#CF4C84"/>
<path d="M34.1605 99.769V105.369H35.7205C37.6805 105.369 38.7605 107.129 38.7605 109.089C38.7605 111.209 37.6805 112.969 35.7205 112.969C33.8405 112.969 32.8005 111.489 32.5605 109.689H26.5605C26.9605 115.009 30.6405 118.769 35.7205 118.769C41.0805 118.769 44.9605 115.369 44.9605 109.489C44.9605 106.089 43.4805 103.289 41.2005 102.409V102.329C43.1605 100.929 44.1605 99.409 44.1605 96.489C44.1605 91.089 40.8405 87.569 35.7205 87.569C30.8005 87.569 27.4405 90.409 26.9605 96.969H32.9605C33.1205 94.409 34.1605 93.369 35.7205 93.369C37.2005 93.369 37.9605 94.689 37.9605 96.689C37.9605 98.569 37.2005 99.769 35.3205 99.769H34.1605ZM57.0673 88.169L47.5073 118.169H54.3073L55.4273 113.769H61.9473L63.0673 118.169H69.9073L60.3473 88.169H57.0673ZM60.5473 108.169H56.8273L58.6273 100.729H58.7073L60.5473 108.169ZM71.6761 123.529H75.6761V118.169H95.9561V123.529H99.9561V112.169H96.7561V88.169H77.9561V101.049C77.9561 107.009 76.9161 109.489 74.1161 112.169H71.6761V123.529ZM84.3561 94.169H90.3561V112.169H81.9961C83.6361 109.049 84.3561 106.689 84.3561 101.849V94.169ZM111.264 88.169L101.704 118.169H108.504L109.624 113.769H116.144L117.264 118.169H124.104L114.544 88.169H111.264ZM114.744 108.169H111.024L112.824 100.729H112.904L114.744 108.169ZM139.473 118.169H145.873V88.169H139.473V102.369C138.753 102.609 137.593 102.769 136.553 102.769C134.433 102.769 133.473 100.969 133.473 97.889V88.169H127.073V100.569C127.073 105.129 129.233 108.769 133.673 108.769C135.713 108.769 137.793 108.409 139.473 107.769V118.169ZM158.391 88.169L148.831 118.169H155.631L156.751 113.769H163.271L164.391 118.169H171.231L161.671 88.169H158.391ZM161.871 108.169H158.151L159.951 100.729H160.031L161.871 108.169Z" fill="white"/>
</svg>
